<svg width="633" height="585" viewBox="0 0 633 585" fill="none" xmlns="http://www.w3.org/2000/svg">
<g id="group_concertDrawing">
<g id="seatGroup">
<g id="btn_2F_43_40">
<path d="M18.6156 92.0825C12.4137 109.774 7.79858 127.983 4.82471 146.493L83.2814 159.098C85.5074 145.243 88.9621 131.613 93.6044 118.37L18.6156 92.0825Z" fill="#F8F9FA"/>
<path d="M37.9437 137.12V134.795L43.9202 125.479H47.6117V134.756H49.4085V137.12H47.6117V139.62H44.8187V137.12H37.9437ZM40.9124 134.756H44.8577V128.702H44.721L40.9124 134.639V134.756Z" fill="#343A40"/>
<path d="M56.157 139.815C53.0515 139.815 50.8249 138.096 50.7663 135.635H53.7351C53.7937 136.69 54.8093 137.393 56.1765 137.393C57.5827 137.393 58.5984 136.592 58.5788 135.459C58.5984 134.307 57.5632 133.487 55.9031 133.487H54.5945V131.319H55.9031C57.2898 131.319 58.2663 130.557 58.2663 129.444C58.2663 128.37 57.446 127.627 56.196 127.627C54.946 127.627 53.9109 128.331 53.8718 129.405H51.0593C51.0984 126.963 53.3054 125.284 56.196 125.284C59.1452 125.284 61.1179 127.022 61.0984 129.268C61.1179 130.85 60.0046 131.983 58.4226 132.256V132.374C60.4929 132.627 61.6452 133.897 61.6257 135.655C61.6452 138.077 59.3406 139.815 56.157 139.815Z" fill="#343A40"/>
</g>
<g id="btn_2F_42_39">
<path d="M3.94256 152.329C1.31492 170.891 0.344352 189.65 1.04233 208.384L80.4501 205.426C79.9276 191.403 80.6541 177.361 82.621 163.466L3.94256 152.329Z" fill="#F8F9FA"/>
<path d="M35.7264 187.119V184.795L41.703 175.479H45.3944V184.756H47.1912V187.119H45.3944V189.619H42.6014V187.119H35.7264ZM38.6951 184.756H42.6405V178.701H42.5037L38.6951 184.639V184.756Z" fill="#343A40"/>
<path d="M48.7053 189.619L48.6858 187.49L53.7639 182.823C55.092 181.553 55.7951 180.772 55.7951 179.658C55.7951 178.408 54.8381 177.627 53.5491 177.627C52.2209 177.627 51.3616 178.467 51.3616 179.815H48.5686C48.5491 177.041 50.5998 175.283 53.5881 175.283C56.6155 175.283 58.6272 177.002 58.6272 179.463C58.6272 181.065 57.8459 182.393 54.9358 185.03L52.7873 187.119V187.198H58.8225V189.619H48.7053Z" fill="#343A40"/>
</g>
<g id="btn_2F_41_38">
<path d="M1.29395 213.854C2.28087 231.923 4.81803 249.873 8.87746 267.508L86.315 249.682C83.2764 236.482 81.3773 223.045 80.6385 209.52L1.29395 213.854Z" fill="#F8F9FA"/>
<path d="M39.7401 237.12V234.795L45.7166 225.479H49.408V234.756H51.2049V237.12H49.408V239.62H46.6151V237.12H39.7401ZM42.7088 234.756H46.6541V228.702H46.5174L42.7088 234.639V234.756Z" fill="#343A40"/>
<path d="M58.6174 225.479V239.62H55.6682V228.272H55.5901L52.3479 230.303V227.706L55.844 225.479H58.6174Z" fill="#343A40"/>
</g>
<g id="btn_2F_40_37">
<path d="M10.5273 274.33C14.9318 291.69 20.8042 308.644 28.081 325.01L100.689 292.724C95.2425 280.474 90.8468 267.783 87.5499 254.789L10.5273 274.33Z" fill="#F8F9FA"/>
<path d="M49.7284 287.12V284.795L55.7049 275.479H59.3963V284.756H61.1932V287.12H59.3963V289.62H56.6034V287.12H49.7284ZM52.6971 284.756H56.6424V278.702H56.5057L52.6971 284.639V284.756Z" fill="#343A40"/>
<path d="M68.1955 289.815C64.6604 289.815 62.5119 287.178 62.5119 282.549C62.5119 277.92 64.6604 275.284 68.1955 275.284C71.7307 275.284 73.8791 277.94 73.8791 282.549C73.8791 287.198 71.7307 289.815 68.1955 289.815ZM68.1955 287.393C69.8362 287.393 70.8909 285.811 70.8713 282.549C70.8713 279.327 69.8362 277.686 68.1955 277.686C66.5549 277.686 65.5198 279.327 65.5198 282.549C65.5002 285.811 66.5549 287.393 68.1955 287.393Z" fill="#343A40"/>
</g>
<g id="btn_2F_39_36">
<path d="M31.0762 331.544C38.6515 347.587 47.5645 362.964 57.7207 377.511L122.876 332.023C115.274 321.134 108.602 309.624 102.931 297.615L31.0762 331.544Z" fill="#F8F9FA"/>
<path d="M79.5584 337.815C76.453 337.815 74.2264 336.096 74.1678 333.635H77.1366C77.1951 334.69 78.2108 335.393 79.578 335.393C80.9842 335.393 81.9998 334.592 81.9803 333.459C81.9998 332.307 80.9647 331.487 79.3045 331.487H77.9959V329.319H79.3045C80.6912 329.319 81.6678 328.557 81.6678 327.444C81.6678 326.37 80.8475 325.627 79.5975 325.627C78.3475 325.627 77.3123 326.331 77.2733 327.405H74.4608C74.4998 324.963 76.7069 323.284 79.5975 323.284C82.5467 323.284 84.5194 325.022 84.4998 327.268C84.5194 328.85 83.4061 329.983 81.8241 330.256V330.374C83.8944 330.627 85.0467 331.897 85.0272 333.655C85.0467 336.077 82.742 337.815 79.5584 337.815Z" fill="#343A40"/>
<path d="M91.8537 323.284C94.7834 323.303 97.5569 325.042 97.5569 330.178C97.5764 334.983 95.2912 337.815 91.7366 337.815C88.885 337.815 86.9514 336.038 86.6584 333.635H89.5491C89.7834 334.67 90.6037 335.295 91.7366 335.295C93.6701 335.295 94.6858 333.577 94.6858 330.745H94.5686C93.9045 331.995 92.5178 332.737 90.9358 332.737C88.3967 332.737 86.5217 330.823 86.5022 328.186C86.5022 325.334 88.6506 323.264 91.8537 323.284ZM91.8733 325.588C90.428 325.588 89.3537 326.702 89.3733 328.108C89.3733 329.495 90.4084 330.588 91.8537 330.588C93.2795 330.588 94.3928 329.456 94.3928 328.088C94.3733 326.741 93.3186 325.588 91.8733 325.588Z" fill="#343A40"/>
</g>
<g id="btn_2F_38_35">
<path d="M61.9873 383.473C72.4782 397.781 84.1555 411.18 96.8952 423.528L152.2 366.469C142.663 357.226 133.923 347.196 126.07 336.486L61.9873 383.473Z" fill="#F8F9FA"/>
<path d="M109.549 381.815C106.443 381.815 104.217 380.096 104.158 377.635H107.127C107.185 378.69 108.201 379.393 109.568 379.393C110.974 379.393 111.99 378.592 111.971 377.459C111.99 376.307 110.955 375.487 109.295 375.487H107.986V373.319H109.295C110.681 373.319 111.658 372.557 111.658 371.444C111.658 370.37 110.838 369.627 109.588 369.627C108.338 369.627 107.303 370.331 107.264 371.405H104.451C104.49 368.963 106.697 367.284 109.588 367.284C112.537 367.284 114.51 369.022 114.49 371.268C114.51 372.85 113.396 373.983 111.814 374.256V374.374C113.885 374.627 115.037 375.897 115.017 377.655C115.037 380.077 112.732 381.815 109.549 381.815Z" fill="#343A40"/>
<path d="M122 381.815C118.778 381.815 116.453 380.116 116.453 377.811C116.453 376.034 117.821 374.588 119.578 374.315V374.217C118.055 373.924 117 372.635 117 371.092C117 368.885 119.11 367.284 122 367.284C124.891 367.284 127 368.885 127.02 371.092C127 372.655 125.926 373.924 124.442 374.217V374.315C126.16 374.588 127.547 376.034 127.547 377.811C127.547 380.116 125.223 381.815 122 381.815ZM122 379.569C123.485 379.569 124.481 378.729 124.481 377.518C124.481 376.288 123.446 375.389 122 375.389C120.555 375.389 119.5 376.288 119.52 377.518C119.5 378.729 120.496 379.569 122 379.569ZM122 373.319C123.25 373.319 124.149 372.518 124.149 371.385C124.149 370.292 123.27 369.51 122 369.51C120.731 369.51 119.871 370.272 119.871 371.385C119.871 372.518 120.75 373.319 122 373.319Z" fill="#343A40"/>
</g>
<g id="btn_2F_37_34">
<path d="M101.839 428.218C114.842 440.288 128.839 451.242 143.68 460.963L187.219 394.49C176.11 387.213 165.633 379.014 155.9 369.979L101.839 428.218Z" fill="#F8F9FA"/>
<path d="M143.232 417.815C140.127 417.815 137.9 416.096 137.842 413.635H140.81C140.869 414.69 141.885 415.393 143.252 415.393C144.658 415.393 145.674 414.592 145.654 413.459C145.674 412.307 144.639 411.487 142.978 411.487H141.67V409.319H142.978C144.365 409.319 145.342 408.557 145.342 407.444C145.342 406.369 144.521 405.627 143.271 405.627C142.021 405.627 140.986 406.33 140.947 407.405H138.135C138.174 404.963 140.381 403.283 143.271 403.283C146.221 403.283 148.193 405.022 148.174 407.268C148.193 408.85 147.08 409.983 145.498 410.256V410.373C147.568 410.627 148.721 411.897 148.701 413.655C148.721 416.076 146.416 417.815 143.232 417.815Z" fill="#343A40"/>
<path d="M150.918 417.619L156.875 405.979V405.881H149.942V403.479H159.922V405.92L153.965 417.619H150.918Z" fill="#343A40"/>
</g>
<g id="btn_2F_36_33">
<path d="M149.396 464.62C164.442 474.02 180.254 482.137 196.663 488.883L226.879 415.389C214.596 410.339 202.761 404.264 191.497 397.228L149.396 464.62Z" fill="#F8F9FA"/>
<path d="M187.558 445.815C184.453 445.815 182.226 444.096 182.168 441.635H185.137C185.195 442.69 186.211 443.393 187.578 443.393C188.984 443.393 190 442.592 189.98 441.459C190 440.307 188.965 439.487 187.305 439.487H185.996V437.319H187.305C188.691 437.319 189.668 436.557 189.668 435.444C189.668 434.37 188.847 433.627 187.597 433.627C186.347 433.627 185.312 434.331 185.273 435.405H182.461C182.5 432.963 184.707 431.284 187.597 431.284C190.547 431.284 192.519 433.022 192.5 435.268C192.519 436.85 191.406 437.983 189.824 438.256V438.374C191.894 438.627 193.047 439.897 193.027 441.655C193.047 444.077 190.742 445.815 187.558 445.815Z" fill="#343A40"/>
<path d="M200.166 445.815C197.237 445.795 194.463 444.057 194.463 438.881C194.463 434.116 196.748 431.284 200.283 431.284C203.135 431.284 205.069 433.081 205.362 435.405H202.471C202.237 434.409 201.416 433.803 200.283 433.803C198.369 433.803 197.354 435.542 197.334 438.315H197.471C198.115 437.065 199.522 436.323 201.084 436.323C203.623 436.323 205.518 438.237 205.518 440.893C205.518 443.764 203.35 445.834 200.166 445.815ZM200.147 443.491C201.592 443.491 202.666 442.397 202.666 440.971C202.666 439.565 201.631 438.452 200.186 438.452C198.74 438.452 197.647 439.584 197.627 440.971C197.647 442.358 198.701 443.491 200.147 443.491Z" fill="#343A40"/>
</g>
<g id="btn_2F_35_32">
<path d="M203.237 491.5C219.793 497.877 236.857 502.849 254.248 506.362L269.983 428.473C256.966 425.843 244.193 422.122 231.8 417.348L203.237 491.5Z" fill="#F8F9FA"/>
<path d="M235.215 467.815C232.109 467.815 229.883 466.096 229.824 463.635H232.793C232.851 464.69 233.867 465.393 235.234 465.393C236.64 465.393 237.656 464.593 237.637 463.46C237.656 462.307 236.621 461.487 234.961 461.487H233.652V459.319H234.961C236.347 459.319 237.324 458.557 237.324 457.444C237.324 456.37 236.504 455.628 235.254 455.628C234.004 455.628 232.969 456.331 232.93 457.405H230.117C230.156 454.964 232.363 453.284 235.254 453.284C238.203 453.284 240.176 455.022 240.156 457.268C240.176 458.85 239.062 459.983 237.48 460.257V460.374C239.551 460.628 240.703 461.897 240.683 463.655C240.703 466.077 238.398 467.815 235.215 467.815Z" fill="#343A40"/>
<path d="M247.549 467.815C244.6 467.815 242.451 466.077 242.393 463.635H245.244C245.303 464.749 246.319 465.491 247.549 465.491C249.014 465.491 250.049 464.456 250.049 462.991C250.049 461.487 248.994 460.452 247.51 460.432C246.455 460.432 245.713 460.823 245.283 461.624H242.627L243.389 453.479H252.1V455.882H245.811L245.42 459.456H245.537C246.065 458.753 247.119 458.264 248.369 458.264C250.967 458.264 252.901 460.198 252.901 462.913C252.901 465.764 250.733 467.815 247.549 467.815Z" fill="#343A40"/>
</g>
<g id="btn_2F_34_31">
<path d="M264.095 491.95C280.676 494.91 297.477 496.469 314.32 496.609L314.852 432.881C301.587 432.771 288.355 431.543 275.296 429.211L264.095 491.95Z" fill="#F8F9FA"/>
<path d="M285.412 469.815C282.306 469.815 280.08 468.096 280.021 465.635H282.99C283.049 466.69 284.064 467.393 285.431 467.393C286.838 467.393 287.853 466.592 287.834 465.459C287.853 464.307 286.818 463.487 285.158 463.487H283.849V461.319H285.158C286.545 461.319 287.521 460.557 287.521 459.444C287.521 458.37 286.701 457.627 285.451 457.627C284.201 457.627 283.166 458.331 283.127 459.405H280.314C280.353 456.963 282.56 455.284 285.451 455.284C288.4 455.284 290.373 457.022 290.353 459.268C290.373 460.85 289.26 461.983 287.678 462.256V462.374C289.748 462.627 290.9 463.897 290.881 465.655C290.9 468.077 288.596 469.815 285.412 469.815Z" fill="#343A40"/>
<path d="M292.317 467.12V464.795L298.293 455.479H301.985V464.756H303.781V467.12H301.985V469.62H299.192V467.12H292.317ZM295.285 464.756H299.231V458.702H299.094L295.285 464.639V464.756Z" fill="#343A40"/>
</g>
<g id="btn_2F_33_30">
<path d="M369.551 491.95C352.97 494.91 336.169 496.469 319.326 496.609L318.794 432.881C332.059 432.771 345.291 431.543 358.35 429.211L369.551 491.95Z" fill="#F8F9FA"/>
<path d="M335.597 469.815C332.492 469.815 330.265 468.096 330.207 465.635H333.176C333.234 466.69 334.25 467.393 335.617 467.393C337.023 467.393 338.039 466.592 338.019 465.459C338.039 464.307 337.004 463.487 335.344 463.487H334.035V461.319H335.344C336.73 461.319 337.707 460.557 337.707 459.444C337.707 458.37 336.887 457.627 335.637 457.627C334.387 457.627 333.351 458.331 333.312 459.405H330.5C330.539 456.963 332.746 455.284 335.637 455.284C338.586 455.284 340.558 457.022 340.539 459.268C340.558 460.85 339.445 461.983 337.863 462.256V462.374C339.933 462.627 341.086 463.897 341.066 465.655C341.086 468.077 338.781 469.815 335.597 469.815Z" fill="#343A40"/>
<path d="M347.971 469.815C344.865 469.815 342.639 468.096 342.58 465.635H345.549C345.608 466.69 346.623 467.393 347.99 467.393C349.397 467.393 350.412 466.592 350.393 465.459C350.412 464.307 349.377 463.487 347.717 463.487H346.408V461.319H347.717C349.104 461.319 350.08 460.557 350.08 459.444C350.08 458.37 349.26 457.627 348.01 457.627C346.76 457.627 345.725 458.331 345.686 459.405H342.873C342.912 456.963 345.119 455.284 348.01 455.284C350.959 455.284 352.932 457.022 352.912 459.268C352.932 460.85 351.819 461.983 350.237 462.256V462.374C352.307 462.627 353.459 463.897 353.44 465.655C353.459 468.077 351.155 469.815 347.971 469.815Z" fill="#343A40"/>
</g>
<g id="btn_2F_32_29">
<path d="M430.409 491.5C413.853 497.877 396.789 502.849 379.399 506.362L363.663 428.473C376.68 425.843 389.453 422.122 401.846 417.348L430.409 491.5Z" fill="#F8F9FA"/>
<path d="M387.381 467.815C384.275 467.815 382.049 466.096 381.99 463.635H384.959C385.017 464.69 386.033 465.393 387.4 465.393C388.806 465.393 389.822 464.593 389.803 463.46C389.822 462.307 388.787 461.487 387.127 461.487H385.818V459.319H387.127C388.514 459.319 389.49 458.557 389.49 457.444C389.49 456.37 388.67 455.628 387.42 455.628C386.17 455.628 385.135 456.331 385.096 457.405H382.283C382.322 454.964 384.529 453.284 387.42 453.284C390.369 453.284 392.342 455.022 392.322 457.268C392.342 458.85 391.228 459.983 389.646 460.257V460.374C391.717 460.628 392.869 461.897 392.849 463.655C392.869 466.077 390.564 467.815 387.381 467.815Z" fill="#343A40"/>
<path d="M394.52 467.62L394.5 465.491L399.578 460.823C400.906 459.553 401.61 458.772 401.61 457.659C401.61 456.409 400.653 455.628 399.364 455.628C398.035 455.628 397.176 456.468 397.176 457.815H394.383C394.364 455.042 396.414 453.284 399.403 453.284C402.43 453.284 404.442 455.003 404.442 457.464C404.442 459.065 403.66 460.393 400.75 463.03L398.602 465.12V465.198H404.637V467.62H394.52Z" fill="#343A40"/>
</g>
<g id="btn_2F_31_28">
<path d="M484.25 464.62C469.203 474.02 453.392 482.137 436.982 488.883L406.767 415.389C419.049 410.339 430.885 404.264 442.148 397.228L484.25 464.62Z" fill="#F8F9FA"/>
<path d="M435.297 445.815C432.191 445.815 429.965 444.096 429.906 441.635H432.875C432.933 442.69 433.949 443.393 435.316 443.393C436.722 443.393 437.738 442.592 437.719 441.459C437.738 440.307 436.703 439.487 435.043 439.487H433.734V437.319H435.043C436.43 437.319 437.406 436.557 437.406 435.444C437.406 434.37 436.586 433.627 435.336 433.627C434.086 433.627 433.051 434.331 433.012 435.405H430.199C430.238 432.963 432.445 431.284 435.336 431.284C438.285 431.284 440.258 433.022 440.238 435.268C440.258 436.85 439.144 437.983 437.562 438.256V438.374C439.633 438.627 440.785 439.897 440.765 441.655C440.785 444.077 438.48 445.815 435.297 445.815Z" fill="#343A40"/>
<path d="M448.53 431.479V445.62H445.58V434.272H445.502L442.26 436.303V433.706L445.756 431.479H448.53Z" fill="#343A40"/>
</g>
<g id="btn_2F_30_27">
<path d="M531.807 428.218C518.804 440.288 504.808 451.242 489.966 460.963L446.427 394.49C457.536 387.213 468.013 379.014 477.746 369.979L531.807 428.218Z" fill="#F8F9FA"/>
<path d="M477.383 417.815C474.277 417.815 472.051 416.096 471.992 413.635H474.961C475.019 414.69 476.035 415.393 477.402 415.393C478.808 415.393 479.824 414.592 479.805 413.459C479.824 412.307 478.789 411.487 477.129 411.487H475.82V409.319H477.129C478.515 409.319 479.492 408.557 479.492 407.444C479.492 406.369 478.672 405.627 477.422 405.627C476.172 405.627 475.137 406.33 475.097 407.405H472.285C472.324 404.963 474.531 403.283 477.422 403.283C480.371 403.283 482.344 405.022 482.324 407.268C482.344 408.85 481.23 409.983 479.648 410.256V410.373C481.719 410.627 482.871 411.897 482.851 413.655C482.871 416.076 480.566 417.815 477.383 417.815Z" fill="#343A40"/>
<path d="M490.01 417.815C486.475 417.815 484.326 415.178 484.326 410.549C484.326 405.92 486.475 403.283 490.01 403.283C493.545 403.283 495.694 405.94 495.694 410.549C495.694 415.198 493.545 417.815 490.01 417.815ZM490.01 415.393C491.651 415.393 492.705 413.811 492.686 410.549C492.686 407.326 491.651 405.686 490.01 405.686C488.369 405.686 487.334 407.326 487.334 410.549C487.315 413.811 488.369 415.393 490.01 415.393Z" fill="#343A40"/>
</g>
<g id="btn_2F_29_26">
<path d="M571.66 383.473C561.17 397.781 549.492 411.18 536.753 423.528L481.448 366.469C490.984 357.226 499.725 347.196 507.578 336.486L571.66 383.473Z" fill="#F8F9FA"/>
<path d="M508.107 381.62L508.088 379.491L513.166 374.823C514.494 373.553 515.197 372.772 515.197 371.659C515.197 370.409 514.24 369.627 512.951 369.627C511.623 369.627 510.764 370.467 510.764 371.815H507.971C507.951 369.042 510.002 367.284 512.99 367.284C516.017 367.284 518.029 369.002 518.029 371.463C518.029 373.065 517.248 374.393 514.338 377.03L512.189 379.12V379.198H518.224V381.62H508.107Z" fill="#343A40"/>
<path d="M525.071 367.284C528 367.303 530.774 369.042 530.774 374.178C530.793 378.983 528.508 381.815 524.953 381.815C522.102 381.815 520.168 380.038 519.875 377.635H522.766C523 378.67 523.821 379.295 524.953 379.295C526.887 379.295 527.903 377.577 527.903 374.745H527.785C527.121 375.995 525.735 376.737 524.153 376.737C521.614 376.737 519.739 374.823 519.719 372.186C519.719 369.334 521.867 367.264 525.071 367.284ZM525.09 369.588C523.645 369.588 522.571 370.702 522.59 372.108C522.59 373.495 523.625 374.588 525.071 374.588C526.496 374.588 527.61 373.456 527.61 372.088C527.59 370.741 526.535 369.588 525.09 369.588Z" fill="#343A40"/>
</g>
<g id="btn_2F_28_25">
<path d="M602.57 331.544C594.995 347.587 586.082 362.964 575.926 377.511L510.771 332.023C518.373 321.134 525.044 309.624 530.715 297.615L602.57 331.544Z" fill="#F8F9FA"/>
<path d="M538.097 337.62L538.078 335.491L543.156 330.823C544.484 329.553 545.187 328.772 545.187 327.659C545.187 326.409 544.23 325.627 542.941 325.627C541.613 325.627 540.754 326.467 540.754 327.815H537.961C537.941 325.042 539.992 323.284 542.98 323.284C546.008 323.284 548.019 325.002 548.019 327.463C548.019 329.065 547.238 330.393 544.328 333.03L542.18 335.12V335.198H548.215V337.62H538.097Z" fill="#343A40"/>
<path d="M555.217 337.815C551.994 337.815 549.67 336.116 549.67 333.811C549.67 332.034 551.037 330.588 552.795 330.315V330.217C551.272 329.924 550.217 328.635 550.217 327.092C550.217 324.885 552.326 323.284 555.217 323.284C558.108 323.284 560.217 324.885 560.237 327.092C560.217 328.655 559.143 329.924 557.658 330.217V330.315C559.377 330.588 560.764 332.034 560.764 333.811C560.764 336.116 558.44 337.815 555.217 337.815ZM555.217 335.569C556.701 335.569 557.697 334.729 557.697 333.518C557.697 332.288 556.662 331.389 555.217 331.389C553.772 331.389 552.717 332.288 552.737 333.518C552.717 334.729 553.713 335.569 555.217 335.569ZM555.217 329.319C556.467 329.319 557.365 328.518 557.365 327.385C557.365 326.292 556.487 325.51 555.217 325.51C553.947 325.51 553.088 326.272 553.088 327.385C553.088 328.518 553.967 329.319 555.217 329.319Z" fill="#343A40"/>
</g>
<g id="btn_2F_27_24">
<path d="M623.119 274.33C618.715 291.69 612.842 308.644 605.565 325.01L532.957 292.724C538.404 280.474 542.8 267.783 546.097 254.789L623.119 274.33Z" fill="#F8F9FA"/>
<path d="M562.281 289.62L562.262 287.491L567.34 282.823C568.668 281.553 569.371 280.772 569.371 279.659C569.371 278.409 568.414 277.627 567.125 277.627C565.797 277.627 564.937 278.467 564.937 279.815H562.144C562.125 277.042 564.176 275.284 567.164 275.284C570.191 275.284 572.203 277.002 572.203 279.463C572.203 281.065 571.422 282.393 568.512 285.03L566.363 287.12V287.198H572.398V289.62H562.281Z" fill="#343A40"/>
<path d="M574.635 289.62L580.592 277.979V277.881H573.658V275.479H583.639V277.92L577.682 289.62H574.635Z" fill="#343A40"/>
</g>
<g id="btn_2F_26_23">
<path d="M632.353 213.854C631.366 231.923 628.829 249.873 624.77 267.508L547.332 249.682C550.371 236.482 552.27 223.045 553.009 209.52L632.353 213.854Z" fill="#F8F9FA"/>
<path d="M574.107 239.62L574.088 237.491L579.166 232.823C580.494 231.553 581.197 230.772 581.197 229.659C581.197 228.409 580.24 227.627 578.951 227.627C577.623 227.627 576.764 228.467 576.764 229.815H573.971C573.951 227.042 576.002 225.284 578.99 225.284C582.017 225.284 584.029 227.002 584.029 229.463C584.029 231.065 583.248 232.393 580.338 235.03L578.189 237.12V237.198H584.224V239.62H574.107Z" fill="#343A40"/>
<path d="M591.383 239.815C588.453 239.795 585.68 238.057 585.68 232.881C585.68 228.116 587.965 225.284 591.5 225.284C594.352 225.284 596.285 227.081 596.578 229.405H593.688C593.453 228.409 592.633 227.803 591.5 227.803C589.586 227.803 588.571 229.542 588.551 232.315H588.688C589.332 231.065 590.739 230.323 592.301 230.323C594.84 230.323 596.735 232.237 596.735 234.893C596.735 237.764 594.567 239.834 591.383 239.815ZM591.364 237.491C592.809 237.491 593.883 236.397 593.883 234.971C593.883 233.565 592.848 232.452 591.403 232.452C589.957 232.452 588.864 233.584 588.844 234.971C588.864 236.358 589.918 237.491 591.364 237.491Z" fill="#343A40"/>
</g>
<g id="btn_2F_25_22">
<path d="M629.704 152.329C632.331 170.891 633.302 189.65 632.604 208.384L553.196 205.426C553.719 191.403 552.992 177.361 551.025 163.466L629.704 152.329Z" fill="#F8F9FA"/>
<path d="M576.264 189.619L576.244 187.49L581.322 182.823C582.65 181.553 583.353 180.772 583.353 179.658C583.353 178.408 582.396 177.627 581.107 177.627C579.779 177.627 578.92 178.467 578.92 179.815H576.127C576.107 177.041 578.158 175.283 581.146 175.283C584.174 175.283 586.185 177.002 586.185 179.463C586.185 181.065 585.404 182.393 582.494 185.03L580.346 187.119V187.198H586.381V189.619H576.264Z" fill="#343A40"/>
<path d="M593.266 189.815C590.317 189.815 588.168 188.076 588.11 185.635H590.961C591.02 186.748 592.035 187.49 593.266 187.49C594.731 187.49 595.766 186.455 595.766 184.99C595.766 183.487 594.711 182.451 593.227 182.432C592.172 182.432 591.43 182.823 591 183.623H588.344L589.106 175.479H597.817V177.881H591.528L591.137 181.455H591.254C591.781 180.752 592.836 180.264 594.086 180.264C596.684 180.264 598.617 182.198 598.617 184.912C598.617 187.764 596.449 189.815 593.266 189.815Z" fill="#343A40"/>
</g>
<g id="btn_2F_24_21">
<path d="M615.031 92.0825C621.233 109.774 625.848 127.983 628.822 146.493L550.365 159.098C548.139 145.243 544.684 131.613 540.042 118.37L615.031 92.0825Z" fill="#F8F9FA"/>
<path d="M574.117 139.62L574.097 137.491L579.176 132.823C580.504 131.553 581.207 130.772 581.207 129.659C581.207 128.409 580.25 127.627 578.961 127.627C577.633 127.627 576.773 128.467 576.773 129.815H573.98C573.961 127.042 576.012 125.284 579 125.284C582.027 125.284 584.039 127.002 584.039 129.463C584.039 131.065 583.258 132.393 580.347 135.03L578.199 137.12V137.198H584.234V139.62H574.117Z" fill="#343A40"/>
<path d="M585.377 137.12V134.795L591.354 125.479H595.045V134.756H596.842V137.12H595.045V139.62H592.252V137.12H585.377ZM588.346 134.756H592.291V128.702H592.155L588.346 134.639V134.756Z" fill="#343A40"/>
</g>
<g id="btn_1F_15_20">
<path d="M109.314 123.546C104.16 138.182 100.569 153.323 98.6006 168.714L156.538 176.123C157.984 164.818 160.622 153.697 164.407 142.947L109.314 123.546Z" fill="#ADB5BD"/>
<path d="M128.273 145.479V159.62H125.324V148.272H125.246L122.004 150.303V147.706L125.5 145.479H128.273Z" fill="#343A40"/>
<path d="M136.35 159.815C133.401 159.815 131.252 158.077 131.194 155.635H134.045C134.104 156.749 135.119 157.491 136.35 157.491C137.815 157.491 138.85 156.456 138.85 154.991C138.85 153.487 137.795 152.452 136.311 152.432C135.256 152.432 134.514 152.823 134.084 153.624H131.428L132.19 145.479H140.901V147.882H134.612L134.221 151.456H134.338C134.865 150.753 135.92 150.264 137.17 150.264C139.768 150.264 141.701 152.198 141.701 154.913C141.701 157.764 139.533 159.815 136.35 159.815Z" fill="#343A40"/>
</g>
<g id="btn_1F_14_19">
<path d="M98.0926 173.021C96.4281 188.448 96.4005 204.009 98.0102 219.442L156.105 213.383C154.922 202.047 154.943 190.618 156.165 179.286L98.0926 173.021Z" fill="#ADB5BD"/>
<path d="M122.471 187.479V201.62H119.521V190.272H119.443L116.201 192.303V189.706L119.697 187.479H122.471Z" fill="#343A40"/>
<path d="M125.117 199.12V196.795L131.094 187.479H134.785V196.756H136.582V199.12H134.785V201.62H131.992V199.12H125.117ZM128.086 196.756H132.031V190.702H131.895L128.086 196.639V196.756Z" fill="#343A40"/>
</g>
<g id="btn_1F_13_18">
<path d="M98.4424 223.26C100.321 238.663 103.825 253.824 108.894 268.489L164.099 249.408C160.375 238.636 157.802 227.5 156.422 216.187L98.4424 223.26Z" fill="#ADB5BD"/>
<path d="M126.156 229.479V243.62H123.207V232.272H123.129L119.887 234.303V231.706L123.383 229.479H126.156Z" fill="#343A40"/>
<path d="M134.272 243.815C131.166 243.815 128.94 242.096 128.881 239.635H131.85C131.908 240.69 132.924 241.393 134.291 241.393C135.697 241.393 136.713 240.592 136.694 239.46C136.713 238.307 135.678 237.487 134.018 237.487H132.709V235.319H134.018C135.405 235.319 136.381 234.557 136.381 233.444C136.381 232.37 135.561 231.628 134.311 231.628C133.061 231.628 132.026 232.331 131.987 233.405H129.174C129.213 230.964 131.42 229.284 134.311 229.284C137.26 229.284 139.233 231.022 139.213 233.268C139.233 234.85 138.119 235.983 136.537 236.256V236.374C138.608 236.628 139.76 237.897 139.74 239.655C139.76 242.077 137.455 243.815 134.272 243.815Z" fill="#343A40"/>
</g>
<g id="btn_1F_12_17">
<path d="M110.599 273.246C116.003 287.791 122.931 301.724 131.268 314.812L180.532 283.432C174.409 273.819 169.32 263.585 165.351 252.902L110.599 273.246Z" fill="#ADB5BD"/>
<path d="M142.439 271.479V285.62H139.49V274.272H139.412L136.17 276.303V273.706L139.666 271.479H142.439Z" fill="#343A40"/>
<path d="M145.321 285.62L145.301 283.491L150.379 278.823C151.707 277.553 152.41 276.772 152.41 275.659C152.41 274.409 151.453 273.627 150.164 273.627C148.836 273.627 147.977 274.467 147.977 275.815H145.184C145.164 273.042 147.215 271.284 150.203 271.284C153.231 271.284 155.242 273.002 155.242 275.463C155.242 277.065 154.461 278.393 151.551 281.03L149.403 283.12V283.198H155.438V285.62H145.321Z" fill="#343A40"/>
</g>
<g id="btn_1F_11_16">
<path d="M156.426 347.194C167.046 358.507 178.833 368.665 191.591 377.498L224.84 329.475C215.469 322.987 206.812 315.526 199.011 307.217L156.426 347.194Z" fill="#ADB5BD"/>
<path d="M192.355 331.479V345.62H189.406V334.272H189.328L186.086 336.303V333.706L189.582 331.479H192.355Z" fill="#343A40"/>
<path d="M201.33 331.479V345.62H198.381V334.272H198.303L195.061 336.303V333.706L198.557 331.479H201.33Z" fill="#343A40"/>
</g>
<g id="btn_1F_10_15">
<path d="M197.353 381.354C210.382 389.78 224.267 396.804 238.774 402.309L259.496 347.699C248.84 343.656 238.642 338.496 229.072 332.307L197.353 381.354Z" fill="#ADB5BD"/>
<path d="M227.441 357.479V371.62H224.492V360.272H224.414L221.172 362.303V359.706L224.668 357.479H227.441Z" fill="#343A40"/>
<path d="M235.811 371.815C232.276 371.815 230.127 369.178 230.127 364.549C230.127 359.92 232.276 357.284 235.811 357.284C239.346 357.284 241.494 359.94 241.494 364.549C241.494 369.198 239.346 371.815 235.811 371.815ZM235.811 369.393C237.451 369.393 238.506 367.811 238.487 364.549C238.487 361.327 237.451 359.686 235.811 359.686C234.17 359.686 233.135 361.327 233.135 364.549C233.115 367.811 234.17 369.393 235.811 369.393Z" fill="#343A40"/>
</g>
<g id="btn_1F_9_14">
<path d="M243.961 404.519C258.671 409.459 273.862 412.829 289.28 414.573L295.843 356.533C284.518 355.253 273.36 352.777 262.556 349.149L243.961 404.519Z" fill="#ADB5BD"/>
<path d="M273.167 369.284C276.097 369.303 278.87 371.042 278.87 376.178C278.89 380.983 276.605 383.815 273.05 383.815C270.199 383.815 268.265 382.038 267.972 379.635H270.863C271.097 380.671 271.917 381.296 273.05 381.296C274.984 381.296 275.999 379.577 275.999 376.745H275.882C275.218 377.995 273.831 378.737 272.249 378.737C269.71 378.737 267.835 376.823 267.816 374.186C267.816 371.335 269.964 369.264 273.167 369.284ZM273.187 371.589C271.742 371.589 270.667 372.702 270.687 374.108C270.687 375.495 271.722 376.589 273.167 376.589C274.593 376.589 275.706 375.456 275.706 374.089C275.687 372.741 274.632 371.589 273.187 371.589Z" fill="#343A40"/>
</g>
<g id="btn_1F_8_13">
<path d="M339.244 414.798C323.81 416.399 308.25 416.362 292.823 414.688L299.123 356.62C310.453 357.849 321.882 357.876 333.219 356.7L339.244 414.798Z" fill="#ADB5BD"/>
<path d="M315.845 392.125C312.623 392.125 310.298 390.426 310.298 388.121C310.298 386.344 311.666 384.899 313.423 384.625V384.528C311.9 384.235 310.845 382.946 310.845 381.403C310.845 379.196 312.955 377.594 315.845 377.594C318.736 377.594 320.845 379.196 320.865 381.403C320.845 382.965 319.771 384.235 318.287 384.528V384.625C320.005 384.899 321.392 386.344 321.392 388.121C321.392 390.426 319.068 392.125 315.845 392.125ZM315.845 389.879C317.33 389.879 318.326 389.039 318.326 387.828C318.326 386.598 317.291 385.699 315.845 385.699C314.4 385.699 313.345 386.598 313.365 387.828C313.345 389.039 314.341 389.879 315.845 389.879ZM315.845 383.629C317.095 383.629 317.994 382.828 317.994 381.696C317.994 380.602 317.115 379.821 315.845 379.821C314.576 379.821 313.716 380.582 313.716 381.696C313.716 382.828 314.595 383.629 315.845 383.629Z" fill="#343A40"/>
</g>
<g id="btn_1F_7_12">
<path d="M388.22 404.519C373.51 409.459 358.323 412.62 342.9 414.573L336.337 356.533C347.662 355.253 358.82 352.777 369.625 349.149L388.22 404.519Z" fill="#ADB5BD"/>
<path d="M355.265 383.62L361.222 371.979V371.882H354.289V369.479H364.269V371.921L358.312 383.62H355.265Z" fill="#343A40"/>
</g>
<g id="btn_1F_6_11">
<path d="M436.294 381.354C423.264 389.781 409.38 396.805 394.872 402.31L374.15 347.7C384.806 343.656 395.005 338.497 404.575 332.308L436.294 381.354Z" fill="#ADB5BD"/>
<path d="M403.48 371.815C400.55 371.796 397.776 370.057 397.776 364.882C397.776 360.116 400.062 357.284 403.597 357.284C406.448 357.284 408.382 359.081 408.675 361.405H405.784C405.55 360.409 404.73 359.803 403.597 359.803C401.683 359.803 400.667 361.542 400.647 364.315H400.784C401.429 363.065 402.835 362.323 404.397 362.323C406.937 362.323 408.831 364.237 408.831 366.893C408.831 369.764 406.663 371.835 403.48 371.815ZM403.46 369.491C404.905 369.491 405.98 368.397 405.98 366.971C405.98 365.565 404.944 364.452 403.499 364.452C402.054 364.452 400.96 365.585 400.94 366.971C400.96 368.358 402.015 369.491 403.46 369.491Z" fill="#343A40"/>
</g>
<g id="btn_1F_5_10">
<path d="M477.221 347.194C466.601 358.507 454.813 368.665 442.056 377.498L408.807 329.475C418.177 322.987 426.835 315.526 434.636 307.217L477.221 347.194Z" fill="#ADB5BD"/>
<path d="M437.362 345.815C434.413 345.815 432.265 344.077 432.206 341.635H435.058C435.116 342.749 436.132 343.491 437.362 343.491C438.827 343.491 439.862 342.456 439.862 340.991C439.862 339.487 438.808 338.452 437.323 338.432C436.269 338.432 435.526 338.823 435.097 339.624H432.44L433.202 331.479H441.913V333.881H435.624L435.233 337.456H435.351C435.878 336.752 436.933 336.264 438.183 336.264C440.78 336.264 442.714 338.198 442.714 340.913C442.714 343.764 440.546 345.815 437.362 345.815Z" fill="#343A40"/>
</g>
<g id="btn_1F_4_9">
<path d="M523.048 273.246C517.643 287.791 510.715 301.724 502.379 314.812L453.114 283.432C459.237 273.819 464.326 263.585 468.296 252.902L523.048 273.246Z" fill="#ADB5BD"/>
<path d="M482.13 283.12V280.795L488.106 271.479H491.798V280.756H493.595V283.12H491.798V285.62H489.005V283.12H482.13ZM485.099 280.756H489.044V274.702H488.907L485.099 280.639V280.756Z" fill="#343A40"/>
</g>
<g id="btn_1F_3_8">
<path d="M535.204 223.26C533.325 238.663 529.822 253.824 524.753 268.489L469.548 249.408C473.271 238.636 475.844 227.5 477.224 216.187L535.204 223.26Z" fill="#ADB5BD"/>
<path d="M503.284 243.815C500.179 243.815 497.952 242.096 497.894 239.635H500.862C500.921 240.69 501.937 241.393 503.304 241.393C504.71 241.393 505.726 240.592 505.706 239.46C505.726 238.307 504.69 237.487 503.03 237.487H501.722V235.319H503.03C504.417 235.319 505.394 234.557 505.394 233.444C505.394 232.37 504.573 231.628 503.323 231.628C502.073 231.628 501.038 232.331 500.999 233.405H498.187C498.226 230.964 500.433 229.284 503.323 229.284C506.272 229.284 508.245 231.022 508.226 233.268C508.245 234.85 507.132 235.983 505.55 236.256V236.374C507.62 236.628 508.772 237.897 508.753 239.655C508.772 242.077 506.468 243.815 503.284 243.815Z" fill="#343A40"/>
</g>
<g id="btn_1F_2_7">
<path d="M535.554 173.021C537.218 188.448 537.246 204.009 535.636 219.442L477.542 213.383C478.724 202.047 478.704 190.618 477.481 179.286L535.554 173.021Z" fill="#ADB5BD"/>
<path d="M502.333 201.62L502.314 199.491L507.392 194.823C508.72 193.553 509.423 192.772 509.423 191.659C509.423 190.409 508.466 189.627 507.177 189.627C505.849 189.627 504.989 190.467 504.989 191.815H502.196C502.177 189.042 504.228 187.284 507.216 187.284C510.243 187.284 512.255 189.002 512.255 191.463C512.255 193.065 511.474 194.393 508.564 197.03L506.415 199.12V199.198H512.45V201.62H502.333Z" fill="#343A40"/>
</g>
<g id="btn_1F_1_6">
<path d="M524.333 123.546C529.487 138.182 533.078 153.323 535.046 168.714L477.108 176.123C475.663 164.818 473.025 153.697 469.239 142.947L524.333 123.546Z" fill="#ADB5BD"/>
<path d="M504.343 145.479V159.62H501.394V148.272H501.315L498.073 150.303V147.706L501.569 145.479H504.343Z" fill="#343A40"/>
</g>
<g id="btn_floorE_5">
<path d="M406.823 234.62L421.823 206.62H456.823C455.823 237.62 452.423 256.62 434.823 280.62C417.223 304.62 383.157 324.62 368.823 331.62V234.62H406.823Z" fill="#009989"/>
<path d="M380.174 266.62V255.307H387.627V257.245H382.518V259.995H387.143V261.932H382.518V266.62H380.174Z" fill="black"/>
<path d="M388.854 266.62V255.307H391.198V264.682H396.073V266.62H388.854Z" fill="black"/>
<path d="M407.175 260.963C407.175 264.651 404.878 266.776 401.894 266.776C398.878 266.776 396.597 264.635 396.597 260.963C396.597 257.276 398.878 255.151 401.894 255.151C404.878 255.151 407.175 257.276 407.175 260.963ZM404.784 260.963C404.784 258.542 403.644 257.229 401.894 257.229C400.144 257.229 398.987 258.542 398.987 260.963C398.987 263.385 400.144 264.698 401.894 264.698C403.644 264.698 404.784 263.385 404.784 260.963Z" fill="black"/>
<path d="M418.902 260.963C418.902 264.651 416.605 266.776 413.62 266.776C410.605 266.776 408.324 264.635 408.324 260.963C408.324 257.276 410.605 255.151 413.62 255.151C416.605 255.151 418.902 257.276 418.902 260.963ZM416.511 260.963C416.511 258.542 415.37 257.229 413.62 257.229C411.87 257.229 410.714 258.542 410.714 260.963C410.714 263.385 411.87 264.698 413.62 264.698C415.37 264.698 416.511 263.385 416.511 260.963Z" fill="black"/>
<path d="M420.269 266.62V255.307H424.707C427.285 255.307 428.754 256.76 428.754 258.995C428.754 260.542 428.043 261.667 426.754 262.213L429.16 266.62H426.566L424.41 262.604H422.613V266.62H420.269ZM422.613 260.698H424.269C425.66 260.698 426.332 260.12 426.332 258.995C426.332 257.854 425.66 257.229 424.269 257.229H422.613V260.698Z" fill="black"/>
<path d="M400.565 282.62V271.307H408.159V273.245H402.909V275.995H407.769V277.932H402.909V280.682H408.175V282.62H400.565Z" fill="black"/>
</g>
<g id="btn_floorD_4">
<path d="M270.823 336.62V260.62H286.823V267.62H344.823V260.62H360.823V336.62H270.823Z" fill="#009989"/>
<path d="M291.674 300.62V289.307H299.127V291.245H294.018V293.995H298.643V295.932H294.018V300.62H291.674Z" fill="black"/>
<path d="M300.354 300.62V289.307H302.698V298.682H307.573V300.62H300.354Z" fill="black"/>
<path d="M318.675 294.963C318.675 298.651 316.378 300.776 313.394 300.776C310.378 300.776 308.097 298.635 308.097 294.963C308.097 291.276 310.378 289.151 313.394 289.151C316.378 289.151 318.675 291.276 318.675 294.963ZM316.284 294.963C316.284 292.542 315.144 291.229 313.394 291.229C311.644 291.229 310.487 292.542 310.487 294.963C310.487 297.385 311.644 298.698 313.394 298.698C315.144 298.698 316.284 297.385 316.284 294.963Z" fill="black"/>
<path d="M330.402 294.963C330.402 298.651 328.105 300.776 325.12 300.776C322.105 300.776 319.824 298.635 319.824 294.963C319.824 291.276 322.105 289.151 325.12 289.151C328.105 289.151 330.402 291.276 330.402 294.963ZM328.011 294.963C328.011 292.542 326.87 291.229 325.12 291.229C323.37 291.229 322.214 292.542 322.214 294.963C322.214 297.385 323.37 298.698 325.12 298.698C326.87 298.698 328.011 297.385 328.011 294.963Z" fill="black"/>
<path d="M331.769 300.62V289.307H336.207C338.785 289.307 340.254 290.76 340.254 292.995C340.254 294.542 339.543 295.667 338.254 296.213L340.66 300.62H338.066L335.91 296.604H334.113V300.62H331.769ZM334.113 294.698H335.769C337.16 294.698 337.832 294.12 337.832 292.995C337.832 291.854 337.16 291.229 335.769 291.229H334.113V294.698Z" fill="black"/>
<path d="M315.151 316.62H311.167V305.307H315.198C318.604 305.307 320.683 307.432 320.683 310.948C320.683 314.495 318.604 316.62 315.151 316.62ZM313.511 314.604H315.058C317.214 314.604 318.339 313.479 318.339 310.948C318.339 308.432 317.214 307.323 315.073 307.323H313.511V314.604Z" fill="black"/>
</g>
<g id="btn_floorC_3">
<path d="M222.823 234.62L207.823 206.62H172.823C173.823 237.62 177.223 256.62 194.823 280.62C212.423 304.62 246.49 324.62 260.823 331.62V234.62H222.823Z" fill="#009989"/>
<path d="M202.174 266.62V255.307H209.627V257.245H204.518V259.995H209.143V261.932H204.518V266.62H202.174Z" fill="black"/>
<path d="M210.854 266.62V255.307H213.198V264.682H218.073V266.62H210.854Z" fill="black"/>
<path d="M229.175 260.963C229.175 264.651 226.878 266.776 223.894 266.776C220.878 266.776 218.597 264.635 218.597 260.963C218.597 257.276 220.878 255.151 223.894 255.151C226.878 255.151 229.175 257.276 229.175 260.963ZM226.784 260.963C226.784 258.542 225.644 257.229 223.894 257.229C222.144 257.229 220.987 258.542 220.987 260.963C220.987 263.385 222.144 264.698 223.894 264.698C225.644 264.698 226.784 263.385 226.784 260.963Z" fill="black"/>
<path d="M240.902 260.963C240.902 264.651 238.605 266.776 235.62 266.776C232.605 266.776 230.324 264.635 230.324 260.963C230.324 257.276 232.605 255.151 235.62 255.151C238.605 255.151 240.902 257.276 240.902 260.963ZM238.511 260.963C238.511 258.542 237.37 257.229 235.62 257.229C233.87 257.229 232.714 258.542 232.714 260.963C232.714 263.385 233.87 264.698 235.62 264.698C237.37 264.698 238.511 263.385 238.511 260.963Z" fill="black"/>
<path d="M242.269 266.62V255.307H246.707C249.285 255.307 250.754 256.76 250.754 258.995C250.754 260.542 250.043 261.667 248.754 262.213L251.16 266.62H248.566L246.41 262.604H244.613V266.62H242.269ZM244.613 260.698H246.269C247.66 260.698 248.332 260.12 248.332 258.995C248.332 257.854 247.66 257.229 246.269 257.229H244.613V260.698Z" fill="black"/>
<path d="M229.05 275.245C228.862 273.995 227.894 273.229 226.581 273.229C224.815 273.229 223.659 274.588 223.659 276.963C223.659 279.401 224.831 280.698 226.565 280.698C227.862 280.698 228.815 279.979 229.05 278.76L231.425 278.776C231.159 280.87 229.409 282.776 226.534 282.776C223.503 282.776 221.269 280.651 221.269 276.963C221.269 273.276 223.55 271.151 226.534 271.151C229.144 271.151 231.112 272.651 231.425 275.245H229.05Z" fill="black"/>
</g>
<g id="btn_floorB_2">
<path d="M346.823 112.62H447.823V153.62L455.823 191.62L421.823 192.62L404.823 169.62L361.823 170.62L348.823 150.62L346.823 112.62Z" fill="#009989"/>
<path d="M374.174 134.62V123.307H381.627V125.245H376.518V127.995H381.143V129.932H376.518V134.62H374.174Z" fill="black"/>
<path d="M382.854 134.62V123.307H385.198V132.682H390.073V134.62H382.854Z" fill="black"/>
<path d="M401.175 128.963C401.175 132.651 398.878 134.776 395.894 134.776C392.878 134.776 390.597 132.635 390.597 128.963C390.597 125.276 392.878 123.151 395.894 123.151C398.878 123.151 401.175 125.276 401.175 128.963ZM398.784 128.963C398.784 126.542 397.644 125.229 395.894 125.229C394.144 125.229 392.987 126.542 392.987 128.963C392.987 131.385 394.144 132.698 395.894 132.698C397.644 132.698 398.784 131.385 398.784 128.963Z" fill="black"/>
<path d="M412.902 128.963C412.902 132.651 410.605 134.776 407.62 134.776C404.605 134.776 402.324 132.635 402.324 128.963C402.324 125.276 404.605 123.151 407.62 123.151C410.605 123.151 412.902 125.276 412.902 128.963ZM410.511 128.963C410.511 126.542 409.37 125.229 407.62 125.229C405.87 125.229 404.714 126.542 404.714 128.963C404.714 131.385 405.87 132.698 407.62 132.698C409.37 132.698 410.511 131.385 410.511 128.963Z" fill="black"/>
<path d="M414.269 134.62V123.307H418.707C421.285 123.307 422.754 124.76 422.754 126.995C422.754 128.542 422.043 129.667 420.754 130.213L423.16 134.62H420.566L418.41 130.604H416.613V134.62H414.269ZM416.613 128.698H418.269C419.66 128.698 420.332 128.12 420.332 126.995C420.332 125.854 419.66 125.229 418.269 125.229H416.613V128.698Z" fill="black"/>
<path d="M394.183 150.62V139.307H398.683C401.183 139.307 402.433 140.51 402.433 142.213C402.433 143.542 401.573 144.37 400.401 144.635V144.745C401.683 144.807 402.886 145.823 402.886 147.495C402.886 149.292 401.542 150.62 398.979 150.62H394.183ZM398.511 148.682C399.87 148.682 400.448 148.12 400.448 147.276C400.448 146.323 399.729 145.651 398.573 145.651H396.526V148.682H398.511ZM398.339 144.042C399.323 144.042 400.058 143.495 400.058 142.588C400.058 141.776 399.464 141.213 398.386 141.213H396.526V144.042H398.339Z" fill="black"/>
</g>
<g id="btn_floorA_1">
<path d="M283.823 112.62H182.823V153.62L174.823 191.62L208.823 192.62L225.823 169.62L268.823 170.62L281.823 150.62L283.823 112.62Z" fill="#009989"/>
<path d="M204.49 134.62V123.307H211.944V125.245H206.834V127.995H211.459V129.932H206.834V134.62H204.49Z" fill="black"/>
<path d="M213.17 134.62V123.307H215.514V132.682H220.389V134.62H213.17Z" fill="black"/>
<path d="M231.491 128.963C231.491 132.651 229.194 134.776 226.21 134.776C223.194 134.776 220.913 132.635 220.913 128.963C220.913 125.276 223.194 123.151 226.21 123.151C229.194 123.151 231.491 125.276 231.491 128.963ZM229.1 128.963C229.1 126.542 227.96 125.229 226.21 125.229C224.46 125.229 223.304 126.542 223.304 128.963C223.304 131.385 224.46 132.698 226.21 132.698C227.96 132.698 229.1 131.385 229.1 128.963Z" fill="black"/>
<path d="M243.218 128.963C243.218 132.651 240.921 134.776 237.937 134.776C234.921 134.776 232.64 132.635 232.64 128.963C232.64 125.276 234.921 123.151 237.937 123.151C240.921 123.151 243.218 125.276 243.218 128.963ZM240.827 128.963C240.827 126.542 239.687 125.229 237.937 125.229C236.187 125.229 235.03 126.542 235.03 128.963C235.03 131.385 236.187 132.698 237.937 132.698C239.687 132.698 240.827 131.385 240.827 128.963Z" fill="black"/>
<path d="M244.585 134.62V123.307H249.023C251.601 123.307 253.07 124.76 253.07 126.995C253.07 128.542 252.359 129.667 251.07 130.213L253.476 134.62H250.882L248.726 130.604H246.929V134.62H244.585ZM246.929 128.698H248.585C249.976 128.698 250.648 128.12 250.648 126.995C250.648 125.854 249.976 125.229 248.585 125.229H246.929V128.698Z" fill="black"/>
<path d="M227.425 150.62H224.894L228.815 139.307H231.831L235.737 150.62H233.222L232.378 148.01H228.284L227.425 150.62ZM228.878 146.182H231.784L230.362 141.854H230.284L228.878 146.182Z" fill="black"/>
</g>
</g>
<g id="ic_stage">
<path d="M150.823 0.619629C148.614 0.619629 146.823 2.41049 146.823 4.61963V76.6196C146.823 78.8288 148.614 80.6196 150.823 80.6196H290.823V156.745C279.912 162.727 271.475 172.66 267.438 184.62H236.823C234.614 184.62 232.823 186.41 232.823 188.62V212.62C232.823 214.829 234.614 216.62 236.823 216.62H267.438C274.11 236.387 292.805 250.62 314.823 250.62C336.842 250.62 355.536 236.387 362.208 216.62H392.823C395.032 216.62 396.823 214.829 396.823 212.62V188.62C396.823 186.41 395.032 184.62 392.823 184.62H362.208C358.172 172.66 349.735 162.727 338.823 156.745V80.6196H478.823C481.032 80.6196 482.823 78.8288 482.823 76.6196V4.61963C482.823 2.41049 481.032 0.619629 478.823 0.619629H150.823Z" fill="#343A40"/>
<path d="M280.353 32.2134C280.166 30.2759 278.51 29.1509 276.072 29.1509C273.51 29.1509 271.947 30.4009 271.947 32.0884C271.947 33.9946 273.947 34.7759 275.822 35.2134L277.947 35.7759C281.322 36.5571 284.572 38.3384 284.572 42.2759C284.572 46.2446 281.447 48.9634 276.01 48.9634C270.728 48.9634 267.416 46.4321 267.228 41.9634H271.228C271.416 44.3384 273.416 45.4946 275.978 45.4946C278.666 45.4946 280.51 44.1821 280.51 42.2446C280.51 40.4634 278.853 39.7134 276.416 39.0884L273.853 38.4321C270.135 37.4634 267.822 35.5884 267.822 32.3384C267.822 28.3384 271.385 25.6821 276.135 25.6821C280.947 25.6821 284.197 28.4009 284.26 32.2134H280.353Z" fill="#ADB5BD"/>
<path d="M286.307 29.4009V25.9946H304.338V29.4009H297.37V48.6196H293.307V29.4009H286.307Z" fill="#ADB5BD"/>
<path d="M307.011 48.6196H302.667L310.636 25.9946H315.636L323.636 48.6196H319.292L317.417 43.0259H308.886L307.011 48.6196ZM309.98 39.7446H316.323L313.23 30.6196H313.042L309.98 39.7446Z" fill="#ADB5BD"/>
<path d="M339.777 33.2134C339.058 30.8071 337.183 29.3384 334.433 29.3384C330.777 29.3384 328.152 32.1821 328.152 37.2759C328.152 42.4321 330.746 45.2759 334.527 45.2759C337.933 45.2759 340.121 43.2134 340.183 39.9946H334.933V36.7759H344.121V39.4946C344.121 45.3071 340.121 48.9321 334.527 48.9321C328.277 48.9321 324.058 44.4946 324.058 37.3071C324.058 30.0571 328.465 25.6821 334.402 25.6821C339.402 25.6821 343.246 28.7759 343.933 33.2134H339.777Z" fill="#ADB5BD"/>
<path d="M347.168 48.6196V25.9946H361.887V29.4009H351.231V35.5884H361.106V38.9946H351.231V45.1821H361.95V48.6196H347.168Z" fill="#ADB5BD"/>
<path d="M288.971 197.315C288.83 195.862 287.588 195.018 285.76 195.018C283.838 195.018 282.666 195.956 282.666 197.221C282.666 198.651 284.166 199.237 285.572 199.565L287.166 199.987C289.697 200.573 292.135 201.909 292.135 204.862C292.135 207.838 289.791 209.877 285.713 209.877C281.752 209.877 279.268 207.979 279.127 204.627H282.127C282.268 206.409 283.768 207.276 285.69 207.276C287.705 207.276 289.088 206.292 289.088 204.838C289.088 203.502 287.846 202.94 286.018 202.471L284.096 201.979C281.307 201.252 279.572 199.846 279.572 197.409C279.572 194.409 282.244 192.417 285.807 192.417C289.416 192.417 291.854 194.456 291.9 197.315H288.971Z" fill="#ADB5BD"/>
<path d="M293.436 195.206V192.651H306.96V195.206H301.733V209.62H298.686V195.206H293.436Z" fill="#ADB5BD"/>
<path d="M308.964 209.62H305.706L311.683 192.651H315.433L321.433 209.62H318.175L316.769 205.424H310.37L308.964 209.62ZM311.19 202.963H315.948L313.628 196.12H313.487L311.19 202.963Z" fill="#ADB5BD"/>
<path d="M333.539 198.065C333 196.26 331.593 195.159 329.531 195.159C326.789 195.159 324.82 197.292 324.82 201.112C324.82 204.979 326.765 207.112 329.601 207.112C332.156 207.112 333.796 205.565 333.843 203.151H329.906V200.737H336.796V202.776C336.796 207.135 333.796 209.854 329.601 209.854C324.914 209.854 321.75 206.526 321.75 201.135C321.75 195.698 325.054 192.417 329.507 192.417C333.257 192.417 336.14 194.737 336.656 198.065H333.539Z" fill="#ADB5BD"/>
<path d="M339.082 209.62V192.651H350.121V195.206H342.129V199.846H349.535V202.401H342.129V207.042H350.168V209.62H339.082Z" fill="#ADB5BD"/>
</g>
<g id="ic_right_2F">
<path d="M559.933 99.0884L559.917 97.3853L563.98 93.6509C565.042 92.6353 565.605 92.0103 565.605 91.1196C565.605 90.1196 564.839 89.4946 563.808 89.4946C562.745 89.4946 562.058 90.1665 562.058 91.2446H559.823C559.808 89.0259 561.448 87.6196 563.839 87.6196C566.261 87.6196 567.87 88.9946 567.87 90.9634C567.87 92.2446 567.245 93.3071 564.917 95.4165L563.198 97.0884V97.1509H568.026V99.0884H559.933Z" fill="#ADB5BD"/>
<path d="M569.441 99.0884V87.7759H576.894V89.7134H571.785V92.4634H576.41V94.4009H571.785V99.0884H569.441Z" fill="#ADB5BD"/>
</g>
<g id="ic_left_2F">
<path d="M53.9327 99.0884L53.9171 97.3853L57.9796 93.6509C59.0421 92.6353 59.6046 92.0103 59.6046 91.1196C59.6046 90.1196 58.839 89.4946 57.8077 89.4946C56.7452 89.4946 56.0577 90.1665 56.0577 91.2446H53.8234C53.8077 89.0259 55.4484 87.6196 57.839 87.6196C60.2609 87.6196 61.8702 88.9946 61.8702 90.9634C61.8702 92.2446 61.2452 93.3071 58.9171 95.4165L57.1984 97.0884V97.1509H62.0265V99.0884H53.9327Z" fill="#ADB5BD"/>
<path d="M63.4409 99.0884V87.7759H70.894V89.7134H65.7846V92.4634H70.4096V94.4009H65.7846V99.0884H63.4409Z" fill="#ADB5BD"/>
</g>
<g id="ic_right_1F">
<path d="M490.839 115.62V126.932H488.479V117.854H488.417L485.823 119.479V117.401L488.62 115.62H490.839Z" fill="#ADB5BD"/>
<path d="M493.206 126.932V115.62H500.659V117.557H495.55V120.307H500.175V122.245H495.55V126.932H493.206Z" fill="#ADB5BD"/>
</g>
<g id="ic_left_1F">
<path d="M136.839 115.62V126.932H134.479V117.854H134.417L131.823 119.479V117.401L134.62 115.62H136.839Z" fill="#ADB5BD"/>
<path d="M139.206 126.932V115.62H146.659V117.557H141.55V120.307H146.175V122.245H141.55V126.932H139.206Z" fill="#ADB5BD"/>
</g>
<g id="list_model example">
<g id="ic_Floor">
<rect x="139.573" y="554.255" width="107.5" height="30" rx="5" fill="#009989"/>
<path id="FLOOR" d="M167.295 575.755V563.382H175.224V565.245H169.516V568.629H174.678V570.492H169.516V575.755H167.295ZM176.754 575.755V563.382H178.976V573.875H184.445V575.755H176.754ZM196.417 569.569C196.417 573.568 193.99 575.926 190.743 575.926C187.496 575.926 185.069 573.551 185.069 569.569C185.069 565.57 187.496 563.211 190.743 563.211C193.99 563.211 196.417 565.57 196.417 569.569ZM194.178 569.569C194.178 566.749 192.759 565.211 190.743 565.211C188.726 565.211 187.308 566.749 187.308 569.569C187.308 572.389 188.726 573.927 190.743 573.927C192.759 573.927 194.178 572.389 194.178 569.569ZM209.089 569.569C209.089 573.568 206.662 575.926 203.415 575.926C200.168 575.926 197.741 573.551 197.741 569.569C197.741 565.57 200.168 563.211 203.415 563.211C206.662 563.211 209.089 565.57 209.089 569.569ZM206.85 569.569C206.85 566.749 205.432 565.211 203.415 565.211C201.399 565.211 199.98 566.749 199.98 569.569C199.98 572.389 201.399 573.927 203.415 573.927C205.432 573.927 206.85 572.389 206.85 569.569ZM210.721 575.755V563.382H215.37C218.207 563.382 219.728 564.972 219.728 567.33C219.728 569.013 218.959 570.261 217.506 570.851L220.172 575.755H217.694L215.267 571.227H212.943V575.755H210.721ZM212.943 569.364H215.028C216.703 569.364 217.455 568.646 217.455 567.33C217.455 566.014 216.703 565.245 215.028 565.245H212.943V569.364Z" fill="black"/>
</g>
<g id="ic_1F">
<rect x="263.073" y="554.255" width="107.5" height="30" rx="5" fill="#ADB5BD"/>
<path id="1F" d="M314.127 563.382V575.755H311.888V565.553H311.82L308.932 567.398V565.365L311.991 563.382H314.127ZM316.905 575.755V563.382H324.834V565.245H319.126V568.629H324.287V570.492H319.126V575.755H316.905Z" fill="black"/>
</g>
<g id="ic_2F">
<rect x="386.573" y="554.255" width="107.5" height="30" rx="5" fill="#F8F9FA"/>
<path id="2F" d="M431.347 575.755V574.149L435.722 569.928C436.969 568.68 437.619 567.945 437.619 566.903C437.619 565.758 436.713 565.023 435.499 565.023C434.218 565.023 433.397 565.826 433.415 567.074H431.295C431.278 564.732 433.039 563.211 435.517 563.211C438.046 563.211 439.755 564.715 439.755 566.8C439.755 568.202 439.071 569.33 436.644 571.62L434.44 573.807V573.893H439.943V575.755H431.347ZM441.661 575.755V563.382H449.59V565.245H443.882V568.629H449.044V570.492H443.882V575.755H441.661Z" fill="black"/>
</g>
</g>
</g>
</svg>
