<svg width="24" height="24" viewBox="0 0 24 24" fill="none" xmlns="http://www.w3.org/2000/svg">
<g id="Frame" clip-path="url(#clip0_76_1273)">
<path id="Vector" d="M16 3H8C5.79086 3 4 4.79086 4 7V8C6.76142 8 9 10.2386 9 13H15C15 10.2386 17.2386 8 20 8V7C20 4.79086 18.2091 3 16 3ZM20 10C18.3431 10 17 11.3431 17 13V16H15V15H9V16H7V13C7 11.3431 5.65685 10 4 10C2.34315 10 1 11.3431 1 13C1 14.3062 1.83481 15.4175 3 15.8293V21H5V20H19V21H21V15.8293C22.1652 15.4175 23 14.3062 23 13C23 11.3431 21.6569 10 20 10Z" fill="#DEE2E6"/>
<path id="Vector_2" d="M20.5888 18.9875C20.5888 19.4187 20.4207 19.807 20.1437 20.0959L20.0959 20.1437C19.807 20.4207 19.4187 20.5888 18.9875 20.5888C18.1024 20.5888 17.3861 19.8725 17.3861 18.9875C17.3861 18.1024 18.1024 17.3861 18.9875 17.3861C19.8725 17.3861 20.5888 18.1024 20.5888 18.9875ZM18.9875 24.4749C19.7904 24.4749 20.5544 24.3016 21.2428 23.9907L22.3128 25.0607L23.3734 26.1213L24.4341 25.0607L25.0607 24.4341L26.1213 23.3734L25.0607 22.3128L23.9907 21.2428C24.3016 20.5544 24.4749 19.7904 24.4749 18.9875C24.4749 15.958 22.017 13.5 18.9875 13.5C15.958 13.5 13.5 15.958 13.5 18.9875C13.5 22.017 15.958 24.4749 18.9875 24.4749Z" fill="#DEE2E6" stroke="#343A40" stroke-width="3"/>
</g>
<defs>
<clipPath id="clip0_76_1273">
<rect width="24" height="24" fill="white"/>
</clipPath>
</defs>
</svg>
