<svg width="20" height="20" viewBox="0 0 20 20" fill="none" xmlns="http://www.w3.org/2000/svg">
<g id="btn_ zoomIn">
<g id="Group 988213">
<circle id="Ellipse 57" cx="10" cy="10" r="10" fill="#495057"/>
<path id="Vector" d="M12.8917 12.1955L15 14.3038L14.3038 15L12.1955 12.8917C11.4375 13.4982 10.4761 13.861 9.43051 13.861C6.98487 13.861 5 11.8761 5 9.43051C5 6.98487 6.98487 5 9.43051 5C11.8761 5 13.861 6.98487 13.861 9.43051C13.861 10.4761 13.4982 11.4375 12.8917 12.1955ZM11.9041 11.8303C12.506 11.2099 12.8765 10.3637 12.8765 9.43051C12.8765 7.52662 11.3344 5.98456 9.43051 5.98456C7.52662 5.98456 5.98456 7.52662 5.98456 9.43051C5.98456 11.3344 7.52662 12.8765 9.43051 12.8765C10.3637 12.8765 11.2099 12.506 11.8303 11.9041L11.9041 11.8303Z" fill="#ADB5BD"/>
</g>
</g>
</svg>
