<svg width="32" height="32" viewBox="0 0 32 32" fill="none" xmlns="http://www.w3.org/2000/svg">
<circle cx="16" cy="16" r="16" fill="#CED4DA"/>
<path d="M14.9328 20.616C14.8581 20.872 14.7195 21.0427 14.5168 21.128C14.3141 21.2133 14.1008 21.224 13.8768 21.16C13.6635 21.1067 13.4875 20.9947 13.3488 20.824C13.2208 20.6427 13.1941 20.4187 13.2688 20.152C13.0768 20.472 12.8848 20.648 12.6928 20.68C12.5008 20.7013 12.3728 20.6213 12.3088 20.44C12.2448 20.248 12.3088 19.9973 12.5008 19.688C12.3088 19.8267 12.1061 19.8533 11.8928 19.768C11.6901 19.672 11.5195 19.5227 11.3808 19.32C11.2421 19.1067 11.1675 18.888 11.1568 18.664C11.1461 18.44 11.2368 18.2587 11.4288 18.12C11.0875 18.216 10.8421 18.2267 10.6928 18.152C10.5541 18.0773 10.5275 17.976 10.6128 17.848C10.7088 17.7093 10.9328 17.5973 11.2848 17.512C10.9968 17.5227 10.7781 17.4587 10.6288 17.32C10.4795 17.1813 10.3941 17.016 10.3728 16.824C10.3621 16.6213 10.4208 16.44 10.5488 16.28C10.6875 16.12 10.9008 16.0293 11.1888 16.008C10.9435 16.008 10.7568 15.9067 10.6288 15.704C10.5115 15.4907 10.4528 15.256 10.4528 15C10.4528 14.7333 10.5168 14.4987 10.6448 14.296C10.7728 14.0933 10.9595 13.992 11.2048 13.992C11.0341 13.928 10.9221 13.8 10.8688 13.608C10.8261 13.416 10.8261 13.2027 10.8688 12.968C10.9115 12.7227 10.9915 12.4933 11.1088 12.28C11.2261 12.056 11.3595 11.8853 11.5088 11.768C11.6688 11.64 11.8341 11.608 12.0048 11.672C11.8555 11.4693 11.8128 11.2667 11.8768 11.064C11.9408 10.8613 12.0635 10.6907 12.2448 10.552C12.4261 10.4133 12.6235 10.344 12.8368 10.344C13.0501 10.3333 13.2315 10.4293 13.3808 10.632C13.3381 10.408 13.3755 10.216 13.4928 10.056C13.6208 9.88533 13.7915 9.75733 14.0048 9.672C14.2181 9.576 14.4421 9.528 14.6768 9.528C14.9115 9.51733 15.1141 9.56 15.2848 9.656C15.4661 9.752 15.5835 9.912 15.6368 10.136C15.6475 9.86933 15.7435 9.672 15.9248 9.544C16.1061 9.416 16.3088 9.35733 16.5328 9.368C16.7675 9.37867 16.9701 9.45867 17.1408 9.608C17.3115 9.74667 17.3915 9.94933 17.3808 10.216C17.4661 9.98133 17.6155 9.82667 17.8288 9.752C18.0421 9.66667 18.2715 9.64533 18.5168 9.688C18.7728 9.73067 19.0021 9.82133 19.2048 9.96C19.4181 10.088 19.5728 10.2533 19.6688 10.456C19.7755 10.6587 19.7861 10.8773 19.7008 11.112C19.8715 10.952 20.0421 10.8773 20.2128 10.888C20.3835 10.8987 20.5221 10.9627 20.6288 11.08C20.7461 11.1973 20.7995 11.3413 20.7888 11.512C20.7888 11.6827 20.6981 11.848 20.5168 12.008C20.7515 11.944 20.9488 11.976 21.1088 12.104C21.2795 12.232 21.3968 12.4027 21.4608 12.616C21.5248 12.8187 21.5195 13.016 21.4448 13.208C21.3808 13.4 21.2315 13.5333 20.9968 13.608C20.9968 13.96 20.9488 14.1947 20.8528 14.312C20.7568 14.4293 20.6608 14.4293 20.5648 14.312C20.4688 14.1947 20.4208 13.96 20.4208 13.608C20.4208 13.8 20.3408 13.9547 20.1808 14.072C20.0315 14.1893 19.8395 14.2693 19.6048 14.312C19.3808 14.344 19.1515 14.344 18.9168 14.312C18.6928 14.2693 18.5008 14.1893 18.3408 14.072C18.1915 13.9547 18.1168 13.8 18.1168 13.608C17.9035 13.832 17.7115 13.9333 17.5408 13.912C17.3701 13.88 17.2688 13.7787 17.2368 13.608C17.2155 13.4373 17.3115 13.2453 17.5248 13.032C17.2795 13.3093 17.0501 13.4427 16.8368 13.432C16.6341 13.4107 16.5168 13.304 16.4848 13.112C16.3888 13.2187 16.2981 13.2293 16.2128 13.144C16.1168 13.3467 15.9675 13.528 15.7648 13.688C15.5728 13.8373 15.3648 13.928 15.1408 13.96C15.3221 14.1307 15.3435 14.3227 15.2048 14.536C15.0768 14.7493 14.8048 14.8453 14.3888 14.824C14.7515 14.8347 14.9915 14.8933 15.1088 15C15.2261 15.1067 15.2261 15.2133 15.1088 15.32C14.9915 15.4267 14.7515 15.48 14.3888 15.48C14.7301 15.4693 14.9755 15.528 15.1248 15.656C15.2741 15.7733 15.3221 15.9067 15.2688 16.056C15.2155 16.2053 15.0608 16.3173 14.8048 16.392C15.0608 16.424 15.2688 16.5733 15.4288 16.84C15.5995 17.1067 15.6741 17.368 15.6528 17.624C15.7168 17.6133 15.7701 17.64 15.8128 17.704C15.9301 17.4907 16.1061 17.3307 16.3408 17.224C16.5861 17.1067 16.8261 17.0693 17.0608 17.112C17.3061 17.1547 17.4981 17.304 17.6368 17.56C17.5835 17.336 17.6155 17.1493 17.7328 17C17.8608 16.8507 18.0208 16.7547 18.2128 16.712C18.4155 16.6587 18.6075 16.6693 18.7888 16.744C18.9701 16.8187 19.0875 16.968 19.1408 17.192C19.1408 16.8827 19.2208 16.648 19.3808 16.488C19.5408 16.328 19.7275 16.248 19.9408 16.248C20.1541 16.248 20.3408 16.328 20.5008 16.488C20.6608 16.648 20.7408 16.8827 20.7408 17.192C21.0395 17.16 21.2475 17.2187 21.3648 17.368C21.4821 17.5173 21.4981 17.6773 21.4128 17.848C21.3275 18.008 21.1301 18.0987 20.8208 18.12C21.0341 18.2587 21.1461 18.4293 21.1568 18.632C21.1781 18.824 21.1301 19.0107 21.0128 19.192C20.8955 19.3627 20.7408 19.4853 20.5488 19.56C20.3675 19.624 20.1755 19.5867 19.9728 19.448C20.0795 19.6613 20.0688 19.8747 19.9408 20.088C19.8128 20.2907 19.6261 20.456 19.3808 20.584C19.1355 20.712 18.8901 20.7707 18.6448 20.76C18.3995 20.7493 18.2235 20.6373 18.1168 20.424C18.1808 20.744 18.1648 20.968 18.0688 21.096C17.9835 21.224 17.8715 21.2453 17.7328 21.16C17.5941 21.0853 17.4928 20.8933 17.4288 20.584C17.4501 20.9573 17.3381 21.2133 17.0928 21.352C16.8475 21.4907 16.5275 21.5013 16.1328 21.384C15.7488 21.2667 15.3488 21.0107 14.9328 20.616Z" fill="#343A40"/>
</svg>
