<svg width="16" height="16" viewBox="0 0 16 16" fill="none" xmlns="http://www.w3.org/2000/svg">
<g id="ic_chat">
<path id="Vector" d="M14 2C14.3682 2 14.6667 2.29848 14.6667 2.66667V12C14.6667 12.3682 14.3682 12.6667 14 12.6667H4.30337L1.33337 15V2.66667C1.33337 2.29848 1.63185 2 2.00004 2H14ZM7.01024 4.94107C5.81887 5.45789 5.00004 6.50362 5.00004 7.67013C5.00004 8.33333 5.18443 8.74247 5.52785 9.107C5.74403 9.33653 6.08607 9.5 6.44376 9.5C7.08811 9.5 7.61044 8.97767 7.61044 8.33333C7.61044 7.71967 7.13637 7.22593 6.53495 7.1702C6.42742 7.1602 6.31889 7.16207 6.21549 7.17633L6.21567 7.11527C6.21919 6.82147 6.28157 5.95553 7.30777 5.40027L7.01024 4.94107ZM10.3436 4.94107C9.15224 5.45789 8.33337 6.50362 8.33337 7.67013C8.33337 8.33333 8.51777 8.74247 8.86117 9.107C9.07737 9.33653 9.41944 9.5 9.77711 9.5C10.4214 9.5 10.9438 8.97767 10.9438 8.33333C10.9438 7.71967 10.4697 7.22593 9.86831 7.1702C9.76077 7.1602 9.65224 7.16207 9.54884 7.17633L9.54897 7.11527C9.55251 6.82147 9.61491 5.95553 10.6411 5.40027L10.3436 4.94107Z" fill="#DEE2E6"/>
</g>
</svg>
