<svg width="209" height="414" viewBox="0 0 209 414" fill="none" xmlns="http://www.w3.org/2000/svg">
<path d="M97.9988 279.808C92.1759 283.001 86.7287 283.564 81.6571 281.498C76.5856 279.432 72.641 275.863 69.8235 270.792C67.0059 266.096 65.8789 261.024 66.4424 255.577C67.3816 250.13 70.8566 245.716 76.8673 242.334C67.8512 244.588 61.3709 244.307 57.4263 241.489C53.6696 238.484 52.8243 234.821 54.8905 230.501C57.1446 225.993 62.6857 222.706 71.514 220.639C65.6911 219.7 61.6526 216.601 59.3986 211.342C57.5202 206.082 57.1446 200.447 58.2716 194.436C59.5864 188.238 62.1222 183.072 65.8789 178.94C69.6356 174.808 74.4254 173.211 80.2483 174.15C72.5471 169.83 68.039 165.698 66.7242 161.753C65.5972 157.996 66.912 155.742 70.6687 154.991C74.8011 154.24 80.7179 156.212 88.4192 160.908C83.1598 156.024 80.4362 151.046 80.2483 145.975C80.0605 140.903 81.4693 136.489 84.4746 132.732C87.8557 128.976 92.082 126.816 97.1536 126.252C102.413 125.876 107.766 128.036 113.214 132.732C108.893 128.412 107.391 123.341 108.705 117.518C110.396 111.695 113.495 106.529 118.003 102.021C122.699 97.3253 127.959 94.32 133.782 93.0051C139.604 91.6903 144.676 93.1929 148.996 97.5132C147.118 93.3808 147.4 89.1545 149.841 84.8343C152.471 80.7019 156.228 76.9452 161.112 73.5641C166.183 69.9952 171.63 67.3655 177.453 65.675C183.464 63.7967 188.817 63.1392 193.513 63.7027C198.585 64.2662 202.06 66.6142 203.938 70.7466C204.877 64.548 207.695 60.2278 212.391 57.7859C217.087 55.3441 222.252 54.4988 227.887 55.2501C233.522 56.0015 238.218 58.2555 241.975 62.0122C245.919 65.5811 247.422 70.4648 246.483 76.6634C249.676 71.9675 253.715 69.2439 258.598 68.4926C263.858 67.7412 269.117 68.4926 274.377 70.7466C279.824 72.8128 284.614 75.9121 288.746 80.0445C293.066 83.989 295.884 88.3092 297.199 93.0051C298.701 97.8888 297.95 102.773 294.945 107.656C299.828 103.148 304.994 101.364 310.441 102.303C315.888 103.242 320.49 105.778 324.247 109.91C328.191 114.231 330.352 119.208 330.727 124.843C331.291 130.29 329.131 135.268 324.247 139.776C329.882 137.146 335.235 137.053 340.307 139.494C345.566 141.748 349.98 145.411 353.549 150.483C357.306 155.742 359.748 161.377 360.875 167.388C362.378 173.399 362.19 179.034 360.311 184.293C358.621 189.74 354.958 193.779 349.323 196.409C355.146 196.596 359.466 198.287 362.284 201.48C365.101 204.673 366.416 208.242 366.228 212.187C366.228 216.319 364.632 219.794 361.438 222.612C358.433 225.617 353.925 226.932 347.914 226.556C353.174 229.562 356.085 233.6 356.649 238.672C357.4 243.931 356.461 249.003 353.831 253.886C351.389 258.582 347.82 261.963 343.124 264.029C338.616 266.284 333.639 266.002 328.191 263.184C321.993 269.383 317.015 272.67 313.258 273.046C309.502 273.421 307.811 271.731 308.187 267.974C308.563 264.217 311.85 259.24 318.048 253.041C314.667 256.422 310.535 257.737 305.651 256.986C300.955 256.422 296.165 254.45 291.282 251.069C286.774 247.688 282.735 243.649 279.166 238.953C275.973 234.258 274.001 229.468 273.249 224.584C272.686 219.888 274.095 215.85 277.476 212.469C269.775 212.656 264.609 211.06 261.979 207.679C259.537 204.11 259.537 200.541 261.979 196.972C264.609 193.591 269.681 191.901 277.194 191.901C267.99 192.464 261.604 190.774 258.035 186.829C254.842 182.884 254.654 178.94 257.471 174.995C253.902 175.183 252.118 173.774 252.118 170.769C246.859 172.647 241.036 173.211 234.649 172.46C228.639 171.708 223.379 169.642 218.871 166.261C219.059 172.46 216.054 176.216 209.855 177.531C203.844 179.034 197.364 175.935 190.414 168.233C196.613 174.808 199.806 180.067 199.994 184.011C200.181 187.956 198.303 189.834 194.359 189.647C190.414 189.459 185.248 186.172 178.862 179.785C185.061 185.608 188.348 190.961 188.723 195.845C189.287 200.541 187.784 203.734 184.215 205.425C180.647 207.115 175.951 206.364 170.128 203.171C174.072 208.242 175.105 214.535 173.227 222.048C171.536 229.749 168.249 235.666 163.366 239.799C164.68 240.738 165.15 242.147 164.774 244.025C170.597 242.334 176.514 242.616 182.525 244.87C188.911 247.124 193.795 250.693 197.176 255.577C200.745 260.648 201.496 266.659 199.43 273.609C202.435 268.725 206.286 266.002 210.982 265.438C215.866 265.063 220.374 266.19 224.506 268.819C229.014 271.449 232.207 275.018 234.086 279.526C235.964 284.034 235.401 288.73 232.395 293.614C237.842 288.166 243.384 285.443 249.019 285.443C254.654 285.443 259.35 287.321 263.106 291.078C266.863 294.835 268.741 299.53 268.741 305.165C268.741 310.801 266.018 316.342 260.571 321.789C266.393 326.485 269.023 331.181 268.46 335.877C267.896 340.573 265.36 343.672 260.852 345.175C256.532 346.489 251.461 344.611 245.638 339.539C246.953 345.738 245.919 350.716 242.538 354.472C239.533 358.229 235.401 360.671 230.141 361.798C225.07 362.737 220.186 362.174 215.49 360.107C211.17 358.041 208.446 354.003 207.319 347.992C205.441 353.627 201.496 357.196 195.486 358.699C189.663 360.014 183.464 359.638 176.89 357.572C170.316 355.505 164.962 352.218 160.83 347.71C156.697 343.202 155.57 338.131 157.449 332.496C152.941 339.258 148.714 342.92 144.77 343.484C141.013 344.235 138.665 342.639 137.726 338.694C136.599 334.937 138.196 329.772 142.516 323.198C136.317 330.148 129.837 332.683 123.075 330.805C116.313 328.927 110.49 323.479 105.606 314.463C100.91 305.635 98.3745 294.083 97.9988 279.808Z" fill="url(#paint0_linear_76_1451)" fill-opacity="0.1"/>
<defs>
<linearGradient id="paint0_linear_76_1451" x1="373.346" y1="42.5911" x2="39.5911" y2="376.346" gradientUnits="userSpaceOnUse">
<stop stop-color="white"/>
<stop offset="1" stop-color="white" stop-opacity="0"/>
</linearGradient>
</defs>
</svg>
