<svg width="222" height="196" viewBox="0 0 222 196" fill="none" xmlns="http://www.w3.org/2000/svg">
<path d="M70.7274 188.854C66.5144 186.422 63.9463 183.483 63.023 180.037C62.0997 176.591 62.4488 173.464 64.0704 170.656C65.692 167.847 68.2257 165.981 71.6715 165.058C75.1172 164.134 78.9466 164.889 83.1596 167.321C78.7906 164.799 76.0994 161.893 75.086 158.603C74.1627 155.157 74.4668 152.108 75.9983 149.455C77.5298 146.803 79.9734 145.093 83.3291 144.326C86.7748 143.402 90.6822 144.202 95.0513 146.724C91.4624 144.652 89.4074 141.905 88.8863 138.484C88.6113 134.996 89.4197 131.614 91.3116 128.337C93.2035 125.06 95.6833 122.747 98.751 121.398C102.065 119.982 105.516 120.31 109.105 122.382C103.332 119.049 99.9713 115.861 99.0239 112.817C98.0764 109.774 99.0795 107.856 102.033 107.065C104.986 106.273 109.272 107.499 114.889 110.742C111.21 108.826 108.909 106.145 107.986 102.7C107.219 99.344 107.424 95.9256 108.601 92.4445C109.935 89.0535 111.914 86.347 114.538 84.3249C115.331 81.8701 116.538 79.2384 118.16 76.4297C116.178 79.8626 113.509 81.9626 110.153 82.7299C106.798 83.4971 103.301 83.2469 99.664 81.9792C96.1829 80.8016 92.9841 78.9547 90.0677 76.4387C87.3974 73.8568 85.5555 70.9209 84.5422 67.6312C83.6848 64.4316 84.2471 61.1153 86.2291 57.6825C82.1721 55.3402 79.5798 52.8033 78.4522 50.0718C77.4147 47.1842 77.5265 44.6482 78.7878 42.4636C80.049 40.2791 82.1894 38.9142 85.2088 38.3689C88.2283 37.8237 91.7665 38.7222 95.8235 41.0645C90.9863 38.2718 88.3852 35.2096 88.0201 31.8781C87.9011 28.4806 89.2975 26.062 92.2092 24.6223C95.367 23.1167 99.3645 23.7603 104.202 26.553C98.1598 18.2795 95.9793 13.5878 97.6604 12.4779C99.2755 11.1218 103.104 14.5805 109.146 22.854C112.119 17.7048 114.914 14.8454 117.531 14.276C120.239 13.5506 121.955 14.5416 122.681 17.2489C123.496 19.8003 122.417 23.6506 119.444 28.7998C121.967 24.4308 124.717 21.6495 127.695 20.4559C130.828 19.3525 133.565 19.4764 135.906 20.8277C138.247 22.179 139.644 24.4425 140.1 27.618C140.711 30.8835 139.755 34.7009 137.233 39.0699C139.305 35.4811 141.616 33.2789 144.168 32.4633C146.965 31.5818 149.456 31.7717 151.641 33.033C153.981 34.3843 155.391 36.4466 155.871 39.2199C156.596 41.9273 155.923 45.0755 153.851 48.6643C157.094 43.047 160.459 40.1008 163.947 39.8258C167.525 39.3948 170.021 40.8362 171.437 44.15C172.942 47.3079 172.074 51.6955 168.83 57.3128C171.083 53.4119 173.92 51.2008 177.341 50.6797C181.009 50.0926 184.403 50.7 187.524 52.5018C190.801 54.3936 193.102 57.0745 194.427 60.5444C195.843 63.8583 195.424 67.4657 193.172 71.3666C195.785 66.8415 199.126 64.2975 203.196 63.7346C207.356 63.0156 211.23 63.6921 214.819 65.7641C218.564 67.9263 221.165 70.9884 222.623 74.9506C224.17 78.7567 223.638 82.9223 221.025 87.4474C223.367 83.3904 226.138 80.9332 229.338 80.0759C232.784 79.1526 235.833 79.4567 238.485 80.9882C241.294 82.6098 243.082 85.0984 243.849 88.4541C244.707 91.6538 243.964 95.2821 241.622 99.339C246.171 101.549 249.133 103.987 250.506 106.653C252.036 109.409 252.248 111.924 251.143 114.198C250.128 116.317 248.066 117.727 244.956 118.428C241.937 118.974 238.152 118.141 233.603 115.931C238.284 118.633 240.774 121.527 241.074 124.613C241.463 127.542 240.247 129.649 237.425 130.932C234.603 132.216 230.852 131.506 226.171 128.804C226.02 132.669 224.956 135.592 222.981 137.572C221.005 139.553 218.811 140.47 216.398 140.325C213.985 140.181 211.788 139.12 209.808 137.145C208.074 135.104 207.328 132.072 207.569 128.05C204.867 132.732 201.648 135.243 197.915 135.583C194.337 136.015 191.369 135.029 189.011 132.627C187.323 135.19 184.991 137.068 182.013 138.262C179.191 139.545 176.352 139.778 173.495 138.961C176.339 142.684 176.272 145.142 173.295 146.335C170.317 147.529 165.317 146.099 158.296 142.045C162.353 144.387 164.552 147.425 164.893 151.159C165.39 154.982 164.647 158.611 162.665 162.043C160.683 165.476 157.912 167.933 154.352 169.415C150.948 170.987 147.218 170.601 143.161 168.259C149.09 171.682 152.451 174.871 153.242 177.824C154.19 180.868 153.109 182.74 149.999 183.442C147.045 184.233 142.604 182.917 136.675 179.494C140.419 181.656 142.655 184.09 143.38 186.798C144.352 189.439 144.252 191.774 143.081 193.803C141.91 195.831 139.892 197.163 137.029 197.799C134.412 198.368 131.23 197.572 127.486 195.409C133.103 198.653 136.217 201.907 136.828 205.173C137.44 208.438 136.178 210.623 133.045 211.726C129.911 212.83 125.535 211.76 119.918 208.517C125.535 211.76 128.752 214.657 129.567 217.208C130.539 219.85 129.638 221.41 126.865 221.89C124.247 222.459 120.13 221.122 114.513 217.879C113.311 221.762 111.02 224.288 107.64 225.458C104.417 226.717 101.019 226.836 97.448 225.815C93.8768 224.793 91.0022 222.925 88.8241 220.212C86.7361 217.342 86.293 213.965 87.4948 210.082C84.9723 214.451 81.9102 217.052 78.3084 217.885C74.8626 218.809 71.8375 218.102 69.2332 215.766C66.6948 213.677 65.3243 210.285 65.1217 205.591C64.9191 200.897 66.7877 195.318 70.7274 188.854Z" fill="url(#paint0_linear_76_190)" fill-opacity="0.1"/>
<defs>
<linearGradient id="paint0_linear_76_190" x1="211.241" y1="-1.25" x2="51.2413" y2="275.878" gradientUnits="userSpaceOnUse">
<stop stop-color="white"/>
<stop offset="1" stop-color="white" stop-opacity="0"/>
</linearGradient>
</defs>
</svg>
