<svg width="184" height="30" viewBox="0 0 184 30" fill="none" xmlns="http://www.w3.org/2000/svg">
<path d="M14.4262 29C12.2929 29 10.3729 28.6933 8.66622 28.08C6.98622 27.4667 5.55955 26.6 4.38622 25.48C3.21288 24.36 2.30622 23.0266 1.66622 21.48C1.05288 19.9066 0.746216 18.1733 0.746216 16.28C0.746216 13.8 1.18622 11.6133 2.06622 9.71998C2.94622 7.82665 4.17288 6.23998 5.74622 4.95998C7.31955 3.65332 9.14622 2.66665 11.2262 1.99998C13.3329 1.33331 15.6129 0.999981 18.0662 0.999981H22.6662L21.6662 7.19998H17.3462C16.0395 7.19998 14.8529 7.39998 13.7862 7.79998C12.7196 8.17332 11.7862 8.73331 10.9862 9.47998C10.2129 10.2266 9.61288 11.1466 9.18622 12.24C8.78622 13.3066 8.58622 14.52 8.58622 15.88C8.58622 16.9466 8.74622 17.9067 9.06622 18.76C9.38622 19.6133 9.83955 20.3466 10.4262 20.96C11.0396 21.5466 11.7729 22 12.6262 22.32C13.5062 22.64 14.4795 22.8 15.5462 22.8H19.2262L18.2662 29H14.4262Z" fill="white"/>
<path d="M36.2212 29.48C34.2212 29.48 32.3546 29.1466 30.6212 28.48C28.9146 27.8133 27.4212 26.88 26.1412 25.68C24.8612 24.48 23.8612 23.0533 23.1412 21.4C22.4479 19.7466 22.1012 17.9333 22.1012 15.96C22.1012 13.6666 22.5146 11.5733 23.3412 9.67998C24.1679 7.78665 25.3146 6.15998 26.7812 4.79998C28.2746 3.41332 29.9679 2.35998 31.8612 1.63998C33.7812 0.893316 35.8346 0.519982 38.0212 0.519982C40.0746 0.519982 41.9546 0.853315 43.6612 1.51998C45.3946 2.15998 46.8879 3.09331 48.1412 4.31998C49.3946 5.51998 50.3679 6.94665 51.0612 8.59998C51.7546 10.2533 52.1012 12.0666 52.1012 14.04C52.1012 16.36 51.6879 18.4667 50.8612 20.36C50.0612 22.2267 48.9412 23.8533 47.5012 25.24C46.0612 26.6 44.3812 27.6533 42.4612 28.4C40.5412 29.12 38.4612 29.48 36.2212 29.48ZM36.5412 23.12C37.7679 23.12 38.8612 22.88 39.8212 22.4C40.8079 21.92 41.6479 21.2666 42.3412 20.44C43.0345 19.6133 43.5546 18.68 43.9012 17.64C44.2746 16.5733 44.4612 15.4667 44.4612 14.32C44.4612 12.8533 44.1679 11.56 43.5812 10.44C43.0212 9.29332 42.2346 8.41331 41.2212 7.79998C40.2079 7.15998 39.0212 6.83998 37.6612 6.83998C36.4346 6.83998 35.3279 7.09332 34.3412 7.59998C33.3812 8.07998 32.5546 8.73331 31.8612 9.55998C31.1679 10.3866 30.6346 11.3333 30.2612 12.4C29.9146 13.44 29.7412 14.5333 29.7412 15.68C29.7412 17.1466 30.0212 18.44 30.5812 19.56C31.1679 20.68 31.9679 21.56 32.9812 22.2C34.0212 22.8133 35.2079 23.12 36.5412 23.12Z" fill="white"/>
<path d="M73.0868 29.52C71.4335 29.52 69.9668 29.2133 68.6868 28.6C67.4335 27.96 66.4602 27.08 65.7668 25.96C65.0735 24.84 64.7268 23.5466 64.7268 22.08C64.7268 21.76 64.7535 21.4 64.8068 21C64.8602 20.6 64.9002 20.2533 64.9268 19.96L66.5268 9.59998C66.5535 9.46665 66.5668 9.31998 66.5668 9.15998C66.5935 8.99998 66.6068 8.83998 66.6068 8.67998C66.6068 8.22665 66.4468 7.85331 66.1268 7.55998C65.8335 7.26665 65.4468 7.11998 64.9668 7.11998C64.5668 7.11998 64.2068 7.19998 63.8868 7.35998C63.5668 7.51998 63.3002 7.74665 63.0868 8.03998C62.8735 8.33332 62.7268 8.69332 62.6468 9.11998L59.5268 29H52.1268L55.2468 9.11998C55.5402 7.30665 56.1668 5.75998 57.1268 4.47998C58.0868 3.19998 59.3002 2.21332 60.7668 1.51998C62.2602 0.826647 63.9002 0.47998 65.6868 0.47998C67.3668 0.47998 68.8202 0.813314 70.0468 1.47998C71.3002 2.11998 72.2868 3.01331 73.0068 4.15998C73.7268 5.27998 74.0868 6.59998 74.0868 8.11998C74.0868 8.43998 74.0602 8.77332 74.0068 9.11998C73.9802 9.46665 73.9402 9.77332 73.8868 10.04L72.2468 20.4C72.2202 20.56 72.1935 20.72 72.1668 20.88C72.1402 21.04 72.1268 21.1866 72.1268 21.32C72.1268 21.8266 72.2868 22.2267 72.6068 22.52C72.9535 22.7866 73.3535 22.92 73.8068 22.92C74.1802 22.92 74.5268 22.84 74.8468 22.68C75.1935 22.52 75.4735 22.2933 75.6868 22C75.9002 21.68 76.0468 21.32 76.1268 20.92L79.2468 0.999981H86.6468L83.5268 20.92C83.2335 22.76 82.5935 24.32 81.6068 25.6C80.6202 26.88 79.3802 27.8533 77.8868 28.52C76.4202 29.1866 74.8202 29.52 73.0868 29.52Z" fill="white"/>
<path d="M85.7131 29L86.7131 22.8H98.5931C99.2331 22.8 99.7664 22.68 100.193 22.44C100.62 22.1733 100.94 21.84 101.153 21.44C101.393 21.0133 101.513 20.5733 101.513 20.12C101.513 19.6933 101.42 19.32 101.233 19C101.073 18.68 100.82 18.4266 100.473 18.24C100.126 18.0533 99.6864 17.96 99.1531 17.96H95.6731C94.1264 17.96 92.7398 17.64 91.5131 17C90.3131 16.36 89.3664 15.48 88.6731 14.36C87.9798 13.2133 87.6331 11.8666 87.6331 10.32C87.6331 8.45332 88.0731 6.82665 88.9531 5.43998C89.8598 4.05331 91.0731 2.97332 92.5931 2.19998C94.1398 1.39998 95.8731 0.999981 97.7931 0.999981H110.393L109.353 7.19998H97.7531C97.2198 7.19998 96.7664 7.30665 96.3931 7.51998C96.0198 7.73331 95.7264 8.01331 95.5131 8.35998C95.3264 8.70665 95.2331 9.09332 95.2331 9.51998C95.2331 9.89332 95.3131 10.24 95.4731 10.56C95.6331 10.88 95.8731 11.1333 96.1931 11.32C96.5131 11.48 96.8864 11.56 97.3131 11.56H100.993C102.78 11.56 104.273 11.9066 105.473 12.6C106.673 13.2666 107.58 14.1866 108.193 15.36C108.806 16.5066 109.113 17.7866 109.113 19.2C109.113 20.4 108.873 21.5866 108.393 22.76C107.94 23.9067 107.26 24.96 106.353 25.92C105.446 26.8533 104.353 27.6 103.073 28.16C101.793 28.72 100.34 29 98.7131 29H85.7131Z" fill="white"/>
<path d="M119.101 29C117.261 29 115.701 28.6533 114.421 27.96C113.168 27.24 112.221 26.32 111.581 25.2C110.941 24.0533 110.621 22.8267 110.621 21.52C110.621 20.08 110.968 18.7466 111.661 17.52C112.381 16.2933 113.314 15.2266 114.461 14.32C113.981 13.6533 113.581 12.92 113.261 12.12C112.968 11.2933 112.821 10.32 112.821 9.19998C112.821 7.67998 113.208 6.30665 113.981 5.07998C114.754 3.82665 115.848 2.83998 117.261 2.11998C118.701 1.37331 120.381 0.999981 122.301 0.999981H134.661L133.701 7.07998H122.141C121.261 7.07998 120.594 7.31998 120.141 7.79998C119.688 8.25332 119.461 8.81332 119.461 9.47998C119.461 9.71998 119.488 9.95998 119.541 10.2C119.594 10.4133 119.688 10.6266 119.821 10.84C120.808 10.28 121.781 9.89332 122.741 9.67998C123.701 9.43998 124.701 9.31998 125.741 9.31998C126.968 9.31998 128.048 9.53332 128.981 9.95998C129.914 10.36 130.648 10.9333 131.181 11.68C131.741 12.4 132.021 13.28 132.021 14.32C132.021 15.68 131.674 16.8133 130.981 17.72C130.314 18.6266 129.434 19.32 128.341 19.8C127.248 20.2533 126.048 20.48 124.741 20.48C123.994 20.48 123.261 20.4133 122.541 20.28C121.848 20.1466 121.194 19.96 120.581 19.72C119.994 19.48 119.461 19.2 118.981 18.88C118.714 19.2266 118.528 19.56 118.421 19.88C118.314 20.1733 118.261 20.4933 118.261 20.84C118.261 21.2666 118.354 21.64 118.541 21.96C118.754 22.2533 119.061 22.4933 119.461 22.68C119.861 22.84 120.354 22.92 120.941 22.92H131.221L130.261 29H119.101ZM124.941 16.04C125.501 16.04 125.928 15.92 126.221 15.68C126.541 15.44 126.701 15.1466 126.701 14.8C126.701 14.5066 126.568 14.28 126.301 14.12C126.034 13.9333 125.648 13.84 125.141 13.84C124.581 13.84 124.034 13.9333 123.501 14.12C122.994 14.3066 122.514 14.56 122.061 14.88C122.461 15.2266 122.914 15.5066 123.421 15.72C123.954 15.9333 124.461 16.04 124.941 16.04Z" fill="white"/>
<path d="M130.971 29L143.891 4.31998C144.611 2.90665 145.531 1.91998 146.651 1.35998C147.798 0.773314 148.998 0.47998 150.251 0.47998C151.664 0.47998 152.918 0.853314 154.011 1.59998C155.131 2.34665 155.851 3.47998 156.171 4.99998L161.251 29H153.091L152.251 23.88H141.571L139.091 29H130.971ZM144.291 17.8H151.451L149.971 7.67998C149.971 7.57332 149.931 7.49332 149.851 7.43998C149.771 7.38665 149.664 7.35998 149.531 7.35998C149.424 7.35998 149.318 7.38665 149.211 7.43998C149.131 7.49332 149.064 7.57332 149.011 7.67998L144.291 17.8Z" fill="white"/>
<path d="M173.421 29C170.914 29 168.994 28.3733 167.661 27.12C166.354 25.84 165.701 24.16 165.701 22.08C165.701 21.7333 165.728 21.3733 165.781 21C165.834 20.6 165.888 20.2266 165.941 19.88L167.901 7.19998H160.501L161.461 0.999981H183.901L182.901 7.19998H175.581L173.581 20.12C173.554 20.3333 173.514 20.56 173.461 20.8C173.434 21.0133 173.421 21.2133 173.421 21.4C173.421 21.8266 173.554 22.1733 173.821 22.44C174.088 22.68 174.488 22.8 175.021 22.8H177.501L176.501 29H173.421Z" fill="white"/>
</svg>
