<svg width="24" height="24" viewBox="0 0 24 24" fill="none" xmlns="http://www.w3.org/2000/svg">
<path d="M8.77051 11.2524H10.1528L9.46166 9.28857L8.77051 11.2524Z" fill="black"/>
<path d="M12 0.926758C5.37231 0.926758 0 5.16253 0 10.3883C0 13.7668 2.24654 16.7344 5.625 18.4052C5.44154 19.0387 4.44346 22.4829 4.40423 22.7541C4.40423 22.7541 4.38 22.9571 4.51154 23.0345C4.55555 23.0567 4.60363 23.0696 4.65283 23.0726C4.70203 23.0756 4.75133 23.0685 4.79769 23.0518C5.17615 22.9987 9.18231 20.1891 9.87461 19.7056C10.5788 19.8034 11.289 19.8516 12 19.8498C18.6277 19.8498 24 15.6141 24 10.3883C24 5.16253 18.6277 0.926758 12 0.926758ZM6.06115 8.91945C6.04615 10.2579 6.07269 11.6656 6.05077 12.9833C6.04385 13.4045 5.80154 13.5302 5.47385 13.6502C5.43682 13.6633 5.39694 13.6661 5.35846 13.6583C4.98346 13.5844 4.68462 13.4506 4.67538 12.9845C4.64885 11.6679 4.68346 10.2579 4.665 8.91945C4.34769 8.90676 3.89538 8.93214 3.60115 8.91945C3.19269 8.89291 2.90885 8.6333 2.92615 8.24676C2.94346 7.86022 3.15 7.58214 3.60808 7.57522C4.69038 7.55907 6.03115 7.55907 7.11346 7.57522C7.575 7.58214 7.78038 7.86137 7.79423 8.24676C7.80808 8.63214 7.52885 8.89291 7.12154 8.91945C6.83077 8.93214 6.37961 8.90676 6.06115 8.91945ZM11.8765 13.5868C11.7381 13.6498 11.5878 13.6824 11.4358 13.6825C11.1473 13.6825 10.9269 13.5671 10.8588 13.3768L10.5127 12.4791H8.40577L8.05962 13.3768C7.99269 13.5648 7.77231 13.6825 7.48269 13.6825C7.33098 13.6825 7.18104 13.6499 7.04308 13.5868C6.85154 13.4991 6.66808 13.2568 6.87808 12.6037L8.53846 8.24445C8.60809 8.05243 8.73281 7.88521 8.89699 7.76371C9.06118 7.64221 9.25755 7.57183 9.46154 7.56137C9.66537 7.57295 9.86136 7.6439 10.0254 7.76548C10.1894 7.88705 10.3143 8.05395 10.3846 8.2456L12.0392 12.6025C12.2504 13.2568 12.0669 13.5037 11.8765 13.5868ZM15.375 13.5868H13.1538C12.9818 13.5902 12.8155 13.5253 12.6911 13.4064C12.5668 13.2875 12.4946 13.1241 12.4904 12.9521V8.25368C12.4978 8.07119 12.5754 7.89862 12.7072 7.7721C12.8389 7.64559 13.0145 7.57494 13.1971 7.57494C13.3798 7.57494 13.5553 7.64559 13.6871 7.7721C13.8188 7.89862 13.8965 8.07119 13.9038 8.25368V12.321H15.375C15.4616 12.3158 15.5483 12.3283 15.6298 12.3578C15.7113 12.3874 15.786 12.4333 15.8491 12.4927C15.9122 12.5522 15.9625 12.6239 15.9969 12.7035C16.0313 12.7831 16.0491 12.8689 16.0491 12.9556C16.0491 13.0423 16.0313 13.1281 15.9969 13.2077C15.9625 13.2873 15.9122 13.3591 15.8491 13.4185C15.786 13.4779 15.7113 13.5238 15.6298 13.5534C15.5483 13.5829 15.4616 13.5954 15.375 13.5902V13.5868ZM20.7981 13.0652C20.7801 13.2018 20.7217 13.3299 20.6305 13.4331C20.5393 13.5363 20.4194 13.61 20.2861 13.6447C20.1528 13.6794 20.0121 13.6735 19.8822 13.6278C19.7522 13.5822 19.6388 13.4988 19.5565 13.3883L17.9331 11.2387L17.6931 11.4787V12.9891C17.6931 13.1727 17.6201 13.3488 17.4903 13.4786C17.3605 13.6084 17.1844 13.6814 17.0008 13.6814C16.8172 13.6814 16.6411 13.6084 16.5112 13.4786C16.3814 13.3488 16.3085 13.1727 16.3085 12.9891V8.2583C16.3085 8.07469 16.3814 7.89859 16.5112 7.76876C16.6411 7.63893 16.8172 7.56599 17.0008 7.56599C17.1844 7.56599 17.3605 7.63893 17.4903 7.76876C17.6201 7.89859 17.6931 8.07469 17.6931 8.2583V9.74214L19.6246 7.8106C19.6752 7.76061 19.7352 7.72118 19.8012 7.69464C19.8671 7.66809 19.9377 7.65495 20.0088 7.65599C20.1817 7.66053 20.3468 7.72876 20.4725 7.84759C20.5981 7.96642 20.6755 8.12748 20.6896 8.29983C20.6958 8.37675 20.6856 8.4541 20.6595 8.52673C20.6334 8.59936 20.5922 8.66558 20.5385 8.72099L18.9577 10.2983L20.6619 12.5564C20.7723 12.7028 20.82 12.8871 20.7946 13.0687L20.7981 13.0652Z" fill="black"/>
</svg>
