<svg width="180" height="180" viewBox="0 0 180 180" fill="none" xmlns="http://www.w3.org/2000/svg">
<rect width="180" height="180" rx="24.8619" fill="#1B1C1E"/>
<path d="M40.819 114.5C37.0857 114.5 33.7257 113.963 30.739 112.89C27.799 111.817 25.3023 110.3 23.249 108.34C21.1957 106.38 19.609 104.047 18.489 101.34C17.4157 98.5867 16.879 95.5533 16.879 92.24C16.879 87.9 17.649 84.0733 19.189 80.76C20.729 77.4467 22.8757 74.67 25.629 72.43C28.3823 70.1433 31.579 68.4167 35.219 67.25C38.9057 66.0833 42.8957 65.5 47.189 65.5H55.239L53.489 76.35H45.929C43.6423 76.35 41.5657 76.7 39.699 77.4C37.8323 78.0533 36.199 79.0333 34.799 80.34C33.4457 81.6467 32.3957 83.2567 31.649 85.17C30.949 87.0367 30.599 89.16 30.599 91.54C30.599 93.4067 30.879 95.0867 31.439 96.58C31.999 98.0733 32.7923 99.3567 33.819 100.43C34.8923 101.457 36.1757 102.25 37.669 102.81C39.209 103.37 40.9123 103.65 42.779 103.65H49.219L47.539 114.5H40.819ZM78.9602 115.34C75.4602 115.34 72.1936 114.757 69.1602 113.59C66.1736 112.423 63.5602 110.79 61.3202 108.69C59.0802 106.59 57.3302 104.093 56.0702 101.2C54.8569 98.3067 54.2502 95.1333 54.2502 91.68C54.2502 87.6667 54.9736 84.0033 56.4202 80.69C57.8669 77.3767 59.8736 74.53 62.4402 72.15C65.0536 69.7233 68.0169 67.88 71.3302 66.62C74.6902 65.3133 78.2836 64.66 82.1102 64.66C85.7036 64.66 88.9936 65.2433 91.9802 66.41C95.0136 67.53 97.6269 69.1633 99.8202 71.31C102.014 73.41 103.717 75.9067 104.93 78.8C106.144 81.6933 106.75 84.8667 106.75 88.32C106.75 92.38 106.027 96.0667 104.58 99.38C103.18 102.647 101.22 105.493 98.7002 107.92C96.1802 110.3 93.2402 112.143 89.8802 113.45C86.5202 114.71 82.8802 115.34 78.9602 115.34ZM79.5202 104.21C81.6669 104.21 83.5802 103.79 85.2602 102.95C86.9869 102.11 88.4569 100.967 89.6702 99.52C90.8836 98.0733 91.7936 96.44 92.4002 94.62C93.0536 92.7533 93.3802 90.8167 93.3802 88.81C93.3802 86.2433 92.8669 83.98 91.8402 82.02C90.8602 80.0133 89.4836 78.4733 87.7102 77.4C85.9369 76.28 83.8602 75.72 81.4802 75.72C79.3336 75.72 77.3969 76.1633 75.6702 77.05C73.9902 77.89 72.5436 79.0333 71.3302 80.48C70.1169 81.9267 69.1836 83.5833 68.5302 85.45C67.9236 87.27 67.6202 89.1833 67.6202 91.19C67.6202 93.7567 68.1102 96.02 69.0902 97.98C70.1169 99.94 71.5169 101.48 73.2902 102.6C75.1102 103.673 77.1869 104.21 79.5202 104.21ZM143.475 115.41C140.582 115.41 138.015 114.873 135.775 113.8C133.582 112.68 131.878 111.14 130.665 109.18C129.452 107.22 128.845 104.957 128.845 102.39C128.845 101.83 128.892 101.2 128.985 100.5C129.078 99.8 129.148 99.1933 129.195 98.68L131.995 80.55C132.042 80.3167 132.065 80.06 132.065 79.78C132.112 79.5 132.135 79.22 132.135 78.94C132.135 78.1467 131.855 77.4933 131.295 76.98C130.782 76.4667 130.105 76.21 129.265 76.21C128.565 76.21 127.935 76.35 127.375 76.63C126.815 76.91 126.348 77.3067 125.975 77.82C125.602 78.3333 125.345 78.9633 125.205 79.71L119.745 114.5H106.795L112.255 79.71C112.768 76.5367 113.865 73.83 115.545 71.59C117.225 69.35 119.348 67.6233 121.915 66.41C124.528 65.1967 127.398 64.59 130.525 64.59C133.465 64.59 136.008 65.1733 138.155 66.34C140.348 67.46 142.075 69.0233 143.335 71.03C144.595 72.99 145.225 75.3 145.225 77.96C145.225 78.52 145.178 79.1033 145.085 79.71C145.038 80.3167 144.968 80.8533 144.875 81.32L142.005 99.45C141.958 99.73 141.912 100.01 141.865 100.29C141.818 100.57 141.795 100.827 141.795 101.06C141.795 101.947 142.075 102.647 142.635 103.16C143.242 103.627 143.942 103.86 144.735 103.86C145.388 103.86 145.995 103.72 146.555 103.44C147.162 103.16 147.652 102.763 148.025 102.25C148.398 101.69 148.655 101.06 148.795 100.36L154.255 65.5H167.205L161.745 100.36C161.232 103.58 160.112 106.31 158.385 108.55C156.658 110.79 154.488 112.493 151.875 113.66C149.308 114.827 146.508 115.41 143.475 115.41Z" fill="#00FFE5"/>
</svg>
