<svg width="180" height="180" viewBox="0 0 180 180" fill="none" xmlns="http://www.w3.org/2000/svg">
<rect width="180" height="180" rx="24.8619" fill="#1B1C1E"/>
<path d="M25.6946 102C23.8913 102 22.2683 101.741 20.8256 101.222C19.4055 100.704 18.1995 99.9713 17.2077 99.0245C16.2159 98.0778 15.4495 96.9507 14.9085 95.6433C14.39 94.3134 14.1308 92.8482 14.1308 91.2477C14.1308 89.1514 14.5027 87.303 15.2466 85.7025C15.9905 84.1021 17.0274 82.7609 18.3573 81.6789C19.6873 80.5744 21.2314 79.7403 22.9896 79.1768C24.7704 78.6133 26.6977 78.3315 28.7715 78.3315H32.6599L31.8146 83.5724H28.1629C27.0583 83.5724 26.0552 83.7414 25.1536 84.0796C24.2519 84.3951 23.463 84.8685 22.7867 85.4997C22.133 86.1308 21.6258 86.9085 21.2652 87.8327C20.9271 88.7344 20.758 89.76 20.758 90.9096C20.758 91.8113 20.8932 92.6228 21.1637 93.3441C21.4342 94.0654 21.8174 94.6853 22.3134 95.2038C22.8318 95.6997 23.4517 96.0829 24.173 96.3534C24.9169 96.6239 25.7397 96.7591 26.6413 96.7591H29.752L28.9405 102H25.6946ZM44.118 102.406C42.4274 102.406 40.8495 102.124 39.3843 101.56C37.9416 100.997 36.6793 100.208 35.5973 99.1936C34.5153 98.1792 33.67 96.9733 33.0614 95.5757C32.4753 94.1781 32.1823 92.6453 32.1823 90.9772C32.1823 89.0387 32.5317 87.2692 33.2305 85.6687C33.9292 84.0683 34.8985 82.6933 36.1383 81.5436C37.4006 80.3715 38.832 79.4811 40.4324 78.8725C42.0554 78.2413 43.7911 77.9257 45.6395 77.9257C47.3752 77.9257 48.9644 78.2075 50.407 78.771C51.8722 79.312 53.1345 80.101 54.194 81.1379C55.2534 82.1523 56.0762 83.3582 56.6623 84.7558C57.2484 86.1534 57.5414 87.6862 57.5414 89.3543C57.5414 91.3154 57.192 93.0961 56.4932 94.6966C55.817 96.2745 54.8702 97.6495 53.653 98.8217C52.4358 99.9713 51.0156 100.862 49.3927 101.493C47.7697 102.101 46.0114 102.406 44.118 102.406ZM44.3885 97.0296C45.4254 97.0296 46.3496 96.8267 47.1611 96.421C47.9951 96.0152 48.7051 95.463 49.2912 94.7642C49.8773 94.0654 50.3169 93.2765 50.6099 92.3973C50.9255 91.4957 51.0833 90.5602 51.0833 89.5909C51.0833 88.3512 50.8353 87.2579 50.3394 86.3112C49.866 85.3419 49.2011 84.598 48.3445 84.0796C47.4879 83.5386 46.4848 83.2681 45.3352 83.2681C44.2983 83.2681 43.3628 83.4822 42.5288 83.9105C41.7173 84.3162 41.0185 84.8685 40.4324 85.5673C39.8464 86.2661 39.3955 87.0663 39.08 87.968C38.7869 88.8471 38.6404 89.7713 38.6404 90.7406C38.6404 91.9803 38.8771 93.0736 39.3505 94.0203C39.8464 94.9671 40.5226 95.7109 41.3792 96.2519C42.2583 96.7704 43.2614 97.0296 44.3885 97.0296ZM75.2806 102.44C73.883 102.44 72.6433 102.18 71.5613 101.662C70.5018 101.121 69.6791 100.377 69.093 99.4303C68.5069 98.4835 68.2139 97.3903 68.2139 96.1505C68.2139 95.88 68.2364 95.5757 68.2815 95.2376C68.3266 94.8994 68.3604 94.6064 68.3829 94.3585L69.7354 85.6011C69.758 85.4884 69.7692 85.3644 69.7692 85.2292C69.7918 85.0939 69.803 84.9587 69.803 84.8234C69.803 84.4402 69.6678 84.1246 69.3973 83.8767C69.1493 83.6287 68.8225 83.5048 68.4167 83.5048C68.0786 83.5048 67.7743 83.5724 67.5038 83.7076C67.2333 83.8429 67.0079 84.0345 66.8276 84.2824C66.6472 84.5304 66.5233 84.8347 66.4556 85.1954L63.8183 102H57.563L60.2004 85.1954C60.4484 83.6625 60.9781 82.3551 61.7896 81.2731C62.6011 80.1912 63.6267 79.3571 64.8665 78.771C66.1288 78.185 67.5151 77.8919 69.0254 77.8919C70.4455 77.8919 71.674 78.1737 72.7109 78.7372C73.7703 79.2782 74.6044 80.0334 75.213 81.0027C75.8216 81.9494 76.1259 83.0652 76.1259 84.3501C76.1259 84.6206 76.1034 84.9023 76.0583 85.1954C76.0358 85.4884 76.0019 85.7476 75.9569 85.973L74.5706 94.7304C74.548 94.8656 74.5255 95.0009 74.5029 95.1361C74.4804 95.2714 74.4691 95.3954 74.4691 95.5081C74.4691 95.9364 74.6044 96.2745 74.8749 96.5224C75.1679 96.7478 75.506 96.8606 75.8892 96.8606C76.2048 96.8606 76.4979 96.7929 76.7684 96.6577C77.0614 96.5224 77.2981 96.3308 77.4784 96.0829C77.6587 95.8124 77.7827 95.5081 77.8503 95.1699L80.4877 78.3315H86.7429L84.1056 95.1699C83.8576 96.7253 83.3166 98.044 82.4826 99.126C81.6486 100.208 80.6004 101.031 79.3381 101.594C78.0983 102.158 76.7458 102.44 75.2806 102.44ZM85.9536 102L86.7989 96.7591H96.8411C97.3821 96.7591 97.833 96.6577 98.1936 96.4548C98.5543 96.2294 98.8248 95.9476 99.0051 95.6095C99.208 95.2488 99.3094 94.8769 99.3094 94.4937C99.3094 94.133 99.2305 93.8175 99.0727 93.547C98.9375 93.2765 98.7234 93.0623 98.4303 92.9045C98.1373 92.7467 97.7653 92.6678 97.3145 92.6678H94.3729C93.0655 92.6678 91.8933 92.3973 90.8564 91.8564C89.842 91.3154 89.0418 90.5715 88.4557 89.6248C87.8697 88.6555 87.5766 87.5171 87.5766 86.2097C87.5766 84.6318 87.9486 83.2568 88.6924 82.0846C89.4588 80.9125 90.4845 79.9996 91.7693 79.3459C93.0767 78.6696 94.5419 78.3315 96.1649 78.3315H106.816L105.937 83.5724H96.1311C95.6803 83.5724 95.2971 83.6625 94.9815 83.8429C94.6659 84.0232 94.4179 84.2599 94.2376 84.5529C94.0798 84.846 94.0009 85.1728 94.0009 85.5335C94.0009 85.8491 94.0686 86.1421 94.2038 86.4126C94.339 86.6831 94.5419 86.8972 94.8124 87.055C95.0829 87.1903 95.3985 87.2579 95.7592 87.2579H98.8699C100.38 87.2579 101.642 87.5509 102.657 88.137C103.671 88.7006 104.438 89.4782 104.956 90.4701C105.475 91.4393 105.734 92.5213 105.734 93.716C105.734 94.7304 105.531 95.7335 105.125 96.7253C104.742 97.6946 104.167 98.585 103.401 99.3965C102.634 100.185 101.71 100.817 100.628 101.29C99.5461 101.763 98.3176 102 96.9426 102H85.9536ZM114.176 102C112.621 102 111.302 101.707 110.22 101.121C109.161 100.512 108.361 99.7346 107.82 98.7878C107.279 97.8186 107.008 96.7817 107.008 95.6771C107.008 94.4599 107.301 93.3328 107.887 92.2959C108.496 91.259 109.285 90.3573 110.254 89.5909C109.849 89.0274 109.51 88.4075 109.24 87.7313C108.992 87.0325 108.868 86.2097 108.868 85.263C108.868 83.9781 109.195 82.8172 109.849 81.7803C110.502 80.7209 111.426 79.8869 112.621 79.2782C113.838 78.6471 115.258 78.3315 116.881 78.3315H127.329L126.518 83.4709H116.746C116.002 83.4709 115.439 83.6738 115.056 84.0796C114.672 84.4628 114.481 84.9361 114.481 85.4997C114.481 85.7025 114.503 85.9054 114.548 86.1083C114.594 86.2886 114.672 86.469 114.785 86.6493C115.619 86.1759 116.442 85.8491 117.253 85.6687C118.065 85.4659 118.91 85.3644 119.789 85.3644C120.826 85.3644 121.739 85.5448 122.528 85.9054C123.317 86.2435 123.937 86.7282 124.388 87.3593C124.861 87.968 125.098 88.7118 125.098 89.5909C125.098 90.7406 124.805 91.6986 124.219 92.465C123.655 93.2314 122.911 93.8175 121.987 94.2232C121.063 94.6064 120.049 94.798 118.944 94.798C118.313 94.798 117.693 94.7417 117.084 94.629C116.498 94.5162 115.946 94.3585 115.428 94.1556C114.932 93.9527 114.481 93.716 114.075 93.4455C113.85 93.7386 113.692 94.0203 113.602 94.2908C113.512 94.5388 113.466 94.8093 113.466 95.1023C113.466 95.463 113.545 95.7786 113.703 96.0491C113.883 96.297 114.143 96.4999 114.481 96.6577C114.819 96.7929 115.236 96.8606 115.732 96.8606H124.422L123.61 102H114.176ZM119.113 91.0449C119.586 91.0449 119.947 90.9434 120.195 90.7406C120.466 90.5377 120.601 90.2897 120.601 89.9967C120.601 89.7487 120.488 89.5571 120.263 89.4219C120.037 89.2641 119.71 89.1852 119.282 89.1852C118.809 89.1852 118.347 89.2641 117.896 89.4219C117.468 89.5797 117.062 89.7938 116.679 90.0643C117.017 90.3573 117.4 90.594 117.828 90.7744C118.279 90.9547 118.707 91.0449 119.113 91.0449ZM124.21 102L135.132 81.1379C135.74 79.9432 136.518 79.1092 137.465 78.6358C138.434 78.1399 139.448 77.8919 140.508 77.8919C141.702 77.8919 142.762 78.2075 143.686 78.8387C144.633 79.4698 145.241 80.4278 145.512 81.7127L149.806 102H142.908L142.198 97.672H133.17L131.074 102H124.21ZM135.47 92.5326H141.522L140.271 83.9781C140.271 83.888 140.237 83.8203 140.17 83.7752C140.102 83.7302 140.012 83.7076 139.899 83.7076C139.809 83.7076 139.719 83.7302 139.629 83.7752C139.561 83.8203 139.505 83.888 139.46 83.9781L135.47 92.5326ZM160.093 102C157.974 102 156.352 101.47 155.224 100.411C154.12 99.3288 153.568 97.9087 153.568 96.1505C153.568 95.8575 153.59 95.5531 153.635 95.2376C153.68 94.8994 153.725 94.5839 153.771 94.2908L155.427 83.5724H149.172L149.984 78.3315H168.952L168.107 83.5724H161.919L160.229 94.4937C160.206 94.674 160.172 94.8656 160.127 95.0685C160.105 95.2488 160.093 95.4179 160.093 95.5757C160.093 95.9364 160.206 96.2294 160.432 96.4548C160.657 96.6577 160.995 96.7591 161.446 96.7591H163.542L162.697 102H160.093Z" fill="#00FFE5"/>
</svg>
