<svg width="215" height="335" viewBox="0 0 215 335" fill="none" xmlns="http://www.w3.org/2000/svg">
<path d="M97.9988 200.808C92.1759 204.001 86.7287 204.564 81.6571 202.498C76.5856 200.432 72.641 196.863 69.8235 191.792C67.0059 187.096 65.8789 182.024 66.4424 176.577C67.3816 171.13 70.8566 166.716 76.8673 163.334C67.8512 165.588 61.3709 165.307 57.4263 162.489C53.6696 159.484 52.8243 155.821 54.8905 151.501C57.1446 146.993 62.6857 143.706 71.514 141.639C65.6911 140.7 61.6526 137.601 59.3986 132.342C57.5202 127.082 57.1446 121.447 58.2716 115.436C59.5864 109.238 62.1222 104.072 65.8789 99.9399C69.6356 95.8075 74.4254 94.2109 80.2483 95.1501C72.5471 90.8299 68.039 86.6975 66.7242 82.753C65.5972 78.9963 66.912 76.7422 70.6687 75.9909C74.8011 75.2395 80.7179 77.2118 88.4192 81.9077C83.1598 77.024 80.4362 72.0463 80.2483 66.9748C80.0605 61.9032 81.4693 57.4891 84.4746 53.7324C87.8557 49.9756 92.082 47.8155 97.1536 47.252C102.413 46.8764 107.766 49.0365 113.214 53.7324C108.893 49.4121 107.391 44.3406 108.705 38.5177C110.396 32.6948 113.495 27.5293 118.003 23.0212C122.699 18.3253 127.959 15.32 133.782 14.0051C139.604 12.6903 144.676 14.1929 148.996 18.5132C147.118 14.3808 147.4 10.1545 149.841 5.83426C152.471 1.70187 156.228 -2.05484 161.112 -5.43589C166.183 -9.00476 171.63 -11.6345 177.453 -13.325C183.464 -15.2033 188.817 -15.8608 193.513 -15.2973C198.585 -14.7338 202.06 -12.3858 203.938 -8.25341C204.877 -14.452 207.695 -18.7722 212.391 -21.2141C217.087 -23.6559 222.252 -24.5012 227.887 -23.7499C233.522 -22.9985 238.218 -20.7445 241.975 -16.9878C245.919 -13.4189 247.422 -8.53517 246.483 -2.33659C249.676 -7.03248 253.715 -9.7561 258.598 -10.5074C263.858 -11.2588 269.117 -10.5074 274.377 -8.25341C279.824 -6.18722 284.614 -3.08793 288.746 1.04445C293.066 4.989 295.884 9.30921 297.199 14.0051C298.701 18.8888 297.95 23.7726 294.945 28.6563C299.828 24.1482 304.994 22.3638 310.441 23.303C315.888 24.2422 320.49 26.7779 324.247 30.9103C328.191 35.2305 330.352 40.2082 330.727 45.8433C331.291 51.2905 329.131 56.2681 324.247 60.7762C329.882 58.1465 335.235 58.0526 340.307 60.4944C345.566 62.7485 349.98 66.4113 353.549 71.4828C357.306 76.7422 359.748 82.3773 360.875 88.388C362.378 94.3988 362.19 100.034 360.311 105.293C358.621 110.74 354.958 114.779 349.323 117.409C355.146 117.596 359.466 119.287 362.284 122.48C365.101 125.673 366.416 129.242 366.228 133.187C366.228 137.319 364.632 140.794 361.438 143.612C358.433 146.617 353.925 147.932 347.914 147.556C353.174 150.562 356.085 154.6 356.649 159.672C357.4 164.931 356.461 170.003 353.831 174.886C351.389 179.582 347.82 182.963 343.124 185.029C338.616 187.284 333.639 187.002 328.191 184.184C321.993 190.383 317.015 193.67 313.258 194.046C309.502 194.421 307.811 192.731 308.187 188.974C308.563 185.217 311.85 180.24 318.048 174.041C314.667 177.422 310.535 178.737 305.651 177.986C300.955 177.422 296.165 175.45 291.282 172.069C286.774 168.688 282.735 164.649 279.166 159.953C275.973 155.258 274.001 150.468 273.249 145.584C272.686 140.888 274.095 136.85 277.476 133.469C269.775 133.656 264.609 132.06 261.979 128.679C259.537 125.11 259.537 121.541 261.979 117.972C264.609 114.591 269.681 112.901 277.194 112.901C267.99 113.464 261.604 111.774 258.035 107.829C254.842 103.884 254.654 99.9399 257.471 95.9954C253.902 96.1832 252.118 94.7745 252.118 91.7691C246.859 93.6474 241.036 94.2109 234.649 93.4596C228.639 92.7083 223.379 90.6421 218.871 87.261C219.059 93.4596 216.054 97.2163 209.855 98.5312C203.844 100.034 197.364 96.9346 190.414 89.2333C196.613 95.8075 199.806 101.067 199.994 105.011C200.181 108.956 198.303 110.834 194.359 110.647C190.414 110.459 185.248 107.172 178.862 100.785C185.061 106.608 188.348 111.961 188.723 116.845C189.287 121.541 187.784 124.734 184.215 126.425C180.647 128.115 175.951 127.364 170.128 124.171C174.072 129.242 175.105 135.535 173.227 143.048C171.536 150.749 168.249 156.666 163.366 160.799C164.68 161.738 165.15 163.147 164.774 165.025C170.597 163.334 176.514 163.616 182.525 165.87C188.911 168.124 193.795 171.693 197.176 176.577C200.745 181.648 201.496 187.659 199.43 194.609C202.435 189.725 206.286 187.002 210.982 186.438C215.866 186.063 220.374 187.19 224.506 189.819C229.014 192.449 232.207 196.018 234.086 200.526C235.964 205.034 235.401 209.73 232.395 214.614C237.842 209.166 243.384 206.443 249.019 206.443C254.654 206.443 259.35 208.321 263.106 212.078C266.863 215.835 268.741 220.53 268.741 226.165C268.741 231.801 266.018 237.342 260.571 242.789C266.393 247.485 269.023 252.181 268.46 256.877C267.896 261.573 265.36 264.672 260.852 266.175C256.532 267.489 251.461 265.611 245.638 260.539C246.953 266.738 245.919 271.716 242.538 275.472C239.533 279.229 235.401 281.671 230.141 282.798C225.07 283.737 220.186 283.174 215.49 281.107C211.17 279.041 208.446 275.003 207.319 268.992C205.441 274.627 201.496 278.196 195.486 279.699C189.663 281.014 183.464 280.638 176.89 278.572C170.316 276.505 164.962 273.218 160.83 268.71C156.697 264.202 155.57 259.131 157.449 253.496C152.941 260.258 148.714 263.92 144.77 264.484C141.013 265.235 138.665 263.639 137.726 259.694C136.599 255.937 138.196 250.772 142.516 244.198C136.317 251.148 129.837 253.683 123.075 251.805C116.313 249.927 110.49 244.479 105.606 235.463C100.91 226.635 98.3745 215.083 97.9988 200.808Z" fill="url(#paint0_linear_76_188)" fill-opacity="0.2"/>
<defs>
<linearGradient id="paint0_linear_76_188" x1="373.346" y1="-36.4089" x2="39.5911" y2="297.346" gradientUnits="userSpaceOnUse">
<stop stop-color="white"/>
<stop offset="1" stop-color="white" stop-opacity="0"/>
</linearGradient>
</defs>
</svg>
