<svg width="167" height="263" viewBox="0 0 167 263" fill="none" xmlns="http://www.w3.org/2000/svg">
<path d="M43.204 221.769C42.8789 225.543 41.301 228.534 38.4701 230.741C35.7452 232.717 32.3682 233.975 28.3391 234.514C24.416 234.821 20.5575 234.528 16.7637 233.633C12.907 232.57 9.65299 230.801 7.00158 228.328C4.51902 225.792 3.44025 222.637 3.76526 218.863C1.26852 222.484 -1.62525 224.523 -4.91605 224.979C-8.26973 225.267 -11.3468 224.49 -14.1473 222.649C-17.0107 220.639 -18.9238 218.083 -19.8867 214.981C-20.7436 211.647 -19.9237 208.169 -17.427 204.548C-20.5094 206.08 -23.6412 206.189 -26.8225 204.874C-29.8978 203.327 -32.7181 200.917 -35.2833 197.642C-37.8485 194.368 -39.8542 190.789 -41.3003 186.905C-42.5776 182.959 -42.9909 179.267 -42.5401 175.831C-41.9205 172.332 -40.0695 169.816 -36.9871 168.284C-40.9335 169.561 -44.5073 169.258 -47.7083 167.373C-50.9722 165.32 -53.665 162.478 -55.7865 158.846C-57.8021 154.982 -59.1108 150.951 -59.7127 146.753C-60.1457 142.492 -59.6519 138.655 -58.2311 135.242C-56.8103 131.829 -54.2426 129.431 -50.5279 128.048C-53.3319 127.746 -55.4372 126.223 -56.8438 123.478C-58.0816 120.671 -58.7382 117.358 -58.8138 113.541C-58.8893 109.724 -58.4485 106.003 -57.4911 102.378C-56.4279 98.5215 -54.8813 95.4462 -52.8516 93.1522C-50.8847 90.6895 -48.5837 89.6404 -45.9485 90.0049C-50.7286 86.9783 -53.2839 83.9884 -53.6145 81.0354C-53.9451 78.0822 -52.6752 76.0712 -49.8047 75.0024C-46.9343 73.9335 -43.109 74.9123 -38.329 77.939C-41.9469 73.9028 -43.7621 70.0606 -43.7748 66.4123C-43.7875 62.764 -42.5473 59.8989 -40.0541 57.8169C-37.6237 55.5661 -34.606 54.6346 -31.0008 55.0225C-27.2896 55.1786 -23.6566 57.1904 -20.1016 61.0577C-22.1171 57.1939 -22.7208 53.7657 -21.9126 50.7731C-21.1043 47.7804 -19.4123 45.6122 -16.8364 44.2685C-14.2606 42.9248 -11.5293 42.7729 -8.64263 43.8129C-5.64998 44.6211 -3.06144 46.9257 -0.877025 50.7266C-1.98546 46.7173 -1.36585 43.2181 0.981812 40.229C3.43546 37.0082 6.62561 34.4744 10.5523 32.6277C14.6478 30.7181 18.9732 29.6842 23.5286 29.526C28.0211 29.1989 32.0368 29.9146 35.5755 31.6731C39.0514 33.2627 41.2592 36.0936 42.1988 40.1658C42.5937 33.4817 44.2381 29.1203 47.1319 27.0814C50.0257 25.0425 52.7138 25.2912 55.1964 27.8275C57.7849 30.1321 58.8817 34.6264 58.4867 41.3104C60.3151 34.8616 62.6861 30.9025 65.5997 29.4331C68.5132 27.9636 70.7892 28.6542 72.4275 31.5049C74.0029 34.1867 73.8764 38.752 72.048 45.2008C74.6938 40.947 77.5992 38.4232 80.7643 37.6291C84.0353 36.6033 86.8393 36.905 89.1764 38.5342C91.6194 39.9316 93.0691 42.2757 93.5254 45.5665C93.9818 48.8573 92.8026 52.661 89.988 56.9776C93.2625 54.4124 96.3333 53.3651 99.2002 53.8356C102.004 54.1373 104.184 55.3444 105.74 57.4568C107.232 59.4003 107.744 61.8055 107.273 64.6724C106.908 67.3076 105.089 69.9078 101.814 72.473C104.96 71.1095 107.933 71.3484 110.733 73.1895C113.639 74.7989 116.122 77.3352 118.181 80.7984C120.345 84.0298 121.866 87.5972 122.743 91.5006C123.619 95.4039 123.601 98.9677 122.686 102.192C121.941 105.354 119.996 107.616 116.85 108.98C123.098 106.653 127.675 106.295 130.581 107.904C133.425 109.345 134.158 111.571 132.78 114.584C131.571 117.533 127.812 120.087 121.502 122.244C125.805 121.411 129.315 122.315 132.029 124.957C134.68 127.431 136.328 130.566 136.973 134.363C137.618 138.161 137.115 141.713 135.462 145.02C133.747 148.158 130.706 150.06 126.339 150.724C129.057 151.827 130.728 153.993 131.353 157.221C131.979 160.448 131.791 164.075 130.791 168.101C129.727 171.957 128.116 175.634 125.957 179.129C123.967 182.562 121.694 185.235 119.138 187.148C116.519 188.892 113.85 189.213 111.133 188.11C113.592 191.617 113.921 195.339 112.119 199.279C110.486 203.155 107.695 206.502 103.745 209.318C99.7951 212.135 95.6897 213.76 91.4289 214.193C87.1681 214.626 83.8081 213.09 81.3489 209.583C85.3136 218.681 84.0878 224.425 77.6715 226.814C71.2552 229.204 59.766 227.522 43.204 221.769ZM70.9416 168.469C66.4293 168.227 63.3756 166.48 61.7804 163.229C60.2911 159.746 60.0566 156.276 61.0768 152.82C62.203 149.132 64.5704 146.712 68.1791 145.561C65.544 145.196 63.1854 143.767 61.1034 141.274C59.1903 138.718 57.8052 135.773 56.9483 132.439C56.0913 129.105 56.014 126.058 56.7163 123.297C57.5245 120.304 59.3639 118.274 62.2343 117.205C58.9202 118.631 55.8844 118.223 53.1271 115.982C50.3068 113.571 48.4053 110.53 47.4226 106.859C46.5459 102.955 46.9437 99.6347 48.616 96.8971C45.5336 98.4295 42.276 98.2005 38.8432 96.2103C35.4104 94.2201 33.4658 91.5796 33.0095 88.2888C31.4234 90.2253 29.4385 91.3489 27.0549 91.6598C24.7772 91.7389 22.6701 90.9854 20.7336 89.3993C21.1271 92.5213 20.256 95.3451 18.1203 97.8707C15.9217 100.228 13.3144 101.487 10.2984 101.649C12.0229 103.698 13.0505 106.199 13.3811 109.153C13.7117 112.106 13.2941 114.857 12.1284 117.406C10.9627 119.955 9.02903 121.732 6.32743 122.738C8.94283 122.533 11.1658 123.34 12.9963 125.158C14.9956 126.912 16.3294 129.204 16.9977 132.031C17.772 134.627 17.7451 137.136 16.9171 139.559C16.2579 141.92 14.5776 143.603 11.876 144.609C15.3589 143.12 17.9115 142.746 19.5335 143.488C21.1556 144.229 21.6272 145.496 20.9482 147.287C20.2064 148.909 18.0626 150.38 14.5167 151.7C18.5063 150.023 21.754 149.967 24.2598 151.533C26.8717 152.868 28.4274 154.98 28.9268 157.87C29.5951 160.698 28.8614 163.374 26.7257 165.9C29.7219 165.169 33.0523 165.851 36.7168 167.947C40.3813 170.043 42.8953 172.664 44.2588 175.809C45.6795 172.396 48.7422 170.295 53.4466 169.504C58.2571 168.482 64.0888 168.137 70.9416 168.469Z" fill="url(#paint0_linear_76_189)" fill-opacity="0.15"/>
<defs>
<linearGradient id="paint0_linear_76_189" x1="-17.8179" y1="-17.1165" x2="93.8512" y2="282.767" gradientUnits="userSpaceOnUse">
<stop stop-color="white"/>
<stop offset="1" stop-color="white" stop-opacity="0"/>
</linearGradient>
</defs>
</svg>
