<svg width="204" height="32" viewBox="0 0 204 32" fill="none" xmlns="http://www.w3.org/2000/svg">
<path d="M12 29.04C11.8133 29.68 11.4667 30.1067 10.96 30.32C10.4533 30.5333 9.92 30.56 9.36 30.4C8.82667 30.2667 8.38667 29.9867 8.04 29.56C7.72 29.1067 7.65333 28.5467 7.84 27.88C7.36 28.68 6.88 29.12 6.4 29.2C5.92 29.2533 5.6 29.0533 5.44 28.6C5.28 28.12 5.44 27.4933 5.92 26.72C5.44 27.0667 4.93333 27.1333 4.4 26.92C3.89333 26.68 3.46667 26.3067 3.12 25.8C2.77333 25.2667 2.58667 24.72 2.56 24.16C2.53333 23.6 2.76 23.1467 3.24 22.8C2.38667 23.04 1.77333 23.0667 1.4 22.88C1.05333 22.6933 0.986667 22.44 1.2 22.12C1.44 21.7733 2 21.4933 2.88 21.28C2.16 21.3067 1.61333 21.1467 1.24 20.8C0.866667 20.4533 0.653333 20.04 0.6 19.56C0.573333 19.0533 0.72 18.6 1.04 18.2C1.38667 17.8 1.92 17.5733 2.64 17.52C2.02667 17.52 1.56 17.2667 1.24 16.76C0.946667 16.2267 0.8 15.64 0.8 15C0.8 14.3333 0.96 13.7467 1.28 13.24C1.6 12.7333 2.06667 12.48 2.68 12.48C2.25333 12.32 1.97333 12 1.84 11.52C1.73333 11.04 1.73333 10.5067 1.84 9.92C1.94667 9.30667 2.14667 8.73333 2.44 8.2C2.73333 7.64 3.06667 7.21333 3.44 6.92C3.84 6.6 4.25333 6.52 4.68 6.68C4.30667 6.17333 4.2 5.66666 4.36 5.16C4.52 4.65333 4.82667 4.22666 5.28 3.88C5.73333 3.53333 6.22667 3.36 6.76 3.36C7.29333 3.33333 7.74667 3.57333 8.12 4.08C8.01333 3.52 8.10667 3.04 8.4 2.64C8.72 2.21333 9.14667 1.89333 9.68 1.68C10.2133 1.44 10.7733 1.32 11.36 1.32C11.9467 1.29333 12.4533 1.4 12.88 1.64C13.3333 1.88 13.6267 2.28 13.76 2.84C13.7867 2.17333 14.0267 1.68 14.48 1.36C14.9333 1.04 15.44 0.893331 16 0.919998C16.5867 0.946666 17.0933 1.14667 17.52 1.52C17.9467 1.86666 18.1467 2.37333 18.12 3.04C18.3333 2.45333 18.7067 2.06667 19.24 1.88C19.7733 1.66667 20.3467 1.61333 20.96 1.72C21.6 1.82667 22.1733 2.05333 22.68 2.4C23.2133 2.72 23.6 3.13333 23.84 3.64C24.1067 4.14666 24.1333 4.69333 23.92 5.28C24.3467 4.88 24.7733 4.69333 25.2 4.72C25.6267 4.74667 25.9733 4.90667 26.24 5.2C26.5333 5.49333 26.6667 5.85333 26.64 6.28C26.64 6.70667 26.4133 7.12 25.96 7.52C26.5467 7.36 27.04 7.44 27.44 7.76C27.8667 8.08 28.16 8.50667 28.32 9.04C28.48 9.54667 28.4667 10.04 28.28 10.52C28.12 11 27.7467 11.3333 27.16 11.52C27.16 12.4 27.04 12.9867 26.8 13.28C26.56 13.5733 26.32 13.5733 26.08 13.28C25.84 12.9867 25.72 12.4 25.72 11.52C25.72 12 25.52 12.3867 25.12 12.68C24.7467 12.9733 24.2667 13.1733 23.68 13.28C23.12 13.36 22.5467 13.36 21.96 13.28C21.4 13.1733 20.92 12.9733 20.52 12.68C20.1467 12.3867 19.96 12 19.96 11.52C19.4267 12.08 18.9467 12.3333 18.52 12.28C18.0933 12.2 17.84 11.9467 17.76 11.52C17.7067 11.0933 17.9467 10.6133 18.48 10.08C17.8667 10.7733 17.2933 11.1067 16.76 11.08C16.2533 11.0267 15.96 10.76 15.88 10.28C15.64 10.5467 15.4133 10.5733 15.2 10.36C14.96 10.8667 14.5867 11.32 14.08 11.72C13.6 12.0933 13.08 12.32 12.52 12.4C12.9733 12.8267 13.0267 13.3067 12.68 13.84C12.36 14.3733 11.68 14.6133 10.64 14.56C11.5467 14.5867 12.1467 14.7333 12.44 15C12.7333 15.2667 12.7333 15.5333 12.44 15.8C12.1467 16.0667 11.5467 16.2 10.64 16.2C11.4933 16.1733 12.1067 16.32 12.48 16.64C12.8533 16.9333 12.9733 17.2667 12.84 17.64C12.7067 18.0133 12.32 18.2933 11.68 18.48C12.32 18.56 12.84 18.9333 13.24 19.6C13.6667 20.2667 13.8533 20.92 13.8 21.56C13.96 21.5333 14.0933 21.6 14.2 21.76C14.4933 21.2267 14.9333 20.8267 15.52 20.56C16.1333 20.2667 16.7333 20.1733 17.32 20.28C17.9333 20.3867 18.4133 20.76 18.76 21.4C18.6267 20.84 18.7067 20.3733 19 20C19.32 19.6267 19.72 19.3867 20.2 19.28C20.7067 19.1467 21.1867 19.1733 21.64 19.36C22.0933 19.5467 22.3867 19.92 22.52 20.48C22.52 19.7067 22.72 19.12 23.12 18.72C23.52 18.32 23.9867 18.12 24.52 18.12C25.0533 18.12 25.52 18.32 25.92 18.72C26.32 19.12 26.52 19.7067 26.52 20.48C27.2667 20.4 27.7867 20.5467 28.08 20.92C28.3733 21.2933 28.4133 21.6933 28.2 22.12C27.9867 22.52 27.4933 22.7467 26.72 22.8C27.2533 23.1467 27.5333 23.5733 27.56 24.08C27.6133 24.56 27.4933 25.0267 27.2 25.48C26.9067 25.9067 26.52 26.2133 26.04 26.4C25.5867 26.56 25.1067 26.4667 24.6 26.12C24.8667 26.6533 24.84 27.1867 24.52 27.72C24.2 28.2267 23.7333 28.64 23.12 28.96C22.5067 29.28 21.8933 29.4267 21.28 29.4C20.6667 29.3733 20.2267 29.0933 19.96 28.56C20.12 29.36 20.08 29.92 19.84 30.24C19.6267 30.56 19.3467 30.6133 19 30.4C18.6533 30.2133 18.4 29.7333 18.24 28.96C18.2933 29.8933 18.0133 30.5333 17.4 30.88C16.7867 31.2267 15.9867 31.2533 15 30.96C14.04 30.6667 13.04 30.0267 12 29.04ZM39.5359 28.84C39.2959 29.3467 38.9226 29.68 38.4159 29.84C37.9359 29.9733 37.4026 29.9733 36.8159 29.84C36.2559 29.68 35.7359 29.44 35.2559 29.12C34.7759 28.7733 34.4159 28.36 34.1759 27.88C33.9626 27.4 33.9759 26.9067 34.2159 26.4C33.6826 26.7733 33.1759 26.9067 32.6959 26.8C32.2159 26.6667 31.8293 26.4 31.5359 26C31.2426 25.5733 31.1093 25.12 31.1359 24.64C31.1893 24.1333 31.4826 23.6933 32.0159 23.32C31.5093 23.3733 31.0693 23.2267 30.6959 22.88C30.3493 22.5067 30.0826 22.0267 29.8959 21.44C29.7093 20.8533 29.6159 20.2533 29.6159 19.64C29.6426 19.0267 29.7759 18.4933 30.0159 18.04C30.2826 17.5867 30.6693 17.3333 31.1759 17.28C30.5626 17.2533 30.0826 17.0267 29.7359 16.6C29.3893 16.1467 29.1626 15.6133 29.0559 15C28.9759 14.36 29.0026 13.7333 29.1359 13.12C29.2959 12.5067 29.5626 12 29.9359 11.6C30.3093 11.2 30.7893 11 31.3759 11C31.0026 10.8133 30.7893 10.4933 30.7359 10.04C30.7093 9.58667 30.7893 9.09333 30.9759 8.56C31.1626 8.02667 31.4159 7.53333 31.7359 7.08C32.0826 6.6 32.4559 6.25333 32.8559 6.04C33.2559 5.8 33.6293 5.77333 33.9759 5.96C33.4693 5.29333 33.2693 4.74667 33.3759 4.32C33.4826 3.89333 33.7626 3.68 34.2159 3.68C34.6693 3.68 35.1493 4.01333 35.6559 4.68C35.3626 3.93333 35.3093 3.30667 35.4959 2.8C35.6826 2.29333 36.0026 1.96 36.4559 1.8C36.9093 1.61333 37.3759 1.64 37.8559 1.88C38.3626 2.09333 38.7626 2.56 39.0559 3.28C38.9759 2.64 39.0693 2.13333 39.3359 1.76C39.6026 1.38667 39.9493 1.17333 40.3759 1.12C40.8026 1.06666 41.1893 1.18666 41.5359 1.48C41.9093 1.74667 42.1493 2.2 42.2559 2.84C42.3093 2.22667 42.5759 1.77333 43.0559 1.48C43.5626 1.16 44.1359 0.973332 44.7759 0.919998C45.4426 0.866665 46.0959 0.946666 46.7359 1.16C47.3759 1.34667 47.8959 1.65333 48.2959 2.08C48.6959 2.48 48.8559 2.98667 48.7759 3.6C49.1759 2.69333 49.6293 2.17333 50.1359 2.04C50.6426 1.90666 51.0026 2.08 51.2159 2.56C51.4559 3.01333 51.3759 3.69333 50.9759 4.6C51.5626 3.8 52.0959 3.37333 52.5759 3.32C53.0559 3.26667 53.3359 3.48 53.4159 3.96C53.4959 4.41333 53.2426 5.04 52.6559 5.84C53.2426 5.38666 53.7759 5.18667 54.2559 5.24C54.7626 5.26667 55.1359 5.45333 55.3759 5.8C55.6426 6.12 55.7226 6.52 55.6159 7C55.5093 7.48 55.1493 7.94667 54.5359 8.4C55.1226 8.21333 55.6026 8.22666 55.9759 8.44C56.3493 8.62667 56.5893 8.90667 56.6959 9.28C56.8026 9.62667 56.7493 9.98667 56.5359 10.36C56.3493 10.7067 55.9626 10.9733 55.3759 11.16C55.8826 11.1333 56.2826 11.32 56.5759 11.72C56.8959 12.0933 57.1093 12.5733 57.2159 13.16C57.3493 13.72 57.3759 14.2933 57.2959 14.88C57.2159 15.4667 57.0293 15.96 56.7359 16.36C56.4693 16.76 56.0826 16.9733 55.5759 17C56.5626 17 57.2159 17.1867 57.5359 17.56C57.8559 17.9067 57.8426 18.2533 57.4959 18.6C57.1759 18.9467 56.5226 19.1067 55.5359 19.08C56.1759 19.1867 56.6159 19.4933 56.8559 20C57.0959 20.48 57.1626 21 57.0559 21.56C56.9493 22.12 56.6959 22.5867 56.2959 22.96C55.8959 23.3067 55.3759 23.4133 54.7359 23.28C55.0559 23.5733 55.1759 23.96 55.0959 24.44C55.0159 24.92 54.8026 25.4133 54.4559 25.92C54.1093 26.4 53.6959 26.8267 53.2159 27.2C52.7626 27.5733 52.3093 27.8267 51.8559 27.96C51.4026 28.0667 51.0159 27.9733 50.6959 27.68C50.8559 28.2933 50.7093 28.8267 50.2559 29.28C49.8293 29.7333 49.2693 30.0533 48.5759 30.24C47.8826 30.4267 47.2293 30.44 46.6159 30.28C46.0026 30.12 45.6159 29.7333 45.4559 29.12C45.5359 30.5867 45.0693 31.32 44.0559 31.32C43.0426 31.32 41.5359 30.4933 39.5359 28.84ZM46.1359 22.88C45.5226 22.6133 45.1893 22.2133 45.1359 21.68C45.1093 21.12 45.2559 20.6267 45.5759 20.2C45.9226 19.7467 46.3759 19.5333 46.9359 19.56C46.5893 19.3733 46.3359 19.0533 46.1759 18.6C46.0426 18.1467 46.0026 17.6667 46.0559 17.16C46.1093 16.6533 46.2559 16.2267 46.4959 15.88C46.7626 15.5067 47.1226 15.32 47.5759 15.32C47.0426 15.3467 46.6426 15.1333 46.3759 14.68C46.1093 14.2 46.0026 13.68 46.0559 13.12C46.1359 12.5333 46.3626 12.0933 46.7359 11.8C46.2293 11.8533 45.7893 11.6533 45.4159 11.2C45.0426 10.7467 44.9093 10.28 45.0159 9.8C44.6959 9.98667 44.3626 10.04 44.0159 9.96C43.6959 9.85333 43.4426 9.64 43.2559 9.32C43.1493 9.77333 42.8826 10.12 42.4559 10.36C42.0293 10.5733 41.6026 10.6133 41.1759 10.48C41.3093 10.8533 41.3226 11.2533 41.2159 11.68C41.1093 12.1067 40.9093 12.4667 40.6159 12.76C40.3226 13.0533 39.9626 13.2 39.5359 13.2C39.9093 13.3067 40.1759 13.5333 40.3359 13.88C40.5226 14.2267 40.5893 14.6133 40.5359 15.04C40.5093 15.44 40.3759 15.7867 40.1359 16.08C39.9226 16.3733 39.6026 16.52 39.1759 16.52C39.7359 16.4933 40.1093 16.5733 40.2959 16.76C40.4826 16.9467 40.4826 17.1467 40.2959 17.36C40.1093 17.5467 39.7359 17.64 39.1759 17.64C39.8159 17.6133 40.2693 17.7733 40.5359 18.12C40.8293 18.44 40.9359 18.8133 40.8559 19.24C40.8026 19.6667 40.5626 20 40.1359 20.24C40.5893 20.2933 41.0159 20.56 41.4159 21.04C41.8159 21.52 42.0293 22.0133 42.0559 22.52C42.4293 22.12 42.9626 21.9867 43.6559 22.12C44.3759 22.2267 45.2026 22.48 46.1359 22.88ZM60.8234 27.48C59.8101 27.48 59.1301 27.2933 58.7834 26.92C58.4368 26.5467 58.4368 26.1733 58.7834 25.8C59.1301 25.4267 59.8101 25.24 60.8234 25.24C60.1034 25.24 59.5568 25 59.1834 24.52C58.8101 24.04 58.6234 23.4933 58.6234 22.88C58.6234 22.24 58.8101 21.68 59.1834 21.2C59.5568 20.72 60.1034 20.48 60.8234 20.48C60.0501 20.48 59.4634 20.2667 59.0634 19.84C58.6901 19.4133 58.5034 18.9333 58.5034 18.4C58.5034 17.84 58.6901 17.36 59.0634 16.96C59.4634 16.5333 60.0501 16.32 60.8234 16.32C60.1301 16.32 59.6101 16.1333 59.2634 15.76C58.9168 15.3867 58.7434 14.96 58.7434 14.48C58.7434 14 58.9168 13.5733 59.2634 13.2C59.6101 12.8267 60.1301 12.64 60.8234 12.64C60.0501 12.64 59.4634 12.44 59.0634 12.04C58.6901 11.64 58.5034 11.1867 58.5034 10.68C58.5034 10.1467 58.6901 9.68 59.0634 9.28C59.4634 8.88 60.0501 8.68 60.8234 8.68C60.1834 8.68 59.6901 8.45333 59.3434 8C59.0234 7.54667 58.8634 7.02667 58.8634 6.44C58.8634 5.85333 59.0234 5.33333 59.3434 4.88C59.6901 4.42667 60.1834 4.2 60.8234 4.2C60.6634 3.61333 60.7301 3.13333 61.0234 2.76C61.3168 2.38666 61.7034 2.13333 62.1834 2C62.6634 1.86666 63.1301 1.89333 63.5834 2.08C64.0368 2.26667 64.3434 2.64 64.5034 3.2C64.5034 2.21333 64.6501 1.56 64.9434 1.24C65.2368 0.893331 65.5168 0.893331 65.7834 1.24C66.0768 1.56 66.2234 2.21333 66.2234 3.2C66.6234 2.72 67.0368 2.46667 67.4634 2.44C67.9168 2.38667 68.2901 2.49333 68.5834 2.76C68.9034 3.02667 69.0901 3.38667 69.1434 3.84C69.1968 4.26667 69.0234 4.72 68.6234 5.2C69.2101 4.82667 69.7168 4.68 70.1434 4.76C70.5701 4.81333 70.8768 5 71.0634 5.32C71.2768 5.64 71.3168 6.01333 71.1834 6.44C71.0501 6.86667 70.6901 7.25333 70.1034 7.6C70.6101 7.30667 71.1034 7.28 71.5834 7.52C72.0634 7.73333 72.4501 8.09333 72.7434 8.6C73.0634 9.08 73.2101 9.58667 73.1834 10.12C73.1568 10.6533 72.9034 11.08 72.4234 11.4C72.7434 11.1867 73.0634 11.12 73.3834 11.2C73.7301 11.28 74.0234 11.44 74.2634 11.68C74.5834 11.4667 74.9301 11.4 75.3034 11.48C75.0901 11.0267 75.0901 10.5467 75.3034 10.04C75.5434 9.50667 75.9834 9.24 76.6234 9.24C75.7701 9.24 75.1968 9.06667 74.9034 8.72C74.6368 8.34667 74.6368 7.97333 74.9034 7.6C75.1968 7.22667 75.7701 7.04 76.6234 7.04C75.8768 7.04 75.3834 6.86667 75.1434 6.52C74.9034 6.17333 74.9034 5.82667 75.1434 5.48C75.3834 5.13333 75.8768 4.96 76.6234 4.96C76.3301 4.42667 76.2768 3.93333 76.4634 3.48C76.6768 3.02667 76.9968 2.69333 77.4234 2.48C77.8768 2.24 78.3434 2.17333 78.8234 2.28C79.3034 2.36 79.6901 2.66666 79.9834 3.2C80.0901 2.53333 80.3568 2.06666 80.7834 1.8C81.2368 1.50667 81.7034 1.41333 82.1834 1.52C82.6634 1.6 83.0501 1.84 83.3434 2.24C83.6634 2.64 83.7568 3.18667 83.6234 3.88C84.1568 3.88 84.5834 4.08 84.9034 4.48C85.2501 4.85333 85.4768 5.33333 85.5834 5.92C85.6901 6.48 85.6901 7.04 85.5834 7.6C85.4768 8.16 85.2501 8.64 84.9034 9.04C84.5834 9.41333 84.1568 9.6 83.6234 9.6C84.3168 9.6 84.8368 9.85333 85.1834 10.36C85.5568 10.84 85.7434 11.4 85.7434 12.04C85.7434 12.6533 85.5568 13.2 85.1834 13.68C84.8368 14.16 84.3168 14.4 83.6234 14.4C84.2634 14.4 84.7434 14.5467 85.0634 14.84C85.4101 15.1333 85.5834 15.4667 85.5834 15.84C85.5834 16.2133 85.4101 16.5467 85.0634 16.84C84.7434 17.1333 84.2634 17.28 83.6234 17.28C84.2368 17.28 84.7168 17.4667 85.0634 17.84C85.4368 18.2133 85.6768 18.68 85.7834 19.24C85.9168 19.8 85.9168 20.36 85.7834 20.92C85.6768 21.4533 85.4368 21.9067 85.0634 22.28C84.7168 22.6533 84.2368 22.84 83.6234 22.84C84.5834 22.84 85.2234 22.9733 85.5434 23.24C85.8634 23.5067 85.8634 23.7733 85.5434 24.04C85.2234 24.3067 84.5834 24.44 83.6234 24.44C84.3968 24.44 84.9701 24.6267 85.3434 25C85.7168 25.3467 85.9034 25.76 85.9034 26.24C85.9034 26.6933 85.7168 27.0933 85.3434 27.44C84.9701 27.7867 84.3968 27.96 83.6234 27.96C83.8901 28.7067 83.8768 29.28 83.5834 29.68C83.3168 30.0533 82.9434 30.1867 82.4634 30.08C82.0101 29.9733 81.6501 29.5467 81.3834 28.8C81.2501 29.36 80.8901 29.72 80.3034 29.88C79.7168 30.0133 79.0901 30.0133 78.4234 29.88C77.7568 29.72 77.1968 29.44 76.7434 29.04C76.2901 28.64 76.1301 28.16 76.2634 27.6C75.5168 28.08 74.9301 28.28 74.5034 28.2C74.1034 28.0933 73.9301 27.8267 73.9834 27.4C74.0634 26.9733 74.4634 26.5067 75.1834 26C74.5434 26.4267 73.9701 26.6 73.4634 26.52C72.9568 26.44 72.5701 26.2133 72.3034 25.84C72.0634 25.44 71.9968 24.9867 72.1034 24.48C72.2368 23.9733 72.6234 23.52 73.2634 23.12C72.7568 23.44 72.2101 23.4267 71.6234 23.08C71.0368 22.7333 70.5701 22.2533 70.2234 21.64C69.8501 21.88 69.4368 21.9467 68.9834 21.84C69.2501 22.24 69.4234 22.7333 69.5034 23.32C69.5834 23.9067 69.5701 24.4933 69.4634 25.08C69.3834 25.6667 69.1968 26.16 68.9034 26.56C68.6368 26.96 68.2768 27.16 67.8234 27.16C68.3568 27.5333 68.6234 27.92 68.6234 28.32C68.6234 28.72 68.4368 29 68.0634 29.16C67.6901 29.2933 67.2368 29.1733 66.7034 28.8C66.7034 29.44 66.5434 29.92 66.2234 30.24C65.9034 30.5867 65.5301 30.76 65.1034 30.76C64.7034 30.76 64.3434 30.5867 64.0234 30.24C63.7034 29.92 63.5434 29.44 63.5434 28.8C63.5434 29.4667 63.3968 29.96 63.1034 30.28C62.8368 30.6267 62.5168 30.76 62.1434 30.68C61.7701 30.6 61.4501 30.3067 61.1834 29.8C60.9168 29.2667 60.7968 28.4933 60.8234 27.48ZM88.7928 10.08C88.4461 10.0267 88.2061 9.8 88.0728 9.4C87.9395 8.97333 87.8728 8.48 87.8728 7.92C87.8995 7.33333 87.9928 6.77333 88.1528 6.24C88.3128 5.68 88.5128 5.22667 88.7528 4.88C89.0195 4.53333 89.3261 4.38667 89.6728 4.44C89.5128 4.06666 89.6061 3.70667 89.9528 3.36C90.3261 2.98667 90.7928 2.68 91.3528 2.44C91.9128 2.2 92.4328 2.08 92.9128 2.08C93.4195 2.08 93.7528 2.25333 93.9128 2.6C94.1261 2.2 94.3928 1.96 94.7128 1.88C95.0595 1.8 95.3928 1.84 95.7128 2C96.0328 2.16 96.2595 2.4 96.3928 2.72C96.5528 3.04 96.5261 3.4 96.3128 3.8C96.8461 4.01333 97.1528 4.41333 97.2328 5C97.3128 5.58667 97.2195 6.18666 96.9528 6.8C96.7128 7.41333 96.3661 7.90667 95.9128 8.28C95.4861 8.65333 95.0061 8.73333 94.4728 8.52C94.7928 8.73333 94.8995 9.10667 94.7928 9.64C94.6861 10.1467 94.4595 10.68 94.1128 11.24C93.7661 11.8 93.3795 12.24 92.9528 12.56C92.5261 12.88 92.1395 12.9333 91.7928 12.72C91.7928 13.2 91.6195 13.5467 91.2728 13.76C90.9261 13.9733 90.5261 14.0133 90.0728 13.88C89.6461 13.72 89.2861 13.3333 88.9928 12.72C88.7261 12.1067 88.6595 11.2267 88.7928 10.08ZM107.678 29C107.545 29.5867 107.251 29.9733 106.798 30.16C106.345 30.3733 105.865 30.4133 105.358 30.28C104.878 30.1733 104.478 29.9333 104.158 29.56C103.865 29.16 103.798 28.6667 103.958 28.08C103.611 28.5867 103.171 28.8533 102.638 28.88C102.105 28.88 101.598 28.72 101.118 28.4C100.665 28.08 100.331 27.68 100.118 27.2C99.9315 26.6933 100.011 26.1867 100.358 25.68C99.8248 25.9733 99.3581 26.0667 98.9581 25.96C98.5581 25.8267 98.2648 25.6 98.0781 25.28C97.8915 24.9333 97.8648 24.5733 97.9981 24.2C98.1315 23.8 98.4648 23.4533 98.9981 23.16C98.8381 22.6 98.8781 22.1467 99.1181 21.8C99.3848 21.4267 99.7315 21.1733 100.158 21.04C100.585 20.9067 100.998 20.9333 101.398 21.12C101.825 21.3067 102.118 21.6667 102.278 22.2C102.385 21.64 102.731 21.2667 103.318 21.08C103.905 20.8933 104.558 20.8533 105.278 20.96C105.998 21.0667 106.625 21.2933 107.158 21.64C107.718 21.9867 108.025 22.44 108.078 23C108.158 22.5467 108.411 22.1867 108.838 21.92C109.265 21.6533 109.771 21.48 110.358 21.4C110.945 21.32 111.505 21.3333 112.038 21.44C112.011 21.12 112.118 20.8 112.358 20.48C112.118 20.2133 112.065 19.84 112.198 19.36C111.958 19.8667 111.505 20.1867 110.838 20.32C110.198 20.4533 109.518 20.44 108.798 20.28C108.078 20.12 107.465 19.84 106.958 19.44C106.478 19.04 106.291 18.5467 106.398 17.96C106.185 18.4933 105.798 18.8133 105.238 18.92C104.705 19 104.158 18.92 103.598 18.68C103.038 18.44 102.598 18.0933 102.278 17.64C101.958 17.1867 101.918 16.7067 102.158 16.2C101.678 16.5467 101.198 16.6667 100.718 16.56C100.238 16.4267 99.8515 16.16 99.5581 15.76C99.2648 15.36 99.1181 14.92 99.1181 14.44C99.1181 13.96 99.3581 13.5333 99.8381 13.16C99.1715 13.24 98.6515 13.16 98.2781 12.92C97.9315 12.68 97.7315 12.3867 97.6781 12.04C97.6248 11.6667 97.7448 11.32 98.0381 11C98.3315 10.6533 98.8115 10.44 99.4781 10.36C98.7581 10.1733 98.2381 9.90667 97.9181 9.56C97.6248 9.18667 97.5181 8.82667 97.5981 8.48C97.7048 8.13333 97.9715 7.88 98.3981 7.72C98.8515 7.53333 99.4381 7.54667 100.158 7.76C99.5715 7.30667 99.2248 6.85333 99.1181 6.4C99.0115 5.92 99.0648 5.53333 99.2781 5.24C99.5181 4.94666 99.8648 4.8 100.318 4.8C100.798 4.8 101.331 5.02666 101.918 5.48C101.598 4.94667 101.478 4.46667 101.558 4.04C101.638 3.61333 101.838 3.30667 102.158 3.12C102.478 2.90667 102.838 2.86667 103.238 3C103.665 3.10667 104.038 3.42667 104.358 3.96C104.225 3.37333 104.305 2.89333 104.598 2.52C104.918 2.12 105.331 1.85333 105.838 1.72C106.345 1.58667 106.825 1.61333 107.278 1.8C107.758 1.98667 108.078 2.36 108.238 2.92C108.265 2.36 108.478 1.92 108.878 1.6C109.278 1.25333 109.758 1.04 110.318 0.96C110.905 0.853333 111.478 0.879999 112.038 1.04C112.625 1.17333 113.091 1.42666 113.438 1.8C113.811 2.14667 113.985 2.61333 113.958 3.2C114.225 2.66666 114.611 2.33333 115.118 2.2C115.625 2.06666 116.171 2.08 116.758 2.24C117.371 2.37333 117.918 2.62667 118.398 3C118.905 3.34666 119.265 3.77333 119.478 4.28C119.718 4.76 119.718 5.25333 119.478 5.76C119.905 5.52 120.345 5.52 120.798 5.76C121.251 6 121.625 6.37333 121.918 6.88C122.211 7.38667 122.358 7.89333 122.358 8.4C122.358 8.90667 122.145 9.29333 121.718 9.56C121.718 10.0933 121.451 10.4933 120.918 10.76C120.411 11.0267 119.825 11.16 119.158 11.16C118.491 11.16 117.891 11.0267 117.358 10.76C116.851 10.4933 116.598 10.0933 116.598 9.56C116.491 10.0667 116.211 10.4 115.758 10.56C115.305 10.72 114.811 10.76 114.278 10.68C113.745 10.5733 113.278 10.36 112.878 10.04C112.505 9.72 112.331 9.32 112.358 8.84C112.278 9.26667 112.038 9.57333 111.638 9.76C111.265 9.94667 110.865 10.0133 110.438 9.96C110.545 10.6533 110.331 11.2267 109.798 11.68C109.825 11.8667 109.798 12.08 109.718 12.32C110.011 11.92 110.491 11.68 111.158 11.6C111.851 11.4933 112.558 11.5333 113.278 11.72C114.025 11.88 114.638 12.16 115.118 12.56C115.598 12.9333 115.798 13.3867 115.718 13.92C115.905 13.44 116.265 13.1733 116.798 13.12C117.358 13.04 117.945 13.12 118.558 13.36C119.171 13.5733 119.665 13.8933 120.038 14.32C120.438 14.7467 120.545 15.1867 120.358 15.64C120.811 15.3733 121.265 15.3733 121.718 15.64C122.198 15.9067 122.598 16.3067 122.918 16.84C123.238 17.3733 123.398 17.92 123.398 18.48C123.425 19.0133 123.211 19.4133 122.758 19.68C123.345 19.76 123.745 20.0533 123.958 20.56C124.198 21.0667 124.265 21.6133 124.158 22.2C124.078 22.7867 123.851 23.28 123.478 23.68C123.131 24.08 122.651 24.24 122.038 24.16C122.358 24.5333 122.451 24.9733 122.318 25.48C122.211 25.96 121.958 26.44 121.558 26.92C121.158 27.3733 120.691 27.76 120.158 28.08C119.625 28.3733 119.105 28.5467 118.598 28.6C118.091 28.6267 117.678 28.44 117.358 28.04C117.491 28.6533 117.358 29.16 116.958 29.56C116.558 29.96 116.038 30.2267 115.398 30.36C114.785 30.52 114.211 30.4933 113.678 30.28C113.145 30.0933 112.811 29.7067 112.678 29.12C112.731 30.4 112.305 31.04 111.398 31.04C110.518 31.0667 109.278 30.3867 107.678 29ZM127.369 24.92C126.729 24.92 126.235 24.7067 125.889 24.28C125.569 23.8267 125.409 23.3067 125.409 22.72C125.409 22.1067 125.569 21.5867 125.889 21.16C126.235 20.7067 126.729 20.48 127.369 20.48C126.729 20.48 126.249 20.3067 125.929 19.96C125.635 19.6133 125.489 19.2267 125.489 18.8C125.489 18.3467 125.635 17.96 125.929 17.64C126.249 17.2933 126.729 17.12 127.369 17.12C126.382 17.12 125.715 16.92 125.369 16.52C125.049 16.12 125.049 15.72 125.369 15.32C125.715 14.92 126.382 14.72 127.369 14.72C126.702 14.72 126.195 14.56 125.849 14.24C125.502 13.92 125.329 13.5467 125.329 13.12C125.329 12.6933 125.502 12.32 125.849 12C126.195 11.68 126.702 11.52 127.369 11.52C126.622 11.52 126.062 11.28 125.689 10.8C125.342 10.32 125.169 9.77333 125.169 9.16C125.169 8.52 125.342 7.96 125.689 7.48C126.062 7 126.622 6.76 127.369 6.76C126.862 6.6 126.542 6.30667 126.409 5.88C126.302 5.42667 126.315 4.97333 126.449 4.52C126.609 4.04 126.862 3.66667 127.209 3.4C127.582 3.10666 128.022 3.04 128.529 3.2C128.529 2.37333 128.675 1.82667 128.969 1.56C129.262 1.29333 129.555 1.29333 129.849 1.56C130.142 1.82667 130.289 2.37333 130.289 3.2C130.289 2.72 130.489 2.33333 130.889 2.04C131.289 1.74666 131.782 1.56 132.369 1.48C132.982 1.37333 133.582 1.37333 134.169 1.48C134.782 1.56 135.289 1.74666 135.689 2.04C136.115 2.33333 136.329 2.72 136.329 3.2C136.329 2.34667 136.529 1.78667 136.929 1.52C137.355 1.22667 137.782 1.22667 138.209 1.52C138.635 1.78667 138.849 2.34667 138.849 3.2C138.849 2.48 139.022 1.94667 139.369 1.6C139.715 1.25333 140.102 1.08 140.529 1.08C140.982 1.08 141.369 1.25333 141.689 1.6C142.035 1.94667 142.209 2.48 142.209 3.2C142.209 2.72 142.395 2.33333 142.769 2.04C143.142 1.74666 143.595 1.56 144.129 1.48C144.689 1.37333 145.249 1.37333 145.809 1.48C146.369 1.56 146.835 1.74666 147.209 2.04C147.582 2.33333 147.769 2.72 147.769 3.2C148.569 3.28 149.089 3.45333 149.329 3.72C149.595 3.96 149.582 4.2 149.289 4.44C148.995 4.65333 148.449 4.72 147.649 4.64C148.342 4.72 148.849 4.97333 149.169 5.4C149.489 5.82667 149.622 6.30666 149.569 6.84C149.515 7.34667 149.289 7.78667 148.889 8.16C148.515 8.50667 147.982 8.65333 147.289 8.6C147.289 9.45333 147.142 10.0267 146.849 10.32C146.555 10.5867 146.262 10.5867 145.969 10.32C145.675 10.0267 145.529 9.45333 145.529 8.6C145.529 9.4 145.315 9.94667 144.889 10.24C144.489 10.5067 144.075 10.5067 143.649 10.24C143.222 9.94667 143.009 9.4 143.009 8.6C143.009 9 142.809 9.32 142.409 9.56C142.009 9.8 141.515 9.94667 140.929 10C140.369 10.0533 139.809 10.04 139.249 9.96C138.689 9.85333 138.262 9.65333 137.969 9.36C138.022 9.68 137.995 9.98667 137.889 10.28C137.782 10.5733 137.609 10.8267 137.369 11.04C137.689 11.2533 137.942 11.52 138.129 11.84C138.342 12.1333 138.462 12.4533 138.489 12.8C138.702 12.48 139.022 12.2667 139.449 12.16C139.875 12.0267 140.315 11.9867 140.769 12.04C141.222 12.0933 141.609 12.2533 141.929 12.52C142.249 12.76 142.409 13.0933 142.409 13.52C142.409 12.9333 142.555 12.4933 142.849 12.2C143.169 11.9067 143.529 11.76 143.929 11.76C144.329 11.76 144.675 11.9067 144.969 12.2C145.289 12.4933 145.449 12.9333 145.449 13.52C145.769 12.6933 146.089 12.1867 146.409 12C146.729 11.8133 146.942 11.9067 147.049 12.28C147.182 12.6267 147.089 13.2133 146.769 14.04C147.515 14.0933 148.049 14.36 148.369 14.84C148.715 15.32 148.862 15.8533 148.809 16.44C148.755 17.0267 148.529 17.5333 148.129 17.96C147.729 18.36 147.155 18.5333 146.409 18.48C146.409 18.88 146.209 19.2 145.809 19.44C145.435 19.68 144.955 19.84 144.369 19.92C143.809 20 143.235 20 142.649 19.92C142.089 19.84 141.609 19.68 141.209 19.44C140.835 19.2 140.649 18.88 140.649 18.48C140.649 19.0133 140.449 19.4 140.049 19.64C139.649 19.88 139.209 19.9733 138.729 19.92C138.275 19.8667 137.929 19.6533 137.689 19.28C137.662 19.6 137.555 19.88 137.369 20.12C137.209 20.36 137.009 20.5467 136.769 20.68C137.062 20.9467 137.195 21.2667 137.169 21.64C137.489 21.72 137.769 21.9067 138.009 22.2C138.249 22.4933 138.369 22.8933 138.369 23.4C138.369 22.92 138.622 22.56 139.129 22.32C139.662 22.0533 140.262 21.92 140.929 21.92C141.595 21.92 142.182 22.0533 142.689 22.32C143.222 22.56 143.489 22.92 143.489 23.4C143.489 22.5733 143.689 22.0267 144.089 21.76C144.489 21.4933 144.875 21.4933 145.249 21.76C145.649 22.0267 145.849 22.5733 145.849 23.4C146.222 22.8667 146.649 22.6267 147.129 22.68C147.609 22.7333 147.955 22.9733 148.169 23.4C148.409 23.8267 148.342 24.3067 147.969 24.84C148.529 25.0533 148.875 25.4133 149.009 25.92C149.142 26.4267 149.115 26.9467 148.929 27.48C148.742 27.9867 148.422 28.3867 147.969 28.68C147.542 28.9733 147.049 29.0133 146.489 28.8C146.489 29.52 146.329 30.0533 146.009 30.4C145.715 30.7733 145.369 30.96 144.969 30.96C144.569 30.96 144.222 30.7733 143.929 30.4C143.635 30.0533 143.489 29.52 143.489 28.8C143.489 29.5467 143.262 30.0933 142.809 30.44C142.382 30.8133 141.889 31 141.329 31C140.769 31 140.262 30.8133 139.809 30.44C139.382 30.0933 139.169 29.5467 139.169 28.8C139.169 29.4667 138.995 29.96 138.649 30.28C138.302 30.6267 137.889 30.8 137.409 30.8C136.955 30.8 136.555 30.6267 136.209 30.28C135.862 29.96 135.689 29.4667 135.689 28.8C135.689 29.5733 135.462 30.1467 135.009 30.52C134.582 30.92 134.089 31.12 133.529 31.12C132.969 31.12 132.462 30.92 132.009 30.52C131.582 30.1467 131.369 29.5733 131.369 28.8C131.369 29.4667 131.155 29.9333 130.729 30.2C130.329 30.4933 129.862 30.52 129.329 30.28C128.795 30.0667 128.329 29.5333 127.929 28.68C127.529 27.8 127.342 26.5467 127.369 24.92ZM152.048 26.24C151.142 25.92 150.568 25.5867 150.328 25.24C150.115 24.8667 150.208 24.6133 150.608 24.48C151.008 24.32 151.662 24.4 152.568 24.72C151.902 24.48 151.462 24.1333 151.248 23.68C151.035 23.2 151.008 22.7333 151.168 22.28C151.328 21.8267 151.635 21.4933 152.088 21.28C152.542 21.04 153.115 21.04 153.808 21.28C153.115 21.04 152.675 20.6133 152.488 20C152.328 19.3867 152.355 18.7733 152.568 18.16C152.782 17.52 153.142 17.0133 153.648 16.64C154.182 16.2667 154.795 16.2 155.488 16.44C154.875 16.2267 154.488 15.8667 154.328 15.36C154.195 14.8267 154.222 14.28 154.408 13.72C154.595 13.16 154.915 12.72 155.368 12.4C155.822 12.08 156.355 12.0267 156.968 12.24C156.382 12.0267 156.022 11.6267 155.888 11.04C155.782 10.4267 155.835 9.8 156.048 9.16C156.288 8.49333 156.635 7.96 157.088 7.56C157.568 7.16 158.102 7.06667 158.688 7.28C158.262 7.01333 158.048 6.61333 158.048 6.08C158.075 5.54667 158.248 5.01333 158.568 4.48C158.888 3.92 159.275 3.50667 159.728 3.24C160.182 2.94667 160.635 2.93333 161.088 3.2C161.088 2.24 161.248 1.61333 161.568 1.32C161.888 0.999999 162.195 0.999999 162.488 1.32C162.808 1.61333 162.968 2.24 162.968 3.2C162.968 2.64 163.168 2.2 163.568 1.88C163.968 1.53333 164.462 1.30667 165.048 1.2C165.662 1.09333 166.262 1.09333 166.848 1.2C167.462 1.30667 167.968 1.53333 168.368 1.88C168.768 2.2 168.968 2.64 168.968 3.2C169.528 2.85333 170.035 2.73333 170.488 2.84C170.968 2.94667 171.328 3.18667 171.568 3.56C171.808 3.93333 171.875 4.36 171.768 4.84C171.688 5.29333 171.355 5.70666 170.768 6.08C171.435 5.84 172.008 5.92 172.488 6.32C172.995 6.69333 173.368 7.21333 173.608 7.88C173.848 8.52 173.888 9.14666 173.728 9.76C173.568 10.3733 173.168 10.8 172.528 11.04C173.382 10.72 174.022 10.72 174.448 11.04C174.875 11.3333 175.008 11.7333 174.848 12.24C174.715 12.7467 174.222 13.1467 173.368 13.44C174.115 13.1733 174.662 13.1333 175.008 13.32C175.355 13.5067 175.448 13.7867 175.288 14.16C175.155 14.5067 174.702 14.8133 173.928 15.08C174.728 14.8133 175.315 14.8 175.688 15.04C176.062 15.2533 176.168 15.5733 176.008 16C175.875 16.4 175.408 16.7467 174.608 17.04C175.088 16.88 175.528 16.9467 175.928 17.24C176.355 17.5067 176.715 17.9067 177.008 18.44C177.302 18.9733 177.502 19.5467 177.608 20.16C177.715 20.7467 177.688 21.28 177.528 21.76C177.395 22.24 177.088 22.5733 176.608 22.76C177.142 22.5733 177.622 22.6 178.048 22.84C178.475 23.08 178.835 23.4533 179.128 23.96C179.422 24.44 179.608 24.96 179.688 25.52C179.768 26.08 179.715 26.5867 179.528 27.04C179.342 27.4933 178.982 27.8133 178.448 28C178.688 28.64 178.648 29.1333 178.328 29.48C178.035 29.8267 177.662 29.96 177.208 29.88C176.755 29.8 176.408 29.44 176.168 28.8C176.168 29.52 176.008 30.0533 175.688 30.4C175.368 30.7733 174.995 30.96 174.568 30.96C174.168 30.96 173.808 30.7733 173.488 30.4C173.168 30.0533 173.008 29.52 173.008 28.8C172.608 29.1733 172.168 29.2933 171.688 29.16C171.208 29 170.782 28.7067 170.408 28.28C170.062 27.8533 169.862 27.4 169.808 26.92C169.515 27.3467 169.168 27.5867 168.768 27.64C168.395 27.6667 168.075 27.52 167.808 27.2C167.542 26.88 167.435 26.4 167.488 25.76C167.302 26.4 166.888 26.84 166.248 27.08C165.635 27.32 164.995 27.36 164.328 27.2C163.662 27.04 163.182 26.6933 162.888 26.16C162.942 26.8267 162.728 27.3333 162.248 27.68C161.795 28.0267 161.262 28.1467 160.648 28.04C160.062 27.9067 159.608 27.44 159.288 26.64C159.528 27.1467 159.488 27.64 159.168 28.12C158.875 28.5733 158.435 28.9467 157.848 29.24C157.288 29.5067 156.728 29.6267 156.168 29.6C155.635 29.5733 155.235 29.3067 154.968 28.8C154.968 29.7333 154.795 30.36 154.448 30.68C154.128 31 153.795 31 153.448 30.68C153.102 30.36 152.928 29.7333 152.928 28.8C152.928 29.44 152.822 29.9067 152.608 30.2C152.422 30.4933 152.222 30.56 152.008 30.4C151.795 30.24 151.662 29.8267 151.608 29.16C151.582 28.4933 151.728 27.52 152.048 26.24ZM163.608 19.76C163.608 19.36 163.782 19.0533 164.128 18.84C164.502 18.6267 164.928 18.5067 165.408 18.48C165.888 18.4533 166.315 18.5067 166.688 18.64C166.662 18.4 166.715 18.16 166.848 17.92C167.008 17.6533 167.222 17.4667 167.488 17.36C167.062 17.28 166.742 17.04 166.528 16.64C166.342 16.24 166.288 15.84 166.368 15.44C166.475 15.0133 166.768 14.72 167.248 14.56C166.795 14.72 166.382 14.56 166.008 14.08C165.635 13.6 165.395 13.0667 165.288 12.48C165.048 12.6667 164.782 12.8267 164.488 12.96C164.195 13.0667 163.928 13.0933 163.688 13.04C163.982 13.3333 164.088 13.7333 164.008 14.24C163.955 14.72 163.768 15.1333 163.448 15.48C163.128 15.8267 162.742 15.9333 162.288 15.8C162.635 15.9067 162.848 16.1867 162.928 16.64C163.008 17.0933 163.048 17.5867 163.048 18.12C163.048 18.6267 163.075 19.0533 163.128 19.4C163.182 19.7467 163.342 19.8667 163.608 19.76ZM186.07 27.32C185.35 27.32 184.804 27.1333 184.43 26.76C184.057 26.3867 183.87 25.96 183.87 25.48C183.87 25 184.057 24.5733 184.43 24.2C184.804 23.8267 185.35 23.64 186.07 23.64C185.324 23.64 184.764 23.4667 184.39 23.12C184.017 22.7467 183.83 22.3333 183.83 21.88C183.83 21.4267 184.017 21.0267 184.39 20.68C184.764 20.3067 185.324 20.12 186.07 20.12C185.457 20.12 184.99 19.92 184.67 19.52C184.377 19.0933 184.23 18.6 184.23 18.04C184.23 17.48 184.377 17 184.67 16.6C184.99 16.1733 185.457 15.96 186.07 15.96C185.084 15.96 184.417 15.8 184.07 15.48C183.724 15.16 183.71 14.84 184.03 14.52C184.35 14.2 184.99 14.04 185.95 14.04C185.337 14.0667 184.844 13.8933 184.47 13.52C184.124 13.1467 183.897 12.6933 183.79 12.16C183.71 11.6267 183.764 11.1333 183.95 10.68C183.87 10.3067 183.83 9.88 183.83 9.4C183.83 9.98667 183.644 10.4533 183.27 10.8C182.897 11.1467 182.43 11.3733 181.87 11.48C181.337 11.5867 180.79 11.5867 180.23 11.48C179.697 11.3467 179.244 11.1067 178.87 10.76C178.524 10.4133 178.35 9.94667 178.35 9.36C177.657 9.36 177.137 9.22667 176.79 8.96C176.444 8.66667 176.27 8.33333 176.27 7.96C176.27 7.58667 176.444 7.25333 176.79 6.96C177.137 6.66667 177.657 6.52 178.35 6.52C177.524 6.52 176.964 6.32 176.67 5.92C176.404 5.49333 176.404 5.08 176.67 4.68C176.964 4.25333 177.524 4.04 178.35 4.04C176.964 3.42666 176.337 2.98666 176.47 2.72C176.577 2.42667 177.324 2.58667 178.71 3.2C178.71 2.32 178.857 1.74667 179.15 1.48C179.444 1.18666 179.737 1.18666 180.03 1.48C180.324 1.74667 180.47 2.32 180.47 3.2C180.47 2.45333 180.617 1.89333 180.91 1.52C181.23 1.14667 181.59 0.96 181.99 0.96C182.39 0.96 182.737 1.14667 183.03 1.52C183.35 1.89333 183.51 2.45333 183.51 3.2C183.51 2.58667 183.644 2.13333 183.91 1.84C184.204 1.52 184.537 1.36 184.91 1.36C185.31 1.36 185.644 1.52 185.91 1.84C186.204 2.13333 186.35 2.58667 186.35 3.2C186.35 2.24 186.564 1.61333 186.99 1.32C187.417 0.999999 187.844 0.999999 188.27 1.32C188.697 1.61333 188.91 2.24 188.91 3.2C188.91 2.53333 189.11 2.04 189.51 1.72C189.937 1.37333 190.417 1.2 190.95 1.2C191.51 1.2 192.004 1.37333 192.43 1.72C192.857 2.04 193.07 2.53333 193.07 3.2C193.07 2.42666 193.31 1.85333 193.79 1.48C194.27 1.08 194.817 0.879998 195.43 0.879998C196.07 0.879998 196.63 1.08 197.11 1.48C197.59 1.85333 197.83 2.42666 197.83 3.2C197.83 2.50667 198.004 1.98666 198.35 1.64C198.724 1.26666 199.137 1.08 199.59 1.08C200.07 1.08 200.484 1.26666 200.83 1.64C201.177 1.98666 201.35 2.50667 201.35 3.2C202.097 3.14667 202.657 3.24 203.03 3.48C203.43 3.72 203.644 4.02666 203.67 4.4C203.697 4.74667 203.537 5.08 203.19 5.4C202.844 5.69333 202.297 5.86667 201.55 5.92C202.35 5.92 202.884 6.10667 203.15 6.48C203.417 6.82667 203.417 7.18666 203.15 7.56C202.884 7.93333 202.35 8.12 201.55 8.12C201.817 8.62667 201.897 9.08 201.79 9.48C201.684 9.88 201.47 10.16 201.15 10.32C200.83 10.48 200.47 10.5067 200.07 10.4C199.697 10.2667 199.377 9.93333 199.11 9.4C199.11 10.2 198.884 10.76 198.43 11.08C198.004 11.4 197.55 11.4933 197.07 11.36C197.044 11.8133 196.884 12.2267 196.59 12.6C196.324 12.9733 195.977 13.2133 195.55 13.32C196.19 13.5867 196.364 13.9067 196.07 14.28C195.777 14.6533 195.03 14.84 193.83 14.84C194.524 14.84 195.03 15.0667 195.35 15.52C195.697 15.9733 195.87 16.4933 195.87 17.08C195.87 17.6667 195.697 18.1867 195.35 18.64C195.03 19.0933 194.524 19.32 193.83 19.32C194.844 19.32 195.51 19.48 195.83 19.8C196.177 20.12 196.177 20.44 195.83 20.76C195.51 21.08 194.844 21.24 193.83 21.24C194.47 21.24 194.937 21.3867 195.23 21.68C195.55 21.9467 195.71 22.2533 195.71 22.6C195.71 22.9467 195.55 23.2667 195.23 23.56C194.937 23.8267 194.47 23.96 193.83 23.96C194.79 23.96 195.43 24.1467 195.75 24.52C196.07 24.8933 196.07 25.2667 195.75 25.64C195.43 26.0133 194.79 26.2 193.83 26.2C194.79 26.2 195.417 26.3333 195.71 26.6C196.03 26.8667 196.03 27.1333 195.71 27.4C195.417 27.6667 194.79 27.8 193.83 27.8C193.964 28.3867 193.857 28.88 193.51 29.28C193.19 29.68 192.764 29.9467 192.23 30.08C191.697 30.2133 191.19 30.1867 190.71 30C190.23 29.7867 189.924 29.3867 189.79 28.8C189.79 29.5467 189.59 30.1067 189.19 30.48C188.817 30.8533 188.377 30.9867 187.87 30.88C187.39 30.8 186.964 30.4667 186.59 29.88C186.217 29.2933 186.044 28.44 186.07 27.32Z" fill="white"/>
</svg>
