<svg width="13" height="13" viewBox="0 0 13 13" fill="none" xmlns="http://www.w3.org/2000/svg">
<path d="M4.87516 1.625H8.12516L9.2085 2.70833H11.3752C11.6743 2.70833 11.9168 2.95085 11.9168 3.25V10.8333C11.9168 11.1325 11.6743 11.375 11.3752 11.375H1.62516C1.32601 11.375 1.0835 11.1325 1.0835 10.8333V3.25C1.0835 2.95085 1.32601 2.70833 1.62516 2.70833H3.79183L4.87516 1.625ZM6.50016 10.2917C8.29508 10.2917 9.75016 8.83659 9.75016 7.04167C9.75016 5.24674 8.29508 3.79167 6.50016 3.79167C4.70524 3.79167 3.25016 5.24674 3.25016 7.04167C3.25016 8.83659 4.70524 10.2917 6.50016 10.2917ZM6.50016 9.20833C5.30354 9.20833 4.3335 8.23826 4.3335 7.04167C4.3335 5.84507 5.30354 4.875 6.50016 4.875C7.69676 4.875 8.66683 5.84507 8.66683 7.04167C8.66683 8.23826 7.69676 9.20833 6.50016 9.20833Z" fill="#ADB5BD"/>
</svg>
