<svg width="36" height="36" viewBox="0 0 36 36" fill="none" xmlns="http://www.w3.org/2000/svg">
<path d="M16.0241 6.25561C17.6382 5.92067 19.3243 5.9101 20.9754 6.25231C21.1896 7.64353 22.0161 8.92915 23.3413 9.68755C24.6664 10.4459 26.2029 10.5128 27.5253 10.001C28.6499 11.2475 29.4837 12.7003 29.9981 14.2534C28.8912 15.1329 28.1826 16.4844 28.1826 18C28.1826 19.5165 28.8921 20.8687 30 21.7482C29.7443 22.5165 29.4059 23.2707 28.9816 23.999C28.5574 24.7274 28.0678 25.3949 27.5244 25.9987C26.2021 25.4872 24.6661 25.5543 23.3413 26.3124C22.0172 27.0702 21.1909 28.3545 20.9759 29.7445C19.3619 30.0793 17.6758 30.0899 16.0246 29.7477C15.8104 28.3565 14.9838 27.0708 13.6587 26.3124C12.3336 25.554 10.7972 25.4872 9.4747 25.999C8.35014 24.7526 7.51633 23.2997 7.00192 21.7466C8.10874 20.8671 8.81745 19.5156 8.81745 18C8.81745 16.4835 8.10791 15.1313 7 14.2518C7.25572 13.4835 7.59413 12.7294 8.01833 12.001C8.44253 11.2727 8.93213 10.6051 9.47554 10.0013C10.7978 10.5127 12.3339 10.4458 13.6587 9.68755C14.9828 8.92974 15.8091 7.64557 16.0241 6.25561ZM18.5 21.5994C20.5053 21.5994 22.131 19.9879 22.131 18C22.131 16.0121 20.5053 14.4006 18.5 14.4006C16.4947 14.4006 14.869 16.0121 14.869 18C14.869 19.9879 16.4947 21.5994 18.5 21.5994Z" fill="#ADB5BD"/>
</svg>
