<svg width="316" height="292" viewBox="0 0 316 292" fill="none" xmlns="http://www.w3.org/2000/svg">
<path d="M8.89594 45.7314C5.79501 54.5773 3.48742 63.6816 2.00049 72.9365L41.2288 79.2391C42.3419 72.3114 44.0692 65.4966 46.3903 58.8751L8.89594 45.7314Z" fill="#F8F9FA"/>
<path d="M18.56 68.25V67.0879L21.5483 62.4297H23.394V67.0684H24.2924V68.25H23.394V69.5H21.9975V68.25H18.56ZM20.0444 67.0684H22.017V64.041H21.9486L20.0444 67.0098V67.0684Z" fill="#343A40"/>
<path d="M27.6666 69.5977C26.1139 69.5977 25.0006 68.7383 24.9713 67.5078H26.4557C26.485 68.0352 26.9928 68.3867 27.6764 68.3867C28.3795 68.3867 28.8873 67.9863 28.8776 67.4199C28.8873 66.8438 28.3697 66.4336 27.5397 66.4336H26.8854V65.3496H27.5397C28.233 65.3496 28.7213 64.9688 28.7213 64.4121C28.7213 63.875 28.3111 63.5039 27.6861 63.5039C27.0611 63.5039 26.5436 63.8555 26.524 64.3926H25.1178C25.1373 63.1719 26.2408 62.332 27.6861 62.332C29.1608 62.332 30.1471 63.2012 30.1373 64.3242C30.1471 65.1152 29.5904 65.6816 28.7994 65.8184V65.877C29.8346 66.0039 30.4108 66.6387 30.401 67.5176C30.4108 68.7285 29.2584 69.5977 27.6666 69.5977Z" fill="#343A40"/>
<path d="M1.55966 75.8545C0.245841 85.1356 -0.239445 94.5152 0.109542 103.882L39.8134 102.403C39.5522 95.3915 39.9154 88.3705 40.8989 81.4233L1.55966 75.8545Z" fill="#F8F9FA"/>
<path d="M17.4516 93.2499V92.0878L20.4399 87.4296H22.2856V92.0682H23.184V93.2499H22.2856V94.4999H20.8891V93.2499H17.4516ZM18.936 92.0682H20.9086V89.0409H20.8403L18.936 92.0096V92.0682Z" fill="#343A40"/>
<path d="M23.941 94.4999L23.9313 93.4354L26.4703 91.1014C27.1344 90.4667 27.486 90.076 27.486 89.5194C27.486 88.8944 27.0074 88.5038 26.3629 88.5038C25.6988 88.5038 25.2692 88.9237 25.2692 89.5975H23.8727C23.8629 88.2108 24.8883 87.3319 26.3824 87.3319C27.8961 87.3319 28.902 88.1913 28.902 89.4218C28.902 90.2225 28.5113 90.8866 27.0563 92.205L25.982 93.2499V93.2889H28.9996V94.4999H23.941Z" fill="#343A40"/>
<path d="M0.235352 106.617C0.728812 115.652 1.99739 124.627 4.02711 133.444L42.7459 124.531C41.2266 117.931 40.277 111.213 39.9076 104.45L0.235352 106.617Z" fill="#F8F9FA"/>
<path d="M19.4584 118.25V117.088L22.4467 112.43H24.2924V117.068H25.1908V118.25H24.2924V119.5H22.8959V118.25H19.4584ZM20.9428 117.068H22.9154V114.041H22.8471L20.9428 117.01V117.068Z" fill="#343A40"/>
<path d="M28.8971 112.43V119.5H27.4225V113.826H27.3834L25.7623 114.842V113.543L27.5104 112.43H28.8971Z" fill="#343A40"/>
<path d="M4.85205 136.855C7.05427 145.535 9.99046 154.012 13.6289 162.195L49.9331 146.052C47.2096 139.927 45.0118 133.582 43.3633 127.084L4.85205 136.855Z" fill="#F8F9FA"/>
<path d="M24.4526 143.25V142.088L27.4408 137.43H29.2865V142.068H30.185V143.25H29.2865V144.5H27.8901V143.25H24.4526ZM25.9369 142.068H27.9096V139.041H27.8412L25.9369 142.01V142.068Z" fill="#343A40"/>
<path d="M33.6861 144.598C31.9186 144.598 30.8444 143.279 30.8444 140.965C30.8444 138.65 31.9186 137.332 33.6861 137.332C35.4537 137.332 36.5279 138.66 36.5279 140.965C36.5279 143.289 35.4537 144.598 33.6861 144.598ZM33.6861 143.387C34.5065 143.387 35.0338 142.596 35.024 140.965C35.024 139.354 34.5065 138.533 33.6861 138.533C32.8658 138.533 32.3483 139.354 32.3483 140.965C32.3385 142.596 32.8658 143.387 33.6861 143.387Z" fill="#343A40"/>
<path d="M15.1265 165.462C18.9141 173.484 23.3706 181.172 28.4487 188.446L61.0263 165.702C57.2252 160.257 53.8893 154.502 51.0541 148.498L15.1265 165.462Z" fill="#F8F9FA"/>
<path d="M39.3676 168.598C37.8149 168.598 36.7016 167.738 36.6723 166.508H38.1567C38.186 167.035 38.6938 167.387 39.3774 167.387C40.0805 167.387 40.5883 166.986 40.5785 166.42C40.5883 165.844 40.0707 165.434 39.2406 165.434H38.5863V164.35H39.2406C39.934 164.35 40.4223 163.969 40.4223 163.412C40.4223 162.875 40.0121 162.504 39.3871 162.504C38.7621 162.504 38.2445 162.855 38.225 163.393H36.8188C36.8383 162.172 37.9418 161.332 39.3871 161.332C40.8617 161.332 41.8481 162.201 41.8383 163.324C41.8481 164.115 41.2914 164.682 40.5004 164.818V164.877C41.5356 165.004 42.1117 165.639 42.102 166.518C42.1117 167.729 40.9594 168.598 39.3676 168.598Z" fill="#343A40"/>
<path d="M45.5152 161.332C46.9801 161.342 48.3668 162.211 48.3668 164.779C48.3766 167.182 47.234 168.598 45.4567 168.598C44.0309 168.598 43.0641 167.709 42.9176 166.508H44.3629C44.4801 167.025 44.8902 167.338 45.4567 167.338C46.4235 167.338 46.9313 166.479 46.9313 165.062H46.8727C46.5406 165.688 45.8473 166.059 45.0563 166.059C43.7867 166.059 42.8492 165.102 42.8395 163.783C42.8395 162.357 43.9137 161.322 45.5152 161.332ZM45.525 162.484C44.8024 162.484 44.2652 163.041 44.275 163.744C44.275 164.438 44.7926 164.984 45.5152 164.984C46.2281 164.984 46.7848 164.418 46.7848 163.734C46.775 163.061 46.2477 162.484 45.525 162.484Z" fill="#343A40"/>
<path d="M30.582 191.427C35.8275 198.581 41.6661 205.28 48.036 211.454L75.6881 182.924C70.9201 178.303 66.5496 173.288 62.6232 167.933L30.582 191.427Z" fill="#F8F9FA"/>
<path d="M54.3627 190.598C52.81 190.598 51.6967 189.738 51.6674 188.508H53.1518C53.1811 189.035 53.6889 189.387 54.3725 189.387C55.0756 189.387 55.5834 188.986 55.5736 188.42C55.5834 187.844 55.0658 187.434 54.2358 187.434H53.5815V186.35H54.2358C54.9291 186.35 55.4174 185.969 55.4174 185.412C55.4174 184.875 55.0072 184.504 54.3822 184.504C53.7572 184.504 53.2397 184.855 53.2201 185.393H51.8139C51.8334 184.172 52.9369 183.332 54.3822 183.332C55.8569 183.332 56.8432 184.201 56.8334 185.324C56.8432 186.115 56.2865 186.682 55.4955 186.818V186.877C56.5307 187.004 57.1069 187.639 57.0971 188.518C57.1069 189.729 55.9545 190.598 54.3627 190.598Z" fill="#343A40"/>
<path d="M60.5885 190.598C58.9772 190.598 57.8151 189.748 57.8151 188.596C57.8151 187.707 58.4986 186.984 59.3776 186.848V186.799C58.6158 186.652 58.0885 186.008 58.0885 185.236C58.0885 184.133 59.1432 183.332 60.5885 183.332C62.0338 183.332 63.0885 184.133 63.0983 185.236C63.0885 186.018 62.5514 186.652 61.8092 186.799V186.848C62.6686 186.984 63.3619 187.707 63.3619 188.596C63.3619 189.748 62.1998 190.598 60.5885 190.598ZM60.5885 189.475C61.3307 189.475 61.8287 189.055 61.8287 188.449C61.8287 187.834 61.3111 187.385 60.5885 187.385C59.8658 187.385 59.3385 187.834 59.3483 188.449C59.3385 189.055 59.8365 189.475 60.5885 189.475ZM60.5885 186.35C61.2135 186.35 61.6627 185.949 61.6627 185.383C61.6627 184.836 61.2233 184.445 60.5885 184.445C59.9537 184.445 59.524 184.826 59.524 185.383C59.524 185.949 59.9635 186.35 60.5885 186.35Z" fill="#343A40"/>
<path d="M50.5078 213.799C57.0094 219.834 64.0076 225.311 71.4284 230.172L93.1981 196.935C87.6434 193.297 82.4049 189.197 77.5383 184.68L50.5078 213.799Z" fill="#F8F9FA"/>
<path d="M71.2045 208.598C69.6518 208.598 68.5385 207.738 68.5092 206.508H69.9936C70.0229 207.035 70.5307 207.387 71.2143 207.387C71.9174 207.387 72.4252 206.986 72.4154 206.42C72.4252 205.844 71.9076 205.433 71.0776 205.433H70.4233V204.349H71.0776C71.7709 204.349 72.2592 203.969 72.2592 203.412C72.2592 202.875 71.849 202.504 71.224 202.504C70.599 202.504 70.0815 202.855 70.0619 203.392H68.6557C68.6752 202.172 69.7787 201.332 71.224 201.332C72.6986 201.332 73.685 202.201 73.6752 203.324C73.685 204.115 73.1283 204.682 72.3373 204.818V204.877C73.3725 205.004 73.9486 205.639 73.9389 206.517C73.9486 207.728 72.7963 208.598 71.2045 208.598Z" fill="#343A40"/>
<path d="M75.0475 208.5L78.026 202.68V202.631H74.5592V201.43H79.5494V202.65L76.5709 208.5H75.0475Z" fill="#343A40"/>
<path d="M74.2861 232C81.8096 236.7 89.7155 240.759 97.9201 244.132L113.028 207.385C106.887 204.86 100.969 201.822 95.3371 198.304L74.2861 232Z" fill="#F8F9FA"/>
<path d="M93.3676 222.598C91.8149 222.598 90.7016 221.738 90.6723 220.508H92.1567C92.186 221.035 92.6938 221.387 93.3774 221.387C94.0805 221.387 94.5883 220.986 94.5785 220.42C94.5883 219.844 94.0707 219.434 93.2406 219.434H92.5863V218.35H93.2406C93.934 218.35 94.4223 217.969 94.4223 217.412C94.4223 216.875 94.0121 216.504 93.3871 216.504C92.7621 216.504 92.2445 216.855 92.225 217.393H90.8188C90.8383 216.172 91.9418 215.332 93.3871 215.332C94.8617 215.332 95.8481 216.201 95.8383 217.324C95.8481 218.115 95.2914 218.682 94.5004 218.818V218.877C95.5356 219.004 96.1117 219.639 96.102 220.518C96.1117 221.729 94.9594 222.598 93.3676 222.598Z" fill="#343A40"/>
<path d="M99.6715 222.598C98.2067 222.588 96.8199 221.719 96.8199 219.131C96.8199 216.748 97.9625 215.332 99.7301 215.332C101.156 215.332 102.123 216.23 102.269 217.393H100.824C100.707 216.895 100.296 216.592 99.7301 216.592C98.7731 216.592 98.2652 217.461 98.2555 218.848H98.3238C98.6461 218.223 99.3492 217.852 100.13 217.852C101.4 217.852 102.347 218.809 102.347 220.137C102.347 221.572 101.263 222.607 99.6715 222.598ZM99.6617 221.436C100.384 221.436 100.921 220.889 100.921 220.176C100.921 219.473 100.404 218.916 99.6813 218.916C98.9586 218.916 98.4117 219.482 98.402 220.176C98.4117 220.869 98.9391 221.436 99.6617 221.436Z" fill="#343A40"/>
<path d="M101.207 245.44C109.485 248.629 118.017 251.115 126.712 252.871L134.58 213.927C128.071 212.612 121.685 210.751 115.488 208.364L101.207 245.44Z" fill="#F8F9FA"/>
<path d="M117.196 233.598C115.643 233.598 114.53 232.738 114.5 231.508H115.985C116.014 232.035 116.522 232.387 117.205 232.387C117.909 232.387 118.416 231.986 118.407 231.42C118.416 230.844 117.899 230.434 117.069 230.434H116.414V229.35H117.069C117.762 229.35 118.25 228.969 118.25 228.412C118.25 227.875 117.84 227.504 117.215 227.504C116.59 227.504 116.073 227.856 116.053 228.393H114.647C114.666 227.172 115.77 226.332 117.215 226.332C118.69 226.332 119.676 227.201 119.666 228.324C119.676 229.115 119.12 229.682 118.329 229.818V229.877C119.364 230.004 119.94 230.639 119.93 231.518C119.94 232.729 118.788 233.598 117.196 233.598Z" fill="#343A40"/>
<path d="M123.363 233.598C121.888 233.598 120.814 232.729 120.785 231.508H122.211C122.24 232.065 122.748 232.436 123.363 232.436C124.095 232.436 124.613 231.918 124.613 231.186C124.613 230.434 124.086 229.916 123.343 229.906C122.816 229.906 122.445 230.102 122.23 230.502H120.902L121.283 226.43H125.638V227.631H122.494L122.298 229.418H122.357C122.621 229.067 123.148 228.822 123.773 228.822C125.072 228.822 126.039 229.789 126.039 231.147C126.039 232.572 124.955 233.598 123.363 233.598Z" fill="#343A40"/>
<path d="M131.636 245.665C139.926 247.145 148.327 247.925 156.748 247.995L157.014 216.131C150.382 216.075 143.766 215.462 137.236 214.296L131.636 245.665Z" fill="#F8F9FA"/>
<path d="M142.294 234.598C140.742 234.598 139.628 233.738 139.599 232.508H141.083C141.113 233.035 141.621 233.387 142.304 233.387C143.007 233.387 143.515 232.986 143.505 232.42C143.515 231.844 142.997 231.434 142.167 231.434H141.513V230.35H142.167C142.861 230.35 143.349 229.969 143.349 229.412C143.349 228.875 142.939 228.504 142.314 228.504C141.689 228.504 141.171 228.855 141.152 229.393H139.746C139.765 228.172 140.869 227.332 142.314 227.332C143.788 227.332 144.775 228.201 144.765 229.324C144.775 230.115 144.218 230.682 143.427 230.818V230.877C144.462 231.004 145.038 231.639 145.029 232.518C145.038 233.729 143.886 234.598 142.294 234.598Z" fill="#343A40"/>
<path d="M145.747 233.25V232.088L148.735 227.43H150.581V232.068H151.479V233.25H150.581V234.5H149.184V233.25H145.747ZM147.231 232.068H149.204V229.041H149.135L147.231 232.01V232.068Z" fill="#343A40"/>
<path d="M184.364 245.665C176.073 247.145 167.673 247.925 159.251 247.995L158.985 216.131C165.618 216.075 172.234 215.462 178.763 214.296L184.364 245.665Z" fill="#F8F9FA"/>
<path d="M167.387 234.598C165.834 234.598 164.721 233.738 164.692 232.508H166.176C166.205 233.035 166.713 233.387 167.397 233.387C168.1 233.387 168.608 232.986 168.598 232.42C168.608 231.844 168.09 231.434 167.26 231.434H166.606V230.35H167.26C167.954 230.35 168.442 229.969 168.442 229.412C168.442 228.875 168.032 228.504 167.407 228.504C166.782 228.504 166.264 228.855 166.245 229.393H164.838C164.858 228.172 165.961 227.332 167.407 227.332C168.881 227.332 169.868 228.201 169.858 229.324C169.868 230.115 169.311 230.682 168.52 230.818V230.877C169.555 231.004 170.131 231.639 170.122 232.518C170.131 233.729 168.979 234.598 167.387 234.598Z" fill="#343A40"/>
<path d="M173.574 234.598C172.021 234.598 170.908 233.738 170.879 232.508H172.363C172.392 233.035 172.9 233.387 173.584 233.387C174.287 233.387 174.795 232.986 174.785 232.42C174.795 231.844 174.277 231.434 173.447 231.434H172.793V230.35H173.447C174.14 230.35 174.629 229.969 174.629 229.412C174.629 228.875 174.218 228.504 173.593 228.504C172.968 228.504 172.451 228.855 172.431 229.393H171.025C171.045 228.172 172.148 227.332 173.593 227.332C175.068 227.332 176.054 228.201 176.045 229.324C176.054 230.115 175.498 230.682 174.707 230.818V230.877C175.742 231.004 176.318 231.639 176.308 232.518C176.318 233.729 175.166 234.598 173.574 234.598Z" fill="#343A40"/>
<path d="M214.793 245.44C206.515 248.629 197.983 251.115 189.288 252.871L181.42 213.927C187.929 212.612 194.315 210.751 200.511 208.364L214.793 245.44Z" fill="#F8F9FA"/>
<path d="M193.279 233.598C191.726 233.598 190.613 232.738 190.583 231.508H192.068C192.097 232.035 192.605 232.387 193.288 232.387C193.992 232.387 194.499 231.986 194.49 231.42C194.499 230.844 193.982 230.434 193.152 230.434H192.497V229.35H193.152C193.845 229.35 194.333 228.969 194.333 228.412C194.333 227.875 193.923 227.504 193.298 227.504C192.673 227.504 192.156 227.856 192.136 228.393H190.73C190.749 227.172 191.853 226.332 193.298 226.332C194.773 226.332 195.759 227.201 195.749 228.324C195.759 229.115 195.203 229.682 194.412 229.818V229.877C195.447 230.004 196.023 230.639 196.013 231.518C196.023 232.729 194.871 233.598 193.279 233.598Z" fill="#343A40"/>
<path d="M196.848 233.5L196.838 232.436L199.378 230.102C200.042 229.467 200.393 229.076 200.393 228.52C200.393 227.895 199.915 227.504 199.27 227.504C198.606 227.504 198.176 227.924 198.176 228.598H196.78C196.77 227.211 197.796 226.332 199.29 226.332C200.803 226.332 201.809 227.192 201.809 228.422C201.809 229.223 201.419 229.887 199.963 231.205L198.889 232.25V232.289H201.907V233.5H196.848Z" fill="#343A40"/>
<path d="M241.713 232C234.19 236.7 226.284 240.759 218.08 244.132L202.972 207.385C209.113 204.86 215.031 201.822 220.663 198.304L241.713 232Z" fill="#F8F9FA"/>
<path d="M217.237 222.598C215.684 222.598 214.571 221.738 214.541 220.508H216.026C216.055 221.035 216.563 221.387 217.247 221.387C217.95 221.387 218.457 220.986 218.448 220.42C218.457 219.844 217.94 219.434 217.11 219.434H216.455V218.35H217.11C217.803 218.35 218.291 217.969 218.291 217.412C218.291 216.875 217.881 216.504 217.256 216.504C216.631 216.504 216.114 216.855 216.094 217.393H214.688C214.707 216.172 215.811 215.332 217.256 215.332C218.731 215.332 219.717 216.201 219.707 217.324C219.717 218.115 219.161 218.682 218.37 218.818V218.877C219.405 219.004 219.981 219.639 219.971 220.518C219.981 221.729 218.829 222.598 217.237 222.598Z" fill="#343A40"/>
<path d="M223.853 215.43V222.5H222.379V216.826H222.339L220.718 217.842V216.543L222.466 215.43H223.853Z" fill="#343A40"/>
<path d="M265.492 213.799C258.99 219.834 251.992 225.311 244.571 230.172L222.802 196.935C228.356 193.297 233.595 189.197 238.462 184.68L265.492 213.799Z" fill="#F8F9FA"/>
<path d="M238.28 208.598C236.727 208.598 235.614 207.738 235.584 206.508H237.069C237.098 207.035 237.606 207.387 238.289 207.387C238.993 207.387 239.5 206.986 239.491 206.42C239.5 205.844 238.983 205.433 238.153 205.433H237.498V204.349H238.153C238.846 204.349 239.334 203.969 239.334 203.412C239.334 202.875 238.924 202.504 238.299 202.504C237.674 202.504 237.157 202.855 237.137 203.392H235.731C235.75 202.172 236.854 201.332 238.299 201.332C239.774 201.332 240.76 202.201 240.75 203.324C240.76 204.115 240.204 204.682 239.413 204.818V204.877C240.448 205.004 241.024 205.639 241.014 206.517C241.024 207.728 239.872 208.598 238.28 208.598Z" fill="#343A40"/>
<path d="M244.593 208.598C242.826 208.598 241.752 207.279 241.752 204.965C241.752 202.65 242.826 201.332 244.593 201.332C246.361 201.332 247.435 202.66 247.435 204.965C247.435 207.289 246.361 208.598 244.593 208.598ZM244.593 207.387C245.414 207.387 245.941 206.596 245.931 204.965C245.931 203.353 245.414 202.533 244.593 202.533C243.773 202.533 243.255 203.353 243.255 204.965C243.246 206.596 243.773 207.387 244.593 207.387Z" fill="#343A40"/>
<path d="M285.419 191.427C280.173 198.581 274.335 205.28 267.965 211.454L240.312 182.924C245.081 178.303 249.451 173.288 253.377 167.933L285.419 191.427Z" fill="#F8F9FA"/>
<path d="M253.642 190.5L253.632 189.436L256.171 187.102C256.835 186.467 257.187 186.076 257.187 185.52C257.187 184.895 256.708 184.504 256.064 184.504C255.4 184.504 254.97 184.924 254.97 185.598H253.574C253.564 184.211 254.589 183.332 256.083 183.332C257.597 183.332 258.603 184.191 258.603 185.422C258.603 186.223 258.212 186.887 256.757 188.205L255.683 189.25V189.289H258.701V190.5H253.642Z" fill="#343A40"/>
<path d="M262.124 183.332C263.588 183.342 264.975 184.211 264.975 186.779C264.985 189.182 263.842 190.598 262.065 190.598C260.639 190.598 259.672 189.709 259.526 188.508H260.971C261.088 189.025 261.499 189.338 262.065 189.338C263.032 189.338 263.54 188.479 263.54 187.062H263.481C263.149 187.688 262.456 188.059 261.665 188.059C260.395 188.059 259.458 187.102 259.448 185.783C259.448 184.357 260.522 183.322 262.124 183.332ZM262.133 184.484C261.411 184.484 260.874 185.041 260.883 185.744C260.883 186.438 261.401 186.984 262.124 186.984C262.837 186.984 263.393 186.418 263.393 185.734C263.383 185.061 262.856 184.484 262.133 184.484Z" fill="#343A40"/>
<path d="M300.873 165.462C297.086 173.484 292.629 181.172 287.551 188.446L254.974 165.702C258.775 160.257 262.111 154.502 264.946 148.498L300.873 165.462Z" fill="#F8F9FA"/>
<path d="M268.637 168.5L268.627 167.436L271.166 165.102C271.83 164.467 272.182 164.076 272.182 163.52C272.182 162.895 271.704 162.504 271.059 162.504C270.395 162.504 269.965 162.924 269.965 163.598H268.569C268.559 162.211 269.584 161.332 271.079 161.332C272.592 161.332 273.598 162.191 273.598 163.422C273.598 164.223 273.207 164.887 271.752 166.205L270.678 167.25V167.289H273.696V168.5H268.637Z" fill="#343A40"/>
<path d="M277.197 168.598C275.586 168.598 274.423 167.748 274.423 166.596C274.423 165.707 275.107 164.984 275.986 164.848V164.799C275.224 164.652 274.697 164.008 274.697 163.236C274.697 162.133 275.752 161.332 277.197 161.332C278.642 161.332 279.697 162.133 279.707 163.236C279.697 164.018 279.16 164.652 278.418 164.799V164.848C279.277 164.984 279.97 165.707 279.97 166.596C279.97 167.748 278.808 168.598 277.197 168.598ZM277.197 167.475C277.939 167.475 278.437 167.055 278.437 166.449C278.437 165.834 277.92 165.385 277.197 165.385C276.474 165.385 275.947 165.834 275.957 166.449C275.947 167.055 276.445 167.475 277.197 167.475ZM277.197 164.35C277.822 164.35 278.271 163.949 278.271 163.383C278.271 162.836 277.832 162.445 277.197 162.445C276.562 162.445 276.132 162.826 276.132 163.383C276.132 163.949 276.572 164.35 277.197 164.35Z" fill="#343A40"/>
<path d="M311.148 136.855C308.946 145.535 306.01 154.012 302.371 162.195L266.067 146.052C268.79 139.927 270.988 133.582 272.637 127.084L311.148 136.855Z" fill="#F8F9FA"/>
<path d="M280.729 144.5L280.719 143.436L283.258 141.102C283.922 140.467 284.274 140.076 284.274 139.52C284.274 138.895 283.795 138.504 283.151 138.504C282.487 138.504 282.057 138.924 282.057 139.598H280.661C280.651 138.211 281.676 137.332 283.17 137.332C284.684 137.332 285.69 138.191 285.69 139.422C285.69 140.223 285.299 140.887 283.844 142.205L282.77 143.25V143.289H285.788V144.5H280.729Z" fill="#343A40"/>
<path d="M286.906 144.5L289.884 138.68V138.631H286.418V137.43H291.408V138.65L288.429 144.5H286.906Z" fill="#343A40"/>
<path d="M315.765 106.617C315.271 115.652 314.003 124.627 311.973 133.444L273.254 124.531C274.774 117.931 275.723 111.213 276.093 104.45L315.765 106.617Z" fill="#F8F9FA"/>
<path d="M286.642 119.5L286.632 118.436L289.171 116.102C289.835 115.467 290.187 115.076 290.187 114.52C290.187 113.895 289.708 113.504 289.064 113.504C288.4 113.504 287.97 113.924 287.97 114.598H286.574C286.564 113.211 287.589 112.332 289.083 112.332C290.597 112.332 291.603 113.191 291.603 114.422C291.603 115.223 291.212 115.887 289.757 117.205L288.683 118.25V118.289H291.701V119.5H286.642Z" fill="#343A40"/>
<path d="M295.28 119.598C293.815 119.588 292.428 118.719 292.428 116.131C292.428 113.748 293.571 112.332 295.338 112.332C296.764 112.332 297.731 113.23 297.878 114.393H296.432C296.315 113.895 295.905 113.592 295.338 113.592C294.381 113.592 293.874 114.461 293.864 115.848H293.932C294.255 115.223 294.958 114.852 295.739 114.852C297.008 114.852 297.956 115.809 297.956 117.137C297.956 118.572 296.872 119.607 295.28 119.598ZM295.27 118.436C295.993 118.436 296.53 117.889 296.53 117.176C296.53 116.473 296.012 115.916 295.29 115.916C294.567 115.916 294.02 116.482 294.01 117.176C294.02 117.869 294.547 118.436 295.27 118.436Z" fill="#343A40"/>
<path d="M314.44 75.8545C315.754 85.1356 316.239 94.5152 315.89 103.882L276.187 102.403C276.448 95.3915 276.085 88.3705 275.101 81.4233L314.44 75.8545Z" fill="#F8F9FA"/>
<path d="M287.72 94.4999L287.71 93.4354L290.249 91.1014C290.913 90.4667 291.265 90.076 291.265 89.5194C291.265 88.8944 290.787 88.5038 290.142 88.5038C289.478 88.5038 289.048 88.9237 289.048 89.5975H287.652C287.642 88.2108 288.667 87.3319 290.162 87.3319C291.675 87.3319 292.681 88.1913 292.681 89.4218C292.681 90.2225 292.29 90.8866 290.835 92.205L289.761 93.2499V93.2889H292.779V94.4999H287.72Z" fill="#343A40"/>
<path d="M296.221 94.5975C294.747 94.5975 293.672 93.7284 293.643 92.5077H295.069C295.098 93.0643 295.606 93.4354 296.221 93.4354C296.954 93.4354 297.471 92.9178 297.471 92.1854C297.471 91.4335 296.944 90.9159 296.202 90.9061C295.674 90.9061 295.303 91.1014 295.088 91.5018H293.76L294.141 87.4296H298.497V88.6307H295.352L295.157 90.4178H295.215C295.479 90.0663 296.006 89.8221 296.631 89.8221C297.93 89.8221 298.897 90.7889 298.897 92.1464C298.897 93.5721 297.813 94.5975 296.221 94.5975Z" fill="#343A40"/>
<path d="M307.104 45.7314C310.205 54.5773 312.512 63.6816 313.999 72.9365L274.771 79.2391C273.658 72.3114 271.931 65.4966 269.609 58.8751L307.104 45.7314Z" fill="#F8F9FA"/>
<path d="M286.647 69.5L286.637 68.4355L289.176 66.1016C289.84 65.4668 290.192 65.0762 290.192 64.5195C290.192 63.8945 289.713 63.5039 289.069 63.5039C288.405 63.5039 287.975 63.9238 287.975 64.5977H286.579C286.569 63.2109 287.594 62.332 289.088 62.332C290.602 62.332 291.608 63.1914 291.608 64.4219C291.608 65.2227 291.217 65.8867 289.762 67.2051L288.688 68.25V68.2891H291.705V69.5H286.647Z" fill="#343A40"/>
<path d="M292.277 68.25V67.0879L295.265 62.4297H297.111V67.0684H298.009V68.25H297.111V69.5H295.714V68.25H292.277ZM293.761 67.0684H295.734V64.041H295.666L293.761 67.0098V67.0684Z" fill="#343A40"/>
<path d="M54.2453 61.4634C51.6683 68.7814 49.8728 76.3515 48.8887 84.0473L77.8575 87.7518C78.5804 82.0992 79.8992 76.5389 81.792 71.1638L54.2453 61.4634Z" fill="#ADB5BD"/>
<path d="M63.725 72.4298V79.5001H62.2504V73.8263H62.2113L60.5903 74.8419V73.5431L62.3383 72.4298H63.725Z" fill="#343A40"/>
<path d="M67.7633 79.5978C66.2887 79.5978 65.2145 78.7286 65.1852 77.5079H66.611C66.6402 78.0646 67.1481 78.4357 67.7633 78.4357C68.4957 78.4357 69.0133 77.9181 69.0133 77.1857C69.0133 76.4337 68.486 75.9161 67.7438 75.9064C67.2164 75.9064 66.8453 76.1017 66.6305 76.5021H65.3024L65.6832 72.4298H70.0387V73.631H66.8942L66.6988 75.4181H66.7574C67.0211 75.0665 67.5485 74.8224 68.1735 74.8224C69.4723 74.8224 70.4391 75.7892 70.4391 77.1466C70.4391 78.5724 69.3551 79.5978 67.7633 79.5978Z" fill="#343A40"/>
<path d="M48.6347 86.2007C47.8024 93.9144 47.7886 101.695 48.5935 109.411L77.6407 106.382C77.0495 100.714 77.0596 94.9991 77.6709 89.3334L48.6347 86.2007Z" fill="#ADB5BD"/>
<path d="M60.8236 93.4297V100.5H59.349V94.8262H59.31L57.6889 95.8418V94.543L59.4369 93.4297H60.8236Z" fill="#343A40"/>
<path d="M62.1471 99.25V98.0879L65.1354 93.4297H66.9811V98.0684H67.8795V99.25H66.9811V100.5H65.5846V99.25H62.1471ZM63.6315 98.0684H65.6041V95.041H65.5358L63.6315 98.0098V98.0684Z" fill="#343A40"/>
<path d="M48.8096 111.32C49.7491 119.022 51.5007 126.602 54.0352 133.935L81.6377 124.394C79.776 119.008 78.4895 113.44 77.7994 107.784L48.8096 111.32Z" fill="#ADB5BD"/>
<path d="M62.6664 114.43V121.5H61.1918V115.826H61.1528L59.5317 116.842V115.543L61.2797 114.43H62.6664Z" fill="#343A40"/>
<path d="M66.7242 121.598C65.1715 121.598 64.0582 120.738 64.0289 119.508H65.5133C65.5426 120.035 66.0504 120.387 66.734 120.387C67.4371 120.387 67.9449 119.986 67.9352 119.42C67.9449 118.844 67.4274 118.434 66.5973 118.434H65.943V117.35H66.5973C67.2906 117.35 67.7789 116.969 67.7789 116.412C67.7789 115.875 67.3688 115.504 66.7438 115.504C66.1188 115.504 65.6012 115.856 65.5817 116.393H64.1754C64.1949 115.172 65.2985 114.332 66.7438 114.332C68.2184 114.332 69.2047 115.201 69.1949 116.324C69.2047 117.115 68.6481 117.682 67.857 117.818V117.877C68.8922 118.004 69.4684 118.639 69.4586 119.518C69.4684 120.729 68.316 121.598 66.7242 121.598Z" fill="#343A40"/>
<path d="M54.8877 136.313C57.59 143.586 61.0541 150.552 65.2223 157.096L89.8545 141.406C86.793 136.6 84.2486 131.483 82.2637 126.141L54.8877 136.313Z" fill="#ADB5BD"/>
<path d="M70.808 135.43V142.5H69.3334V136.826H69.2944L67.6733 137.842V136.543L69.4213 135.43H70.808Z" fill="#343A40"/>
<path d="M72.2486 142.5L72.2389 141.436L74.7779 139.102C75.442 138.467 75.7936 138.076 75.7936 137.52C75.7936 136.895 75.3151 136.504 74.6705 136.504C74.0065 136.504 73.5768 136.924 73.5768 137.598H72.1803C72.1705 136.211 73.1959 135.332 74.6901 135.332C76.2037 135.332 77.2096 136.191 77.2096 137.422C77.2096 138.223 76.819 138.887 75.3639 140.205L74.2897 141.25V141.289H77.3072V142.5H72.2486Z" fill="#343A40"/>
<path d="M77.8013 173.287C83.1114 178.944 89.0051 184.023 95.3839 188.439L112.008 164.428C107.323 161.184 102.994 157.453 99.0939 153.299L77.8013 173.287Z" fill="#ADB5BD"/>
<path d="M95.766 165.43V172.5H94.2914V166.826H94.2524L92.6313 167.842V166.543L94.3793 165.43H95.766Z" fill="#343A40"/>
<path d="M100.254 165.43V172.5H98.7789V166.826H98.7399L97.1188 167.842V166.543L98.8668 165.43H100.254Z" fill="#343A40"/>
<path d="M98.2646 190.367C104.779 194.58 111.722 198.092 118.976 200.845L129.336 173.54C124.009 171.518 118.909 168.938 114.124 165.844L98.2646 190.367Z" fill="#ADB5BD"/>
<path d="M98.2646 190.367C104.779 194.58 111.722 198.092 118.976 200.845L120.912 195.742C114.018 193.127 107.42 189.789 101.228 185.784L98.2646 190.367Z" fill="#6C757D"/>
<path d="M108 192.585L107.999 193.134C107.701 193.307 107.5 193.63 107.5 194C107.5 194.552 107.947 195 108.5 195C108.87 195 109.193 194.799 109.366 194.5L109.914 194.5C109.708 195.083 109.153 195.5 108.5 195.5C107.671 195.5 107 194.828 107 194C107 193.347 107.417 192.791 108 192.585ZM108.999 194.25C108.585 194.25 108.25 193.914 108.25 193.5V192.5C108.25 192.086 108.585 191.75 108.999 191.75C109.414 191.75 109.749 192.086 109.749 192.5V193.75H110.108C110.27 193.75 110.421 193.828 110.515 193.959L110.537 193.993L111.214 195.121L110.785 195.379L110.108 194.25H108.999ZM108.999 190.5C109.345 190.5 109.624 190.78 109.624 191.125C109.624 191.47 109.345 191.75 108.999 191.75C108.654 191.75 108.375 191.47 108.375 191.125C108.375 190.78 108.654 190.5 108.999 190.5Z" fill="black"/>
<path d="M113.559 178.93V186H112.084V180.326H112.045L110.424 181.342V180.043L112.172 178.93H113.559ZM117.744 186.098C115.976 186.098 114.902 184.779 114.902 182.465C114.902 180.15 115.976 178.832 117.744 178.832C119.511 178.832 120.586 180.16 120.586 182.465C120.586 184.789 119.511 186.098 117.744 186.098ZM117.744 184.887C118.564 184.887 119.091 184.096 119.082 182.465C119.082 180.854 118.564 180.033 117.744 180.033C116.923 180.033 116.406 180.854 116.406 182.465C116.396 184.096 116.923 184.887 117.744 184.887Z" fill="#343A40"/>
<path d="M121.569 201.95C128.924 204.42 136.519 206.105 144.229 206.977L147.51 177.957C141.847 177.316 136.269 176.079 130.866 174.265L121.569 201.95Z" fill="#ADB5BD"/>
<path d="M121.562 202.002C128.898 204.529 136.565 206.319 144.267 207.25L144.846 201.715C137.531 200.83 130.33 199.174 123.363 196.774L121.562 202.002Z" fill="#6C757D"/>
<path d="M136.422 184.832C137.887 184.842 139.273 185.711 139.273 188.279C139.283 190.682 138.141 192.098 136.363 192.098C134.937 192.098 133.971 191.209 133.824 190.008L135.27 190.008C135.387 190.526 135.797 190.838 136.363 190.838C137.33 190.838 137.838 189.979 137.838 188.563L137.779 188.563C137.447 189.188 136.754 189.559 135.963 189.559C134.693 189.559 133.756 188.602 133.746 187.283C133.746 185.858 134.82 184.822 136.422 184.832ZM136.432 185.984C135.709 185.984 135.172 186.541 135.182 187.244C135.182 187.938 135.699 188.484 136.422 188.484C137.135 188.484 137.691 187.918 137.691 187.234C137.682 186.561 137.154 185.984 136.432 185.984Z" fill="#343A40"/>
<path d="M133.267 202.585L133.267 203.134C132.968 203.307 132.767 203.63 132.767 204C132.767 204.552 133.214 205 133.767 205C134.137 205 134.46 204.799 134.633 204.5L135.181 204.5C134.975 205.083 134.42 205.5 133.767 205.5C132.938 205.5 132.267 204.829 132.267 204C132.267 203.347 132.684 202.791 133.267 202.585ZM134.267 204.25C133.852 204.25 133.517 203.914 133.517 203.5V202.5C133.517 202.086 133.852 201.75 134.267 201.75C134.681 201.75 135.017 202.086 135.017 202.5V203.75H135.375C135.537 203.75 135.688 203.829 135.782 203.959L135.804 203.993L136.481 205.121L136.052 205.379L135.375 204.25H134.267ZM134.267 200.5C134.612 200.5 134.892 200.78 134.892 201.125C134.892 201.47 134.612 201.75 134.267 201.75C133.921 201.75 133.642 201.47 133.642 201.125C133.642 200.78 133.921 200.5 134.267 200.5Z" fill="black"/>
<path d="M169.21 207.089C161.493 207.889 153.713 207.871 146 207.034L149.15 178C154.815 178.615 160.53 178.628 166.198 178.04L169.21 207.089Z" fill="#ADB5BD"/>
<path d="M157.511 195.753C155.9 195.753 154.738 194.903 154.738 193.751C154.738 192.862 155.421 192.14 156.3 192.003V191.954C155.538 191.808 155.011 191.163 155.011 190.391C155.011 189.288 156.066 188.487 157.511 188.487C158.956 188.487 160.011 189.288 160.021 190.391C160.011 191.173 159.474 191.808 158.732 191.954V192.003C159.591 192.14 160.284 192.862 160.284 193.751C160.284 194.903 159.122 195.753 157.511 195.753ZM157.511 194.63C158.253 194.63 158.751 194.21 158.751 193.604C158.751 192.989 158.234 192.54 157.511 192.54C156.788 192.54 156.261 192.989 156.271 193.604C156.261 194.21 156.759 194.63 157.511 194.63ZM157.511 191.505C158.136 191.505 158.585 191.104 158.585 190.538C158.585 189.991 158.146 189.6 157.511 189.6C156.876 189.6 156.447 189.981 156.447 190.538C156.447 191.104 156.886 191.505 157.511 191.505Z" fill="#343A40"/>
<path d="M193.698 201.95C186.343 204.42 178.75 206 171.039 206.977L167.757 177.957C173.42 177.316 178.999 176.079 184.401 174.265L193.698 201.95Z" fill="#ADB5BD"/>
<path d="M193.698 201.95C186.5 204.5 178.741 206.045 171.039 206.977L170.445 201.725C177.76 200.84 185.013 199.233 191.98 196.833L193.698 201.95Z" fill="#6C757D"/>
<path d="M177.221 192L180.199 186.18L180.199 186.131L176.733 186.131L176.733 184.93L181.723 184.93L181.723 186.151L178.744 192L177.221 192Z" fill="#343A40"/>
<path d="M180 202.085L179.999 202.634C179.701 202.807 179.5 203.13 179.5 203.5C179.5 204.052 179.947 204.5 180.5 204.5C180.87 204.5 181.193 204.299 181.366 204L181.914 204C181.708 204.583 181.153 205 180.5 205C179.671 205 179 204.328 179 203.5C179 202.847 179.417 202.291 180 202.085ZM180.999 203.75C180.585 203.75 180.25 203.414 180.25 203V202C180.25 201.586 180.585 201.25 180.999 201.25C181.414 201.25 181.749 201.586 181.749 202V203.25H182.108C182.27 203.25 182.421 203.329 182.515 203.459L182.537 203.493L183.214 204.621L182.785 204.879L182.108 203.75H180.999ZM180.999 200C181.345 200 181.624 200.28 181.624 200.625C181.624 200.97 181.345 201.25 180.999 201.25C180.654 201.25 180.375 200.97 180.375 200.625C180.375 200.28 180.654 200 180.999 200Z" fill="black"/>
<path d="M217.735 190.367C211.221 194.58 204.278 198.093 197.024 200.845L186.664 173.54C191.992 171.518 197.091 168.939 201.876 165.844L217.735 190.367Z" fill="#ADB5BD"/>
<path d="M217.735 190.367C211.221 194.58 204.278 198.093 197.024 200.845L195.088 195.743C201.982 193.127 208.58 189.789 214.772 185.785L217.735 190.367Z" fill="#6C757D"/>
<path d="M201.578 186.098C200.113 186.088 198.727 185.219 198.727 182.631C198.727 180.248 199.869 178.832 201.637 178.832C203.062 178.832 204.029 179.731 204.176 180.893H202.73C202.613 180.395 202.203 180.092 201.637 180.092C200.68 180.092 200.172 180.961 200.162 182.348H200.23C200.553 181.723 201.256 181.352 202.037 181.352C203.307 181.352 204.254 182.309 204.254 183.637C204.254 185.072 203.17 186.108 201.578 186.098ZM201.568 184.936C202.291 184.936 202.828 184.389 202.828 183.676C202.828 182.973 202.311 182.416 201.588 182.416C200.865 182.416 200.318 182.983 200.309 183.676C200.318 184.369 200.846 184.936 201.568 184.936Z" fill="#343A40"/>
<path d="M205 192.585L204.999 193.134C204.701 193.307 204.5 193.63 204.5 194C204.5 194.552 204.947 195 205.5 195C205.87 195 206.193 194.799 206.366 194.5L206.914 194.5C206.708 195.083 206.153 195.5 205.5 195.5C204.671 195.5 204 194.829 204 194C204 193.347 204.417 192.791 205 192.585ZM205.999 194.25C205.585 194.25 205.25 193.914 205.25 193.5V192.5C205.25 192.086 205.585 191.75 205.999 191.75C206.414 191.75 206.749 192.086 206.749 192.5V193.75H207.108C207.27 193.75 207.421 193.829 207.515 193.959L207.537 193.993L208.214 195.121L207.785 195.379L207.108 194.25H205.999ZM205.999 190.5C206.345 190.5 206.624 190.78 206.624 191.125C206.624 191.47 206.345 191.75 205.999 191.75C205.654 191.75 205.375 191.47 205.375 191.125C205.375 190.78 205.654 190.5 205.999 190.5Z" fill="black"/>
<path d="M238.199 173.287C232.889 178.944 226.995 184.023 220.616 188.439L203.992 164.428C208.677 161.184 213.006 157.453 216.906 153.299L238.199 173.287Z" fill="#ADB5BD"/>
<path d="M218.27 172.598C216.795 172.598 215.721 171.729 215.691 170.508H217.117C217.146 171.064 217.654 171.436 218.27 171.436C219.002 171.436 219.52 170.918 219.52 170.186C219.52 169.434 218.992 168.916 218.25 168.906C217.723 168.906 217.352 169.102 217.137 169.502H215.809L216.189 165.43H220.545V166.631H217.4L217.205 168.418H217.264C217.527 168.066 218.055 167.822 218.68 167.822C219.979 167.822 220.945 168.789 220.945 170.146C220.945 171.572 219.861 172.598 218.27 172.598Z" fill="#343A40"/>
<path d="M261.112 136.313C258.41 143.586 254.946 150.552 250.778 157.096L226.146 141.406C229.207 136.6 231.751 131.483 233.736 126.141L261.112 136.313Z" fill="#ADB5BD"/>
<path d="M240.653 141.25V140.088L243.642 135.43H245.487V140.068H246.386V141.25H245.487V142.5H244.091V141.25H240.653ZM242.138 140.068H244.11V137.041H244.042L242.138 140.01V140.068Z" fill="#343A40"/>
<path d="M267.19 111.32C266.251 119.022 264.499 126.602 261.965 133.935L234.362 124.394C236.224 119.008 237.511 113.44 238.201 107.784L267.19 111.32Z" fill="#ADB5BD"/>
<path d="M251.23 121.598C249.678 121.598 248.564 120.738 248.535 119.508H250.02C250.049 120.035 250.557 120.387 251.24 120.387C251.943 120.387 252.451 119.986 252.441 119.42C252.451 118.844 251.934 118.434 251.104 118.434H250.449V117.35H251.104C251.797 117.35 252.285 116.969 252.285 116.412C252.285 115.875 251.875 115.504 251.25 115.504C250.625 115.504 250.107 115.856 250.088 116.393H248.682C248.701 115.172 249.805 114.332 251.25 114.332C252.725 114.332 253.711 115.201 253.701 116.324C253.711 117.115 253.154 117.682 252.363 117.818V117.877C253.398 118.004 253.975 118.639 253.965 119.518C253.975 120.729 252.822 121.598 251.23 121.598Z" fill="#343A40"/>
<path d="M267.365 86.2007C268.198 93.9144 268.211 101.695 267.407 109.411L238.359 106.382C238.951 100.714 238.94 94.9991 238.329 89.3334L267.365 86.2007Z" fill="#ADB5BD"/>
<path d="M250.755 100.5L250.745 99.4355L253.284 97.1016C253.948 96.4668 254.3 96.0762 254.3 95.5195C254.3 94.8945 253.821 94.5039 253.177 94.5039C252.513 94.5039 252.083 94.9238 252.083 95.5977H250.687C250.677 94.2109 251.702 93.332 253.196 93.332C254.71 93.332 255.716 94.1914 255.716 95.4219C255.716 96.2227 255.325 96.8867 253.87 98.2051L252.796 99.25V99.2891H255.813V100.5H250.755Z" fill="#343A40"/>
<path d="M261.755 61.4634C264.332 68.7814 266.127 76.3515 267.111 84.0473L238.142 87.7518C237.42 82.0992 236.101 76.5389 234.208 71.1638L261.755 61.4634Z" fill="#ADB5BD"/>
<path d="M251.76 72.4298V79.5001H250.285V73.8263H250.246L248.625 74.8419V73.5431L250.373 72.4298H251.76Z" fill="#343A40"/>
<path d="M203 117L210.5 103H228C227.5 118.5 225.8 128 217 140C208.2 152 191.167 162 184 165.5V117H203Z" fill="#009989"/>
<path d="M189.675 133V127.344H193.402V128.312H190.847V129.688H193.16V130.656H190.847V133H189.675Z" fill="black"/>
<path d="M194.015 133V127.344H195.187V132.031H197.625V133H194.015Z" fill="black"/>
<path d="M203.176 130.172C203.176 132.016 202.027 133.078 200.535 133.078C199.027 133.078 197.887 132.008 197.887 130.172C197.887 128.328 199.027 127.266 200.535 127.266C202.027 127.266 203.176 128.328 203.176 130.172ZM201.98 130.172C201.98 128.961 201.41 128.305 200.535 128.305C199.66 128.305 199.082 128.961 199.082 130.172C199.082 131.383 199.66 132.039 200.535 132.039C201.41 132.039 201.98 131.383 201.98 130.172Z" fill="black"/>
<path d="M209.039 130.172C209.039 132.016 207.891 133.078 206.399 133.078C204.891 133.078 203.75 132.008 203.75 130.172C203.75 128.328 204.891 127.266 206.399 127.266C207.891 127.266 209.039 128.328 209.039 130.172ZM207.844 130.172C207.844 128.961 207.274 128.305 206.399 128.305C205.524 128.305 204.945 128.961 204.945 130.172C204.945 131.383 205.524 132.039 206.399 132.039C207.274 132.039 207.844 131.383 207.844 130.172Z" fill="black"/>
<path d="M209.723 133V127.344H211.942C213.231 127.344 213.965 128.07 213.965 129.188C213.965 129.961 213.61 130.523 212.965 130.797L214.168 133H212.871L211.793 130.992H210.895V133H209.723ZM210.895 130.039H211.723C212.418 130.039 212.754 129.75 212.754 129.188C212.754 128.617 212.418 128.305 211.723 128.305H210.895V130.039Z" fill="black"/>
<path d="M199.871 141V135.344H203.668V136.312H201.043V137.688H203.473V138.656H201.043V140.031H203.676V141H199.871Z" fill="black"/>
<path d="M135 168V130H143V133.5H172V130H180V168H135Z" fill="#009989"/>
<path d="M145.425 150V144.344H149.152V145.312H146.597V146.688H148.91V147.656H146.597V150H145.425Z" fill="black"/>
<path d="M149.765 150V144.344H150.937V149.031H153.375V150H149.765Z" fill="black"/>
<path d="M158.926 147.172C158.926 149.016 157.777 150.078 156.285 150.078C154.777 150.078 153.637 149.008 153.637 147.172C153.637 145.328 154.777 144.266 156.285 144.266C157.777 144.266 158.926 145.328 158.926 147.172ZM157.73 147.172C157.73 145.961 157.16 145.305 156.285 145.305C155.41 145.305 154.832 145.961 154.832 147.172C154.832 148.383 155.41 149.039 156.285 149.039C157.16 149.039 157.73 148.383 157.73 147.172Z" fill="black"/>
<path d="M164.789 147.172C164.789 149.016 163.641 150.078 162.149 150.078C160.641 150.078 159.5 149.008 159.5 147.172C159.5 145.328 160.641 144.266 162.149 144.266C163.641 144.266 164.789 145.328 164.789 147.172ZM163.594 147.172C163.594 145.961 163.024 145.305 162.149 145.305C161.274 145.305 160.695 145.961 160.695 147.172C160.695 148.383 161.274 149.039 162.149 149.039C163.024 149.039 163.594 148.383 163.594 147.172Z" fill="black"/>
<path d="M165.473 150V144.344H167.692C168.981 144.344 169.715 145.07 169.715 146.188C169.715 146.961 169.36 147.523 168.715 147.797L169.918 150H168.621L167.543 147.992H166.645V150H165.473ZM166.645 147.039H167.473C168.168 147.039 168.504 146.75 168.504 146.188C168.504 145.617 168.168 145.305 167.473 145.305H166.645V147.039Z" fill="black"/>
<path d="M157.164 158H155.172V152.344H157.188C158.891 152.344 159.93 153.406 159.93 155.164C159.93 156.938 158.891 158 157.164 158ZM156.344 156.992H157.117C158.195 156.992 158.758 156.43 158.758 155.164C158.758 153.906 158.195 153.352 157.125 153.352H156.344V156.992Z" fill="black"/>
<path d="M111 117L103.5 103H86C86.5 118.5 88.2 128 97 140C105.8 152 122.833 162 130 165.5V117H111Z" fill="#009989"/>
<path d="M100.675 133V127.344H104.402V128.312H101.847V129.688H104.16V130.656H101.847V133H100.675Z" fill="black"/>
<path d="M105.015 133V127.344H106.187V132.031H108.625V133H105.015Z" fill="black"/>
<path d="M114.176 130.172C114.176 132.016 113.027 133.078 111.535 133.078C110.027 133.078 108.887 132.008 108.887 130.172C108.887 128.328 110.027 127.266 111.535 127.266C113.027 127.266 114.176 128.328 114.176 130.172ZM112.98 130.172C112.98 128.961 112.41 128.305 111.535 128.305C110.66 128.305 110.082 128.961 110.082 130.172C110.082 131.383 110.66 132.039 111.535 132.039C112.41 132.039 112.98 131.383 112.98 130.172Z" fill="black"/>
<path d="M120.039 130.172C120.039 132.016 118.891 133.078 117.399 133.078C115.891 133.078 114.75 132.008 114.75 130.172C114.75 128.328 115.891 127.266 117.399 127.266C118.891 127.266 120.039 128.328 120.039 130.172ZM118.844 130.172C118.844 128.961 118.274 128.305 117.399 128.305C116.524 128.305 115.945 128.961 115.945 130.172C115.945 131.383 116.524 132.039 117.399 132.039C118.274 132.039 118.844 131.383 118.844 130.172Z" fill="black"/>
<path d="M120.723 133V127.344H122.942C124.231 127.344 124.965 128.07 124.965 129.188C124.965 129.961 124.61 130.523 123.965 130.797L125.168 133H123.871L122.793 130.992H121.895V133H120.723ZM121.895 130.039H122.723C123.418 130.039 123.754 129.75 123.754 129.188C123.754 128.617 123.418 128.305 122.723 128.305H121.895V130.039Z" fill="black"/>
<path d="M114.113 137.312C114.02 136.688 113.535 136.305 112.879 136.305C111.996 136.305 111.418 136.984 111.418 138.172C111.418 139.391 112.004 140.039 112.871 140.039C113.52 140.039 113.996 139.68 114.113 139.07L115.301 139.078C115.168 140.125 114.293 141.078 112.855 141.078C111.34 141.078 110.223 140.016 110.223 138.172C110.223 136.328 111.363 135.266 112.855 135.266C114.16 135.266 115.145 136.016 115.301 137.312H114.113Z" fill="black"/>
<path d="M173 56H223.5V76.5L227.5 95.5L210.5 96L202 84.5L180.5 85L174 75L173 56Z" fill="#009989"/>
<path d="M186.675 67V61.3438H190.402V62.3125H187.847V63.6875H190.16V64.6562H187.847V67H186.675Z" fill="black"/>
<path d="M191.015 67V61.3438H192.187V66.0312H194.625V67H191.015Z" fill="black"/>
<path d="M200.176 64.1719C200.176 66.0156 199.027 67.0781 197.535 67.0781C196.027 67.0781 194.887 66.0078 194.887 64.1719C194.887 62.3281 196.027 61.2656 197.535 61.2656C199.027 61.2656 200.176 62.3281 200.176 64.1719ZM198.98 64.1719C198.98 62.9609 198.41 62.3047 197.535 62.3047C196.66 62.3047 196.082 62.9609 196.082 64.1719C196.082 65.3828 196.66 66.0391 197.535 66.0391C198.41 66.0391 198.98 65.3828 198.98 64.1719Z" fill="black"/>
<path d="M206.039 64.1719C206.039 66.0156 204.891 67.0781 203.399 67.0781C201.891 67.0781 200.75 66.0078 200.75 64.1719C200.75 62.3281 201.891 61.2656 203.399 61.2656C204.891 61.2656 206.039 62.3281 206.039 64.1719ZM204.844 64.1719C204.844 62.9609 204.274 62.3047 203.399 62.3047C202.524 62.3047 201.945 62.9609 201.945 64.1719C201.945 65.3828 202.524 66.0391 203.399 66.0391C204.274 66.0391 204.844 65.3828 204.844 64.1719Z" fill="black"/>
<path d="M206.723 67V61.3438H208.942C210.231 61.3438 210.965 62.0703 210.965 63.1875C210.965 63.9609 210.61 64.5234 209.965 64.7969L211.168 67H209.871L208.793 64.9922H207.895V67H206.723ZM207.895 64.0391H208.723C209.418 64.0391 209.754 63.75 209.754 63.1875C209.754 62.6172 209.418 62.3047 208.723 62.3047H207.895V64.0391Z" fill="black"/>
<path d="M196.68 75V69.3438H198.93C200.18 69.3438 200.805 69.9453 200.805 70.7969C200.805 71.4609 200.375 71.875 199.789 72.0078V72.0625C200.43 72.0938 201.031 72.6016 201.031 73.4375C201.031 74.3359 200.359 75 199.078 75H196.68ZM198.844 74.0312C199.523 74.0312 199.812 73.75 199.812 73.3281C199.812 72.8516 199.453 72.5156 198.875 72.5156H197.852V74.0312H198.844ZM198.758 71.7109C199.25 71.7109 199.617 71.4375 199.617 70.9844C199.617 70.5781 199.32 70.2969 198.781 70.2969H197.852V71.7109H198.758Z" fill="black"/>
<path d="M141.5 56H91V76.5L87 95.5L104 96L112.5 84.5L134 85L140.5 75L141.5 56Z" fill="#009989"/>
<path d="M101.834 67V61.3438H105.56V62.3125H103.005V63.6875H105.318V64.6562H103.005V67H101.834Z" fill="black"/>
<path d="M106.174 67V61.3438H107.345V66.0312H109.783V67H106.174Z" fill="black"/>
<path d="M115.334 64.1719C115.334 66.0156 114.185 67.0781 112.693 67.0781C111.185 67.0781 110.045 66.0078 110.045 64.1719C110.045 62.3281 111.185 61.2656 112.693 61.2656C114.185 61.2656 115.334 62.3281 115.334 64.1719ZM114.139 64.1719C114.139 62.9609 113.568 62.3047 112.693 62.3047C111.818 62.3047 111.24 62.9609 111.24 64.1719C111.24 65.3828 111.818 66.0391 112.693 66.0391C113.568 66.0391 114.139 65.3828 114.139 64.1719Z" fill="black"/>
<path d="M121.197 64.1719C121.197 66.0156 120.049 67.0781 118.557 67.0781C117.049 67.0781 115.908 66.0078 115.908 64.1719C115.908 62.3281 117.049 61.2656 118.557 61.2656C120.049 61.2656 121.197 62.3281 121.197 64.1719ZM120.002 64.1719C120.002 62.9609 119.432 62.3047 118.557 62.3047C117.682 62.3047 117.104 62.9609 117.104 64.1719C117.104 65.3828 117.682 66.0391 118.557 66.0391C119.432 66.0391 120.002 65.3828 120.002 64.1719Z" fill="black"/>
<path d="M121.881 67V61.3438H124.1C125.389 61.3438 126.123 62.0703 126.123 63.1875C126.123 63.9609 125.768 64.5234 125.123 64.7969L126.326 67H125.03L123.951 64.9922H123.053V67H121.881ZM123.053 64.0391H123.881C124.576 64.0391 124.912 63.75 124.912 63.1875C124.912 62.6172 124.576 62.3047 123.881 62.3047H123.053V64.0391Z" fill="black"/>
<path d="M113.301 75H112.035L113.996 69.3438H115.504L117.457 75H116.199L115.777 73.6953H113.73L113.301 75ZM114.027 72.7812H115.48L114.77 70.6172H114.73L114.027 72.7812Z" fill="black"/>
<path d="M75 0C73.8954 0 73 0.895431 73 2V38C73 39.1046 73.8954 40 75 40H145V78.0629C139.544 81.0537 135.326 86.0204 133.307 92H118C116.895 92 116 92.8954 116 94V106C116 107.105 116.895 108 118 108H133.307C136.643 117.884 145.991 125 157 125C168.009 125 177.357 117.884 180.693 108H196C197.105 108 198 107.105 198 106V94C198 92.8954 197.105 92 196 92H180.693C178.674 86.0204 174.456 81.0537 169 78.0629V40H239C240.105 40 241 39.1046 241 38V2C241 0.895431 240.105 0 239 0H75Z" fill="#343A40"/>
<path d="M139.765 15.7969C139.671 14.8281 138.843 14.2656 137.624 14.2656C136.343 14.2656 135.562 14.8906 135.562 15.7344C135.562 16.6875 136.562 17.0781 137.499 17.2969L138.562 17.5781C140.249 17.9688 141.874 18.8594 141.874 20.8281C141.874 22.8125 140.312 24.1719 137.593 24.1719C134.953 24.1719 133.296 22.9062 133.203 20.6719H135.203C135.296 21.8594 136.296 22.4375 137.578 22.4375C138.921 22.4375 139.843 21.7812 139.843 20.8125C139.843 19.9219 139.015 19.5469 137.796 19.2344L136.515 18.9062C134.656 18.4219 133.499 17.4844 133.499 15.8594C133.499 13.8594 135.281 12.5312 137.656 12.5312C140.062 12.5312 141.687 13.8906 141.718 15.7969H139.765Z" fill="#ADB5BD"/>
<path d="M142.742 14.3906V12.6875H151.758V14.3906H148.273V24H146.242V14.3906H142.742Z" fill="#ADB5BD"/>
<path d="M153.094 24H150.922L154.906 12.6875H157.406L161.406 24H159.234L158.297 21.2031H154.031L153.094 24ZM154.578 19.5625H157.75L156.203 15H156.109L154.578 19.5625Z" fill="#ADB5BD"/>
<path d="M169.477 16.2969C169.118 15.0938 168.18 14.3594 166.805 14.3594C164.977 14.3594 163.664 15.7812 163.664 18.3281C163.664 20.9062 164.961 22.3281 166.852 22.3281C168.555 22.3281 169.649 21.2969 169.68 19.6875H167.055V18.0781H171.649V19.4375C171.649 22.3438 169.649 24.1562 166.852 24.1562C163.727 24.1562 161.618 21.9375 161.618 18.3438C161.618 14.7188 163.821 12.5312 166.789 12.5312C169.289 12.5312 171.211 14.0781 171.555 16.2969H169.477Z" fill="#ADB5BD"/>
<path d="M173.173 24V12.6875H180.532V14.3906H175.204V17.4844H180.141V19.1875H175.204V22.2812H180.563V24H173.173Z" fill="#ADB5BD"/>
<path d="M144.074 98.3477C144.003 97.6211 143.382 97.1992 142.468 97.1992C141.507 97.1992 140.921 97.668 140.921 98.3008C140.921 99.0156 141.671 99.3086 142.375 99.4727L143.171 99.6836C144.437 99.9766 145.656 100.645 145.656 102.121C145.656 103.609 144.484 104.629 142.445 104.629C140.464 104.629 139.222 103.68 139.152 102.004H140.652C140.722 102.895 141.472 103.328 142.433 103.328C143.441 103.328 144.132 102.836 144.132 102.109C144.132 101.441 143.511 101.16 142.597 100.926L141.636 100.68C140.242 100.316 139.375 99.6133 139.375 98.3945C139.375 96.8945 140.71 95.8984 142.492 95.8984C144.296 95.8984 145.515 96.918 145.539 98.3477H144.074Z" fill="#ADB5BD"/>
<path d="M146.306 97.293V96.0156H153.068V97.293H150.455V104.5H148.931V97.293H146.306Z" fill="#ADB5BD"/>
<path d="M154.07 104.5H152.441L155.43 96.0156H157.305L160.305 104.5H158.676L157.973 102.402H154.773L154.07 104.5ZM155.184 101.172H157.563L156.402 97.75H156.332L155.184 101.172Z" fill="#ADB5BD"/>
<path d="M166.358 98.7227C166.088 97.8203 165.385 97.2695 164.354 97.2695C162.983 97.2695 161.998 98.3359 161.998 100.246C161.998 102.18 162.971 103.246 164.389 103.246C165.666 103.246 166.487 102.473 166.51 101.266H164.541V100.059H167.987V101.078C167.987 103.258 166.487 104.617 164.389 104.617C162.045 104.617 160.463 102.953 160.463 100.258C160.463 97.5391 162.115 95.8984 164.342 95.8984C166.217 95.8984 167.658 97.0586 167.916 98.7227H166.358Z" fill="#ADB5BD"/>
<path d="M169.129 104.5V96.0156H174.649V97.293H170.653V99.6133H174.356V100.891H170.653V103.211H174.672V104.5H169.129Z" fill="#ADB5BD"/>
<rect x="69.5" y="276.5" width="53.75" height="15" rx="2.5" fill="#009989"/>
<path d="M83.3607 287V280.813H87.3256V281.745H84.4716V283.437H87.0521V284.368H84.4716V287H83.3607ZM88.0905 287V280.813H89.2014V286.06H91.9357V287H88.0905ZM97.9216 283.907C97.9216 285.906 96.7083 287.085 95.0847 287.085C93.4612 287.085 92.2478 285.898 92.2478 283.907C92.2478 281.907 93.4612 280.728 95.0847 280.728C96.7083 280.728 97.9216 281.907 97.9216 283.907ZM96.8022 283.907C96.8022 282.497 96.093 281.728 95.0847 281.728C94.0764 281.728 93.3672 282.497 93.3672 283.907C93.3672 285.317 94.0764 286.086 95.0847 286.086C96.093 286.086 96.8022 285.317 96.8022 283.907ZM104.258 283.907C104.258 285.906 103.044 287.085 101.421 287.085C99.7974 287.085 98.584 285.898 98.584 283.907C98.584 281.907 99.7974 280.728 101.421 280.728C103.044 280.728 104.258 281.907 104.258 283.907ZM103.138 283.907C103.138 282.497 102.429 281.728 101.421 281.728C100.413 281.728 99.7034 282.497 99.7034 283.907C99.7034 285.317 100.413 286.086 101.421 286.086C102.429 286.086 103.138 285.317 103.138 283.907ZM105.074 287V280.813H107.398C108.817 280.813 109.577 281.608 109.577 282.787C109.577 283.629 109.193 284.253 108.466 284.548L109.799 287H108.56L107.347 284.736H106.185V287H105.074ZM106.185 283.804H107.227C108.065 283.804 108.441 283.445 108.441 282.787C108.441 282.129 108.065 281.745 107.227 281.745H106.185V283.804Z" fill="black"/>
<rect x="131.25" y="276.5" width="53.75" height="15" rx="2.5" fill="#ADB5BD"/>
<path d="M156.777 280.813V287H155.658V281.899H155.623L154.179 282.822V281.805L155.709 280.813H156.777ZM158.166 287V280.813H162.131V281.745H159.277V283.437H161.857V284.368H159.277V287H158.166Z" fill="black"/>
<rect x="193" y="276.5" width="53.75" height="15" rx="2.5" fill="#F8F9FA"/>
<path d="M215.387 287V286.197L217.574 284.086C218.198 283.462 218.523 283.095 218.523 282.574C218.523 282.001 218.07 281.634 217.463 281.634C216.822 281.634 216.412 282.035 216.421 282.659H215.361C215.353 281.489 216.233 280.728 217.472 280.728C218.736 280.728 219.591 281.48 219.591 282.522C219.591 283.223 219.249 283.787 218.036 284.932L216.933 286.026V286.069H219.685V287H215.387ZM220.544 287V280.813H224.509V281.745H221.655V283.437H224.235V284.368H221.655V287H220.544Z" fill="black"/>
<path d="M279.555 49.2344L279.547 48.3828L281.578 46.5156C282.109 46.0078 282.391 45.6953 282.391 45.25C282.391 44.75 282.008 44.4375 281.492 44.4375C280.961 44.4375 280.617 44.7734 280.617 45.3125H279.5C279.492 44.2031 280.313 43.5 281.508 43.5C282.719 43.5 283.523 44.1875 283.523 45.1719C283.523 45.8125 283.211 46.3438 282.047 47.3984L281.188 48.2344V48.2656H283.602V49.2344H279.555Z" fill="#ADB5BD"/>
<path d="M284.309 49.2344V43.5781H288.035V44.5469H285.481V45.9219H287.793V46.8906H285.481V49.2344H284.309Z" fill="#ADB5BD"/>
<path d="M26.5547 49.2344L26.5469 48.3828L28.5782 46.5156C29.1094 46.0078 29.3907 45.6953 29.3907 45.25C29.3907 44.75 29.0079 44.4375 28.4922 44.4375C27.961 44.4375 27.6172 44.7734 27.6172 45.3125H26.5001C26.4922 44.2031 27.3126 43.5 28.5079 43.5C29.7188 43.5 30.5235 44.1875 30.5235 45.1719C30.5235 45.8125 30.211 46.3438 29.0469 47.3984L28.1876 48.2344V48.2656H30.6016V49.2344H26.5547Z" fill="#ADB5BD"/>
<path d="M31.3088 49.2344V43.5781H35.0354V44.5469H32.4807V45.9219H34.7932V46.8906H32.4807V49.2344H31.3088Z" fill="#ADB5BD"/>
<path d="M245.008 57.5V63.1562H243.828V58.6172H243.797L242.5 59.4297V58.3906L243.898 57.5H245.008Z" fill="#ADB5BD"/>
<path d="M246.192 63.1562V57.5H249.918V58.4688H247.363V59.8438H249.676V60.8125H247.363V63.1562H246.192Z" fill="#ADB5BD"/>
<path d="M68.0078 57.5V63.1562H66.8281V58.6172H66.7969L65.5 59.4297V58.3906L66.8984 57.5H68.0078Z" fill="#ADB5BD"/>
<path d="M69.1916 63.1562V57.5H72.9181V58.4688H70.3634V59.8438H72.6759V60.8125H70.3634V63.1562H69.1916Z" fill="#ADB5BD"/>
</svg>
