<svg width="21" height="21" viewBox="0 0 21 21" fill="none" xmlns="http://www.w3.org/2000/svg">
<g id="Frame">
<path id="Vector" d="M10.6204 19.3215C6.01807 19.3215 2.28711 15.5905 2.28711 10.9881C2.28711 6.38574 6.01807 2.65479 10.6204 2.65479C15.2228 2.65479 18.9538 6.38574 18.9538 10.9881C18.9538 15.5905 15.2228 19.3215 10.6204 19.3215ZM10.6204 8.90479C11.3108 8.90479 11.8704 8.34514 11.8704 7.65479C11.8704 6.96443 11.3108 6.40479 10.6204 6.40479C9.93011 6.40479 9.37044 6.96443 9.37044 7.65479C9.37044 8.34514 9.93011 8.90479 10.6204 8.90479ZM12.2871 13.4881H11.4538V9.73812H8.95378V11.4048H9.78711V13.4881H8.95378V15.1548H12.2871V13.4881Z" fill="#00CCB7"/>
</g>
</svg>
