<svg width="24" height="24" viewBox="0 0 24 24" fill="none" xmlns="http://www.w3.org/2000/svg">
<g id="btn_linkCopy">
<path id="Vector" d="M17.6572 14.8285L16.243 13.4143L17.6572 12.0001C19.2193 10.438 19.2193 7.9053 17.6572 6.3432C16.0951 4.78111 13.5624 4.78111 12.0003 6.3432L10.5861 7.75742L9.17188 6.3432L10.5861 4.92899C12.9292 2.58584 16.7282 2.58584 19.0714 4.92899C21.4145 7.27214 21.4145 11.0712 19.0714 13.4143L17.6572 14.8285ZM14.8287 17.657L13.4145 19.0712C11.0714 21.4143 7.27238 21.4143 4.92924 19.0712C2.58609 16.728 2.58609 12.929 4.92924 10.5859L6.34345 9.17163L7.75766 10.5859L6.34345 12.0001C4.78135 13.5622 4.78135 16.0949 6.34345 17.657C7.90555 19.219 10.4382 19.219 12.0003 17.657L13.4145 16.2427L14.8287 17.657ZM14.8287 7.75742L16.243 9.17163L9.17188 16.2427L7.75766 14.8285L14.8287 7.75742Z" fill="black"/>
</g>
</svg>
