<svg width="20" height="20" viewBox="0 0 20 20" fill="none" xmlns="http://www.w3.org/2000/svg">
<g id="Frame">
<path id="Vector" d="M18.3327 10.0003C18.3327 14.6027 14.6018 18.3337 9.99935 18.3337C5.39702 18.3337 1.66602 14.6027 1.66602 10.0003C1.66602 5.39795 5.39702 1.66699 9.99935 1.66699V3.33366C6.31743 3.33366 3.33268 6.31843 3.33268 10.0003C3.33268 13.6822 6.31743 16.667 9.99935 16.667C13.6813 16.667 16.666 13.6822 16.666 10.0003C16.666 7.70884 15.5099 5.68738 13.7492 4.48742L13.7493 6.66699H12.0827V1.66699H17.0827V3.33366L15 3.33357C17.0238 4.85394 18.3327 7.27427 18.3327 10.0003Z" fill="#ADB5BD"/>
</g>
</svg>
