<svg xmlns="http://www.w3.org/2000/svg" width="10" height="10" viewBox="0 0 10 10" fill="none">
  <path d="M7.89172 7.19554L10 9.30382L9.30382 10L7.19554 7.89172C6.43748 8.49821 5.47611 8.86102 4.43051 8.86102C1.98487 8.86102 0 6.87615 0 4.43051C0 1.98487 1.98487 0 4.43051 0C6.87615 0 8.86102 1.98487 8.86102 4.43051C8.86102 5.47611 8.49821 6.43748 7.89172 7.19554ZM6.90406 6.83027C7.50602 6.2099 7.87646 5.36367 7.87646 4.43051C7.87646 2.52662 6.33439 0.984557 4.43051 0.984557C2.52662 0.984557 0.984557 2.52662 0.984557 4.43051C0.984557 6.33439 2.52662 7.87646 4.43051 7.87646C5.36367 7.87646 6.2099 7.50602 6.83027 6.90406L6.90406 6.83027Z" fill="#ADB5BD"/>
</svg>