<svg width="24" height="28" viewBox="0 0 24 28" fill="none" xmlns="http://www.w3.org/2000/svg">
<path d="M11.9999 20.6667C16.8831 20.6667 21.1532 22.7668 23.476 25.8996L21.02 27.0614C19.1298 24.821 15.7964 23.3334 11.9999 23.3334C8.20335 23.3334 4.87007 24.821 2.97977 27.0614L0.52478 25.8984C2.84773 22.7663 7.11733 20.6667 11.9999 20.6667ZM11.9999 0.666687C15.6818 0.666687 18.6666 3.65146 18.6666 7.33335V11.3334C18.6666 14.9184 15.8368 17.8424 12.2891 17.9939L11.9999 18C8.31801 18 5.33325 15.0152 5.33325 11.3334V7.33335C5.33325 3.74835 8.16298 0.82426 11.7107 0.672847L11.9999 0.666687ZM11.9999 3.33335C9.86965 3.33335 8.12835 4.99858 8.0067 7.09833L7.99991 7.33335V11.3334C7.99991 13.5426 9.79071 15.3334 11.9999 15.3334C14.1302 15.3334 15.8715 13.6682 15.9931 11.5684L15.9999 11.3334V7.33335C15.9999 5.12422 14.209 3.33335 11.9999 3.33335Z" fill="#ADB5BD"/>
</svg>
