<svg width="32" height="32" viewBox="0 0 32 32" fill="none" xmlns="http://www.w3.org/2000/svg">
<circle cx="16" cy="16" r="15.2" stroke="#6C757D" stroke-width="1.6"/>
<path d="M14.5254 18.8008C14.5449 16.2422 15.3066 15.4609 16.5957 14.6602C17.416 14.1523 18.041 13.4492 18.041 12.4141C18.041 11.1836 17.1035 10.4219 15.9316 10.4219C14.877 10.4219 13.8613 11.0664 13.7637 12.5117H11.6543C11.7324 10.0312 13.6074 8.66406 15.9316 8.66406C18.4707 8.66406 20.1699 10.1875 20.1699 12.4141C20.1699 13.9766 19.4277 15.0312 18.1777 15.793C17.0059 16.4961 16.5566 17.2188 16.5176 18.8008V18.918H14.5254V18.8008ZM15.5996 23.1367C14.8379 23.1367 14.1934 22.5117 14.2129 21.75C14.1934 20.9883 14.8379 20.3633 15.5996 20.3633C16.3418 20.3633 16.9863 20.9883 16.9863 21.75C16.9863 22.5117 16.3418 23.1367 15.5996 23.1367Z" fill="#ADB5BD"/>
</svg>
