<svg width="32" height="32" viewBox="0 0 32 32" fill="none" xmlns="http://www.w3.org/2000/svg">
<rect x="2.59961" y="2.59961" width="26.8" height="26.8" rx="13.4" stroke="#CED4DA" stroke-width="2"/>
<path d="M14.3359 19.4805C14.3594 16.4102 15.2734 15.4727 16.8203 14.5117C17.8047 13.9023 18.5547 13.0586 18.5547 11.8164C18.5547 10.3398 17.4297 9.42578 16.0234 9.42578C15.0065 9.42578 14.0199 9.92512 13.6106 11.021C13.4265 11.5139 13.0133 11.9336 12.4872 11.9336H11.9226C11.358 11.9336 10.8936 11.4615 11.0169 10.9105C11.5378 8.58336 13.5725 7.31641 16.0234 7.31641C19.0703 7.31641 21.1094 9.14453 21.1094 11.8164C21.1094 13.6914 20.2188 14.957 18.7188 15.8711C17.3125 16.7148 16.7734 17.582 16.7266 19.4805C16.7266 19.5581 16.6636 19.6211 16.5859 19.6211H14.4766C14.3989 19.6211 14.3359 19.5581 14.3359 19.4805ZM15.625 24.6836C14.7109 24.6836 13.9375 23.9336 13.9609 23.0195C13.9375 22.1055 14.7109 21.3555 15.625 21.3555C16.5156 21.3555 17.2891 22.1055 17.2891 23.0195C17.2891 23.9336 16.5156 24.6836 15.625 24.6836Z" fill="#CED4DA"/>
</svg>
