<svg xmlns="http://www.w3.org/2000/svg" width="18" height="18" viewBox="0 0 18 18" fill="none">
  <path d="M14.3001 5.24812L14.3 4.24863L14.5 4.24863V6.84863L11.9 6.84863V6.64868L12.9692 6.64878L13.9152 6.64886L13.3825 5.8672C12.4293 4.46864 10.8222 3.54863 9 3.54863C6.07288 3.54863 3.7 5.92152 3.7 8.84863C3.7 11.7758 6.07288 14.1486 9 14.1486C11.7585 14.1486 14.0248 12.0413 14.2767 9.34863L14.4776 9.34863C14.225 12.1519 11.869 14.3486 9 14.3486C5.96246 14.3486 3.5 11.8862 3.5 8.84863C3.5 5.81107 5.96246 3.34863 9 3.34863C10.7989 3.34863 12.396 4.21171 13.4003 5.54847L14.3001 6.74617L14.3001 5.24812Z" fill="white" stroke="white"/>
</svg>